<?xml version="1.0" encoding="UTF-8" standalone="no"?>
<svg
   xmlns:dc="http://purl.org/dc/elements/1.1/"
   xmlns:cc="http://creativecommons.org/ns#"
   xmlns:rdf="http://www.w3.org/1999/02/22-rdf-syntax-ns#"
   xmlns:svg="http://www.w3.org/2000/svg"
   xmlns="http://www.w3.org/2000/svg"
   xmlns:sodipodi="http://sodipodi.sourceforge.net/DTD/sodipodi-0.dtd"
   xmlns:inkscape="http://www.inkscape.org/namespaces/inkscape"
   width="744.094488189"
   height="1052.36220472"
   id="svg4536"
   version="1.1"
   inkscape:version="0.91 r13725"
   sodipodi:docname="all_parts.svg">
  <metadata
     id="metadata4683">
    <rdf:RDF>
      <cc:Work
         rdf:about="">
        <dc:format>image/svg+xml</dc:format>
        <dc:type
           rdf:resource="http://purl.org/dc/dcmitype/StillImage" />
        <dc:title></dc:title>
      </cc:Work>
    </rdf:RDF>
  </metadata>
  <sodipodi:namedview
     pagecolor="#ffffff"
     bordercolor="#666666"
     borderopacity="1"
     objecttolerance="10"
     gridtolerance="10"
     guidetolerance="10"
     inkscape:pageopacity="0"
     inkscape:pageshadow="2"
     inkscape:window-width="1945"
     inkscape:window-height="1108"
     id="namedview4681"
     showgrid="false"
     inkscape:zoom="0.63429569"
     inkscape:cx="372.04724"
     inkscape:cy="526.18109"
     inkscape:window-x="0"
     inkscape:window-y="0"
     inkscape:window-maximized="0"
     inkscape:current-layer="g4555" />
  <desc
     id="desc4538">/Users/brownaa/RotaryStewartPlatform/templates_for_cutting/base_bot.dxf - scale = 1.000000, origin = (0.000000, 0.000000), auto = False</desc>
  <defs
     id="defs4540">
    <marker
       id="DistanceX"
       orient="auto"
       refX="0.0"
       refY="0.0"
       style="overflow:visible">
      <path
         d="M 3,-3 L -3,3 M 0,-5 L  0,5"
         style="stroke:#000000; stroke-width:0.5"
         id="path4543" />
    </marker>
    <pattern
       height="8"
       id="Hatch"
       patternUnits="userSpaceOnUse"
       width="8"
       x="0"
       y="0">
      <path
         d="M8 4 l-4,4"
         linecap="square"
         stroke="#000000"
         stroke-width="0.25"
         id="path4546" />
      <path
         d="M6 2 l-4,4"
         linecap="square"
         stroke="#000000"
         stroke-width="0.25"
         id="path4548" />
      <path
         d="M4 0 l-4,4"
         linecap="square"
         stroke="#000000"
         stroke-width="0.25"
         id="path4550" />
    </pattern>
    <symbol
       id="*Model_Space" />
    <symbol
       id="*Paper_Space" />
    <symbol
       id="*Paper_Space0" />
  </defs>
  <g
     inkscape:groupmode="layer"
     inkscape:label="0"
     id="g4555">
    <path
       d="M 138.188976,928.080709 99.212598,910.098425"
       style="stroke:#000000;fill:none;stroke-linecap: round"
       id="path4557" />
    <path
       d="M 99.212598,910.098425 68.066370,928.080709"
       style="stroke:#000000;fill:none;stroke-linecap: round"
       id="path4559" />
    <path
       d="M 68.066370,928.080709 68.066370,964.045276"
       style="stroke:#000000;fill:none;stroke-linecap: round"
       id="path4561" />
    <path
       d="M 68.066370,964.045276 99.212598,982.027559"
       style="stroke:#000000;fill:none;stroke-linecap: round"
       id="path4563" />
    <path
       d="M 99.212598,982.027559 138.188976,964.045276"
       style="stroke:#000000;fill:none;stroke-linecap: round"
       id="path4565" />
    <path
       d="M 138.188976,964.045276 138.188976,928.080709"
       style="stroke:#000000;fill:none;stroke-linecap: round"
       id="path4567" />
    <path
       d="M 99.462598,946.062992 A 0.250000,0.250000 -0.000000 1 0 98.962598,946.062992 0.250000,0.250000 -0.000000 1 0 99.462598,946.062992 z"
       style="stroke:#FF0000;fill:none;stroke-linecap: round"
       id="path4569" />
    <path
       d="M 82.208189,951.644570 81.328785,951.644570"
       style="stroke:#000000;fill:none;stroke-linecap: round"
       id="path4571" />
    <path
       d="M 82.208189,958.376853 81.328785,958.376853"
       style="stroke:#000000;fill:none;stroke-linecap: round"
       id="path4573" />
    <path
       d="M 82.209295,940.573751 81.329890,940.573751"
       style="stroke:#000000;fill:none;stroke-linecap: round"
       id="path4575" />
    <path
       d="M 82.209295,933.841467 81.329890,933.841467"
       style="stroke:#000000;fill:none;stroke-linecap: round"
       id="path4577" />
    <path
       d="M 102.964857,928.585407 103.404559,927.823821"
       style="stroke:#000000;fill:none;stroke-linecap: round"
       id="path4579" />
    <path
       d="M 97.134528,925.219266 97.574231,924.457679"
       style="stroke:#000000;fill:none;stroke-linecap: round"
       id="path4581" />
    <path
       d="M 112.474763,934.073026 112.914465,933.311440"
       style="stroke:#000000;fill:none;stroke-linecap: round"
       id="path4583" />
    <path
       d="M 118.305091,937.439168 118.744794,936.677582"
       style="stroke:#000000;fill:none;stroke-linecap: round"
       id="path4585" />
    <path
       d="M 118.290462,954.658003 118.753307,955.459673"
       style="stroke:#000000;fill:none;stroke-linecap: round"
       id="path4587" />
    <path
       d="M 112.460134,958.024144 112.922978,958.825814"
       style="stroke:#000000;fill:none;stroke-linecap: round"
       id="path4589" />
    <path
       d="M 102.947492,963.516270 103.410337,964.317940"
       style="stroke:#000000;fill:none;stroke-linecap: round"
       id="path4591" />
    <path
       d="M 97.117164,966.882412 97.580008,967.684082"
       style="stroke:#000000;fill:none;stroke-linecap: round"
       id="path4593" />
    <path
       d="M 97.117164,966.882412 102.947492,963.516270"
       style="stroke:#000000;fill:none;stroke-linecap: round"
       id="path4595" />
    <path
       d="M 112.460134,958.024144 118.290462,954.658003"
       style="stroke:#000000;fill:none;stroke-linecap: round"
       id="path4597" />
    <path
       d="M 118.305091,937.439168 112.474763,934.073026"
       style="stroke:#000000;fill:none;stroke-linecap: round"
       id="path4599" />
    <path
       d="M 102.964857,928.585407 97.134528,925.219266"
       style="stroke:#000000;fill:none;stroke-linecap: round"
       id="path4601" />
    <path
       d="M 82.209295,933.841467 82.209295,940.573751"
       style="stroke:#000000;fill:none;stroke-linecap: round"
       id="path4603" />
    <path
       d="M 82.208189,951.644570 82.208189,958.376853"
       style="stroke:#000000;fill:none;stroke-linecap: round"
       id="path4605" />
    <path
       d="M 100.686029,966.668198 100.977545,966.499891"
       style="stroke:#000000;fill:none;stroke-linecap: round"
       id="path4607" />
    <path
       d="M 100.977545,966.499891 100.640931,965.916858"
       style="stroke:#000000;fill:none;stroke-linecap: round"
       id="path4609" />
    <path
       d="M 100.349414,966.085165 100.686029,966.668198"
       style="stroke:#000000;fill:none;stroke-linecap: round"
       id="path4611" />
    <path
       d="M 116.028998,957.809930 116.320515,957.641623"
       style="stroke:#000000;fill:none;stroke-linecap: round"
       id="path4613" />
    <path
       d="M 116.320515,957.641623 115.983901,957.058590"
       style="stroke:#000000;fill:none;stroke-linecap: round"
       id="path4615" />
    <path
       d="M 115.692384,957.226897 116.028998,957.809930"
       style="stroke:#000000;fill:none;stroke-linecap: round"
       id="path4617" />
    <path
       d="M 81.328785,954.842404 80.689218,954.842404"
       style="stroke:#000000;fill:none;stroke-linecap: round"
       id="path4619" />
    <path
       d="M 80.689218,954.842404 80.689218,955.179018"
       style="stroke:#000000;fill:none;stroke-linecap: round"
       id="path4621" />
    <path
       d="M 80.689218,955.179018 81.328785,955.179018"
       style="stroke:#000000;fill:none;stroke-linecap: round"
       id="path4623" />
    <path
       d="M 80.690323,937.039302 80.690323,937.375916"
       style="stroke:#000000;fill:none;stroke-linecap: round"
       id="path4625" />
    <path
       d="M 80.690323,937.375916 81.329890,937.375916"
       style="stroke:#000000;fill:none;stroke-linecap: round"
       id="path4627" />
    <path
       d="M 81.329890,937.039302 80.690323,937.039302"
       style="stroke:#000000;fill:none;stroke-linecap: round"
       id="path4629" />
    <path
       d="M 100.954937,925.671022 100.663420,925.502715"
       style="stroke:#000000;fill:none;stroke-linecap: round"
       id="path4631" />
    <path
       d="M 100.663420,925.502715 100.343637,926.056596"
       style="stroke:#000000;fill:none;stroke-linecap: round"
       id="path4633" />
    <path
       d="M 100.635153,926.224903 100.954937,925.671022"
       style="stroke:#000000;fill:none;stroke-linecap: round"
       id="path4635" />
    <path
       d="M 115.975388,935.078664 116.295171,934.524783"
       style="stroke:#000000;fill:none;stroke-linecap: round"
       id="path4637" />
    <path
       d="M 116.295171,934.524783 116.003655,934.356476"
       style="stroke:#000000;fill:none;stroke-linecap: round"
       id="path4639" />
    <path
       d="M 116.003655,934.356476 115.683871,934.910357"
       style="stroke:#000000;fill:none;stroke-linecap: round"
       id="path4641" />
    <path
       d="M 102.029412,956.351759 A 0.354331,0.354331 -0.000000 1 0 101.320750,956.351759 0.354331,0.354331 -0.000000 1 0 102.029412,956.351759 z"
       style="stroke:#000000;fill:none;stroke-linecap: round"
       id="path4643" />
    <path
       d="M 107.249711,953.336948 A 0.354331,0.354331 -0.000000 1 0 106.541049,953.336948 0.354331,0.354331 -0.000000 1 0 107.249711,953.336948 z"
       style="stroke:#000000;fill:none;stroke-linecap: round"
       id="path4645" />
    <path
       d="M 94.056971,942.543086 A 0.354331,0.354331 -0.000000 1 0 93.348309,942.543086 0.354331,0.354331 -0.000000 1 0 94.056971,942.543086 z"
       style="stroke:#000000;fill:none;stroke-linecap: round"
       id="path4647" />
    <path
       d="M 99.277270,939.528276 A 0.354331,0.354331 -0.000000 1 0 98.568608,939.528276 0.354331,0.354331 -0.000000 1 0 99.277270,939.528276 z"
       style="stroke:#000000;fill:none;stroke-linecap: round"
       id="path4649" />
    <path
       d="M 81.328785,958.376853 81.328785,955.179018"
       style="stroke:#000000;fill:none;stroke-linecap: round"
       id="path4651" />
    <path
       d="M 81.328785,954.842404 81.328785,951.644570"
       style="stroke:#000000;fill:none;stroke-linecap: round"
       id="path4653" />
    <path
       d="M 81.329890,940.573751 81.329890,937.375916"
       style="stroke:#000000;fill:none;stroke-linecap: round"
       id="path4655" />
    <path
       d="M 81.329890,937.039302 81.329890,933.841467"
       style="stroke:#000000;fill:none;stroke-linecap: round"
       id="path4657" />
    <path
       d="M 97.574231,924.457679 100.343637,926.056596"
       style="stroke:#000000;fill:none;stroke-linecap: round"
       id="path4659" />
    <path
       d="M 100.635153,926.224903 103.404559,927.823821"
       style="stroke:#000000;fill:none;stroke-linecap: round"
       id="path4661" />
    <path
       d="M 112.914465,933.311440 115.683871,934.910357"
       style="stroke:#000000;fill:none;stroke-linecap: round"
       id="path4663" />
    <path
       d="M 115.975388,935.078664 118.744794,936.677582"
       style="stroke:#000000;fill:none;stroke-linecap: round"
       id="path4665" />
    <path
       d="M 118.753307,955.459673 115.983901,957.058590"
       style="stroke:#000000;fill:none;stroke-linecap: round"
       id="path4667" />
    <path
       d="M 115.692384,957.226897 112.922978,958.825814"
       style="stroke:#000000;fill:none;stroke-linecap: round"
       id="path4669" />
    <path
       d="M 103.410337,964.317940 100.640931,965.916858"
       style="stroke:#000000;fill:none;stroke-linecap: round"
       id="path4671" />
    <path
       d="M 100.349414,966.085165 97.580008,967.684082"
       style="stroke:#000000;fill:none;stroke-linecap: round"
       id="path4673" />
    <path
       d="M 81.983375,946.035938 A 0.354331,0.354331 -0.000000 1 0 81.274714,946.035938 0.354331,0.354331 -0.000000 1 0 81.983375,946.035938 z"
       style="stroke:#000000;fill:none;stroke-linecap: round"
       id="path4675" />
    <path
       d="M 108.382136,930.848714 A 0.354331,0.354331 -0.000000 1 0 107.673474,930.848714 0.354331,0.354331 -0.000000 1 0 108.382136,930.848714 z"
       style="stroke:#000000;fill:none;stroke-linecap: round"
       id="path4677" />
    <path
       d="M 108.335277,961.304324 A 0.354331,0.354331 -0.000000 1 0 107.626615,961.304324 0.354331,0.354331 -0.000000 1 0 108.335277,961.304324 z"
       style="stroke:#000000;fill:none;stroke-linecap: round"
       id="path4679" />
  </g>
</svg>
