G75*
G71*
%OFA0B0*%
%FSLAX23Y23*%
%IPPOS*%
%LPD*%
%ADD10C,0.1*%
%ADD11C,0.305*%
%LPD*%D10*
X0Y0D02*
X0Y100D01*
X0Y200D01*
X0Y300D01*
X0Y400D01*
X0Y499D01*
X0Y599D01*
X0Y699D01*
X0Y799D01*
X0Y899D01*
X0Y999D01*
X0Y1099D01*
X0Y1199D01*
X0Y1299D01*
X0Y1398D01*
X0Y1498D01*
X0Y1598D01*
X0Y1698D01*
X0Y1798D01*
X0Y1898D01*
X0Y1998D01*
X0Y2098D01*
X0Y2198D01*
X0Y2297D01*
X0Y2397D01*
X0Y2497D01*
X0Y2597D01*
X0Y2697D01*
X0Y2797D01*
X0Y2897D01*
X0Y2997D01*
X0Y3097D01*
X0Y3196D01*
X0Y3296D01*
X0Y3396D01*
X0Y3496D01*
X0Y3596D01*
X0Y3696D01*
X0Y3796D01*
X0Y3896D01*
X0Y3995D01*
X0Y4095D01*
X0Y4195D01*
X0Y4295D01*
X0Y4395D01*
X0Y4495D01*
X0Y4595D01*
X0Y4695D01*
X0Y4795D01*
X0Y4894D01*
X0Y4994D01*
X0Y5094D01*
X0Y5194D01*
X0Y5294D01*
X0Y5394D01*
X0Y5494D01*
X0Y5594D01*
X0Y5694D01*
X0Y5793D01*
X0Y5893D01*
X0Y5993D01*
X0Y6093D01*
X0Y6193D01*
X0Y6293D01*
X0Y6393D01*
X0Y6493D01*
X0Y6593D01*
X0Y6692D01*
X0Y6792D01*
X0Y6892D01*
X0Y6992D01*
X0Y7092D01*
X0Y7192D01*
X0Y7292D01*
X0Y7392D01*
X0Y7492D01*
X0Y7591D01*
X0Y7691D01*
X0Y7791D01*
X0Y7891D01*
X0Y7991D01*
X0Y8091D01*
X0Y8191D01*
X0Y8291D01*
X0Y8391D01*
X0Y8490D01*
X0Y8590D01*
X0Y8690D01*
X0Y8790D01*
X0Y8890D01*
X0Y8990D01*
X0Y9090D01*
X0Y9190D01*
X0Y9290D01*
X0Y9389D01*
X0Y9489D01*
X0Y9589D01*
X0Y9689D01*
X0Y9789D01*
X0Y9889D01*
X0Y9989D01*
X0Y10089D01*
X0Y10188D01*
X0Y10288D01*
X0Y10388D01*
X0Y10488D01*
X0Y10588D01*
X0Y10688D01*
X0Y10788D01*
X0Y10888D01*
X0Y10988D01*
X0Y11087D01*
X0Y11187D01*
X0Y11287D01*
X0Y11387D01*
X0Y11487D01*
X0Y11587D01*
X0Y11687D01*
X0Y11787D01*
X0Y11887D01*
X0Y11986D01*
X0Y12086D01*
X0Y12186D01*
X0Y12286D01*
X0Y12386D01*
X0Y12486D01*
X0Y12586D01*
X0Y12686D01*
X0Y12786D01*
X0Y12885D01*
X0Y12985D01*
X0Y13085D01*
X0Y13185D01*
X0Y13285D01*
X0Y13385D01*
X0Y13485D01*
X0Y13585D01*
X0Y13685D01*
X0Y13784D01*
X0Y13884D01*
X0Y13984D01*
X0Y14084D01*
X0Y14184D01*
X0Y14284D01*
X0Y14384D01*
X0Y14484D01*
X0Y14584D01*
X0Y14683D01*
X0Y14783D01*
X0Y14883D01*
X0Y14983D01*
X0Y15083D01*
X0Y15183D01*
X0Y15283D01*
X0Y15383D01*
X0Y15483D01*
X0Y15582D01*
X0Y15682D01*
X0Y15782D01*
X0Y15882D01*
X0Y15982D01*
X0Y16082D01*
X0Y16182D01*
X0Y16282D01*
X0Y16381D01*
X0Y16481D01*
X0Y16581D01*
X0Y16681D01*
X0Y16781D01*
X0Y16881D01*
X0Y16981D01*
X0Y17081D01*
X0Y17181D01*
X0Y17280D01*
X0Y17380D01*
X0Y17480D01*
X0Y17580D01*
X0Y17680D01*
X0Y17780D01*
X0Y17880D01*
X0Y17980D01*
X0Y18080D01*
X0Y18179D01*
X0Y18279D01*
X0Y18379D01*
X0Y18479D01*
X0Y18579D01*
X0Y18679D01*
X0Y18779D01*
X0Y18879D01*
X0Y18979D01*
X0Y19078D01*
X0Y19178D01*
X0Y19278D01*
X0Y19378D01*
X0Y19478D01*
X0Y19578D01*
X0Y19678D01*
X0Y19778D01*
X0Y19878D01*
X0Y19977D01*
X0Y20077D01*
X0Y20177D01*
X0Y20277D01*
X0Y20377D01*
X0Y20477D01*
X0Y20577D01*
X0Y20677D01*
X0Y20777D01*
X0Y20876D01*
X0Y20976D01*
X0Y21076D01*
X0Y21176D01*
X0Y21276D01*
X0Y21376D01*
X0Y21476D01*
X0Y21576D01*
X0Y21676D01*
X0Y21775D01*
X0Y21875D01*
X0Y21975D01*
X0Y22075D01*
X0Y22175D01*
X0Y22275D01*
X0Y22375D01*
X0Y22475D01*
X0Y22575D01*
X0Y22674D01*
X0Y22774D01*
X0Y22874D01*
X0Y22974D01*
X0Y23074D01*
X0Y23174D01*
X0Y23274D01*
X0Y23374D01*
X0Y23473D01*
X0Y23573D01*
X0Y23673D01*
X0Y23773D01*
X0Y23873D01*
X0Y23973D01*
X0Y24073D01*
X0Y24173D01*
X0Y24273D01*
X0Y24372D01*
X0Y24472D01*
X0Y24572D01*
X0Y24672D01*
X0Y24772D01*
X0Y24872D01*
X0Y24972D01*
X0Y25072D01*
X0Y25172D01*
X0Y25271D01*
X0Y25371D01*
X0Y25471D01*
X0Y25571D01*
X0Y25671D01*
X0Y25771D01*
X0Y25871D01*
X0Y25971D01*
X0Y26071D01*
X0Y26170D01*
X0Y26270D01*
X0Y26370D01*
X0Y26470D01*
X0Y26570D01*
X0Y26670D01*
X0Y26770D01*
X0Y26870D01*
X0Y26970D01*
X0Y27069D01*
X0Y27169D01*
X0Y27269D01*
X0Y27369D01*
X0Y27469D01*
X0Y27569D01*
X0Y27669D01*
X0Y27769D01*
X0Y27869D01*
X0Y27968D01*
X0Y28068D01*
X0Y28168D01*
X0Y28268D01*
X0Y28368D01*
X0Y28468D01*
X0Y28568D01*
X0Y28668D01*
X0Y28768D01*
X0Y28867D01*
X0Y28967D01*
X0Y29067D01*
X0Y29167D01*
X0Y29267D01*
X0Y29367D01*
X0Y29467D01*
X0Y29567D01*
X0Y29667D01*
X0Y29766D01*
X0Y29866D01*
X0Y29966D01*
X0Y30066D01*
X0Y30166D01*
X0Y30266D01*
X0Y30366D01*
X0Y30466D01*
X0Y30565D01*
X0Y30665D01*
X0Y30765D01*
X0Y30865D01*
X0Y30965D01*
X0Y31065D01*
X0Y31165D01*
X0Y31265D01*
X0Y31365D01*
X0Y31464D01*
X0Y31564D01*
X0Y31664D01*
X0Y31764D01*
X0Y31864D01*
X0Y31964D01*
X0Y32064D01*
X0Y32164D01*
X0Y32264D01*
X0Y32363D01*
X0Y32463D01*
X0Y32563D01*
X0Y32663D01*
X0Y32763D01*
X0Y32863D01*
X0Y32963D01*
X0Y33063D01*
X0Y33163D01*
X0Y33262D01*
X0Y33362D01*
X0Y33462D01*
X0Y33562D01*
X0Y33662D01*
X0Y33762D01*
X0Y33862D01*
X0Y33962D01*
X0Y34062D01*
X0Y34161D01*
X0Y34261D01*
X0Y34361D01*
X0Y34461D01*
X0Y34561D01*
X0Y34661D01*
X0Y34761D01*
X0Y34861D01*
X0Y34961D01*
X0Y35060D01*
X0Y35160D01*
X0Y35260D01*
X0Y35360D01*
X0Y35460D01*
X0Y35560D01*
X0Y35660D01*
X0Y35760D01*
X0Y35860D01*
X0Y35959D01*
X0Y36059D01*
X0Y36159D01*
X0Y36259D01*
X0Y36359D01*
X0Y36459D01*
X0Y36559D01*
X0Y36659D01*
X0Y36759D01*
X0Y36858D01*
X0Y36958D01*
X0Y37058D01*
X0Y37158D01*
X0Y37258D01*
X0Y37358D01*
X0Y37458D01*
X0Y37558D01*
X0Y37658D01*
X0Y37757D01*
X0Y37857D01*
X0Y37957D01*
X0Y38057D01*
X0Y38157D01*
X0Y38257D01*
X0Y38357D01*
X0Y38457D01*
X0Y38556D01*
X0Y38656D01*
X0Y38756D01*
X0Y38856D01*
X0Y38956D01*
X0Y39056D01*
X0Y39156D01*
X0Y39256D01*
X0Y39356D01*
X0Y39455D01*
X0Y39555D01*
X0Y39655D01*
X0Y39755D01*
X0Y39855D01*
X0Y39955D01*
X0Y40055D01*
X0Y40155D01*
X0Y40255D01*
X0Y40354D01*
X0Y40454D01*
X0Y40554D01*
X0Y40654D01*
X0Y40754D01*
X0Y40854D01*
X0Y40954D01*
X0Y41054D01*
X0Y41154D01*
X0Y41253D01*
X0Y41353D01*
X0Y41453D01*
X0Y41553D01*
X0Y41653D01*
X0Y41753D01*
X0Y41853D01*
X0Y41953D01*
X0Y42053D01*
X0Y42152D01*
X0Y42252D01*
X0Y42352D01*
X0Y42452D01*
X0Y42552D01*
X0Y42652D01*
X0Y42752D01*
X0Y42852D01*
X0Y42952D01*
X0Y43051D01*
X0Y43151D01*
X0Y43251D01*
X0Y43351D01*
X0Y43451D01*
X0Y43551D01*
X0Y43651D01*
X0Y43751D01*
X0Y43851D01*
X0Y43950D01*
X0Y44050D01*
X0Y44150D01*
X0Y44250D01*
X0Y44350D01*
X0Y44450D01*
X0Y44550D01*
X0Y44650D01*
X0Y44750D01*
X0Y44849D01*
X0Y44949D01*
X0Y45049D01*
X0Y45149D01*
X0Y45249D01*
X0Y45349D01*
X0Y45449D01*
X0Y45549D01*
X0Y45649D01*
X0Y45748D01*
X0Y45848D01*
X0Y45948D01*
X0Y46048D01*
X0Y46148D01*
X0Y46248D01*
X0Y46348D01*
X0Y46448D01*
X0Y46548D01*
X0Y46647D01*
X0Y46747D01*
X0Y46847D01*
X0Y46947D01*
X0Y47047D01*
X0Y47147D01*
X0Y47247D01*
X0Y47347D01*
X0Y47447D01*
X0Y47546D01*
X0Y47646D01*
X0Y47746D01*
X0Y47846D01*
X0Y47946D01*
X0Y48046D01*
X0Y48146D01*
X0Y48246D01*
X0Y48346D01*
X0Y48445D01*
X0Y48545D01*
X0Y48645D01*
X0Y48745D01*
X0Y48845D01*
X0Y48945D01*
X0Y49045D01*
X0Y49145D01*
X0Y49244D01*
X0Y49344D01*
X0Y49444D01*
X0Y49544D01*
X0Y49644D01*
X0Y49744D01*
X0Y49844D01*
X0Y49944D01*
X0Y50044D01*
X0Y50143D01*
X0Y50243D01*
X0Y50343D01*
X0Y50443D01*
X0Y50543D01*
X0Y50643D01*
X0Y50743D01*
X0Y50843D01*
X0Y50943D01*
X0Y51043D01*
X0Y51142D01*
X0Y51242D01*
X0Y51342D01*
X0Y51442D01*
X0Y51542D01*
X0Y51642D01*
X0Y51742D01*
X0Y51842D01*
X0Y51942D01*
X0Y52041D01*
X0Y52141D01*
X0Y52241D01*
X0Y52341D01*
X0Y52441D01*
X0Y52541D01*
X0Y52641D01*
X0Y52741D01*
X0Y52841D01*
X0Y52940D01*
X0Y53040D01*
X0Y53140D01*
X0Y53240D01*
X0Y53340D01*
X100Y53340D01*
X200Y53340D01*
X300Y53340D01*
X400Y53340D01*
X500Y53340D01*
X600Y53340D01*
X700Y53340D01*
X800Y53340D01*
X900Y53340D01*
X1000Y53340D01*
X1100Y53340D01*
X1200Y53340D01*
X1300Y53340D01*
X1400Y53340D01*
X1500Y53340D01*
X1600Y53340D01*
X1699Y53340D01*
X1799Y53340D01*
X1899Y53340D01*
X1999Y53340D01*
X2099Y53340D01*
X2199Y53340D01*
X2299Y53340D01*
X2399Y53340D01*
X2499Y53340D01*
X2599Y53340D01*
X2699Y53340D01*
X2799Y53340D01*
X2899Y53340D01*
X2999Y53340D01*
X3099Y53340D01*
X3199Y53340D01*
X3299Y53340D01*
X3399Y53340D01*
X3499Y53340D01*
X3599Y53340D01*
X3699Y53340D01*
X3799Y53340D01*
X3899Y53340D01*
X3999Y53340D01*
X4099Y53340D01*
X4199Y53340D01*
X4299Y53340D01*
X4399Y53340D01*
X4499Y53340D01*
X4599Y53340D01*
X4699Y53340D01*
X4799Y53340D01*
X4899Y53340D01*
X4999Y53340D01*
X5098Y53340D01*
X5198Y53340D01*
X5298Y53340D01*
X5398Y53340D01*
X5498Y53340D01*
X5598Y53340D01*
X5698Y53340D01*
X5798Y53340D01*
X5898Y53340D01*
X5998Y53340D01*
X6098Y53340D01*
X6198Y53340D01*
X6298Y53340D01*
X6398Y53340D01*
X6498Y53340D01*
X6598Y53340D01*
X6698Y53340D01*
X6798Y53340D01*
X6898Y53340D01*
X6998Y53340D01*
X7098Y53340D01*
X7198Y53340D01*
X7298Y53340D01*
X7398Y53340D01*
X7498Y53340D01*
X7598Y53340D01*
X7698Y53340D01*
X7798Y53340D01*
X7898Y53340D01*
X7998Y53340D01*
X8098Y53340D01*
X8198Y53340D01*
X8298Y53340D01*
X8398Y53340D01*
X8497Y53340D01*
X8597Y53340D01*
X8697Y53340D01*
X8797Y53340D01*
X8897Y53340D01*
X8997Y53340D01*
X9097Y53340D01*
X9197Y53340D01*
X9297Y53340D01*
X9397Y53340D01*
X9497Y53340D01*
X9597Y53340D01*
X9697Y53340D01*
X9797Y53340D01*
X9897Y53340D01*
X9997Y53340D01*
X10097Y53340D01*
X10197Y53340D01*
X10297Y53340D01*
X10397Y53340D01*
X10497Y53340D01*
X10597Y53340D01*
X10697Y53340D01*
X10797Y53340D01*
X10897Y53340D01*
X10997Y53340D01*
X11097Y53340D01*
X11197Y53340D01*
X11297Y53340D01*
X11397Y53340D01*
X11497Y53340D01*
X11597Y53340D01*
X11697Y53340D01*
X11797Y53340D01*
X11896Y53340D01*
X11996Y53340D01*
X12096Y53340D01*
X12196Y53340D01*
X12296Y53340D01*
X12396Y53340D01*
X12496Y53340D01*
X12596Y53340D01*
X12696Y53340D01*
X12796Y53340D01*
X12896Y53340D01*
X12996Y53340D01*
X13096Y53340D01*
X13196Y53340D01*
X13296Y53340D01*
X13396Y53340D01*
X13496Y53340D01*
X13596Y53340D01*
X13696Y53340D01*
X13796Y53340D01*
X13896Y53340D01*
X13996Y53340D01*
X14096Y53340D01*
X14196Y53340D01*
X14296Y53340D01*
X14396Y53340D01*
X14496Y53340D01*
X14596Y53340D01*
X14696Y53340D01*
X14796Y53340D01*
X14896Y53340D01*
X14996Y53340D01*
X15096Y53340D01*
X15195Y53340D01*
X15295Y53340D01*
X15395Y53340D01*
X15495Y53340D01*
X15595Y53340D01*
X15695Y53340D01*
X15795Y53340D01*
X15895Y53340D01*
X15995Y53340D01*
X16095Y53340D01*
X16195Y53340D01*
X16295Y53340D01*
X16395Y53340D01*
X16495Y53340D01*
X16595Y53340D01*
X16695Y53340D01*
X16795Y53340D01*
X16895Y53340D01*
X16995Y53340D01*
X17095Y53340D01*
X17195Y53340D01*
X17295Y53340D01*
X17395Y53340D01*
X17495Y53340D01*
X17595Y53340D01*
X17695Y53340D01*
X17795Y53340D01*
X17895Y53340D01*
X17995Y53340D01*
X18095Y53340D01*
X18195Y53340D01*
X18295Y53340D01*
X18395Y53340D01*
X18495Y53340D01*
X18594Y53340D01*
X18694Y53340D01*
X18794Y53340D01*
X18894Y53340D01*
X18994Y53340D01*
X19094Y53340D01*
X19194Y53340D01*
X19294Y53340D01*
X19394Y53340D01*
X19494Y53340D01*
X19594Y53340D01*
X19694Y53340D01*
X19794Y53340D01*
X19894Y53340D01*
X19994Y53340D01*
X20094Y53340D01*
X20194Y53340D01*
X20294Y53340D01*
X20394Y53340D01*
X20494Y53340D01*
X20594Y53340D01*
X20694Y53340D01*
X20794Y53340D01*
X20894Y53340D01*
X20994Y53340D01*
X21094Y53340D01*
X21194Y53340D01*
X21294Y53340D01*
X21394Y53340D01*
X21494Y53340D01*
X21594Y53340D01*
X21694Y53340D01*
X21794Y53340D01*
X21894Y53340D01*
X21993Y53340D01*
X22093Y53340D01*
X22193Y53340D01*
X22293Y53340D01*
X22393Y53340D01*
X22493Y53340D01*
X22593Y53340D01*
X22693Y53340D01*
X22793Y53340D01*
X22893Y53340D01*
X22993Y53340D01*
X23093Y53340D01*
X23193Y53340D01*
X23293Y53340D01*
X23393Y53340D01*
X23493Y53340D01*
X23593Y53340D01*
X23693Y53340D01*
X23793Y53340D01*
X23893Y53340D01*
X23993Y53340D01*
X24093Y53340D01*
X24193Y53340D01*
X24293Y53340D01*
X24393Y53340D01*
X24493Y53340D01*
X24593Y53340D01*
X24693Y53340D01*
X24793Y53340D01*
X24893Y53340D01*
X24993Y53340D01*
X25093Y53340D01*
X25193Y53340D01*
X25293Y53340D01*
X25392Y53340D01*
X25492Y53340D01*
X25592Y53340D01*
X25692Y53340D01*
X25792Y53340D01*
X25892Y53340D01*
X25992Y53340D01*
X26092Y53340D01*
X26192Y53340D01*
X26292Y53340D01*
X26392Y53340D01*
X26492Y53340D01*
X26592Y53340D01*
X26692Y53340D01*
X26792Y53340D01*
X26892Y53340D01*
X26992Y53340D01*
X27092Y53340D01*
X27192Y53340D01*
X27292Y53340D01*
X27392Y53340D01*
X27492Y53340D01*
X27592Y53340D01*
X27692Y53340D01*
X27792Y53340D01*
X27892Y53340D01*
X27992Y53340D01*
X28092Y53340D01*
X28192Y53340D01*
X28292Y53340D01*
X28392Y53340D01*
X28492Y53340D01*
X28592Y53340D01*
X28692Y53340D01*
X28791Y53340D01*
X28891Y53340D01*
X28991Y53340D01*
X29091Y53340D01*
X29191Y53340D01*
X29291Y53340D01*
X29391Y53340D01*
X29491Y53340D01*
X29591Y53340D01*
X29691Y53340D01*
X29791Y53340D01*
X29891Y53340D01*
X29991Y53340D01*
X30091Y53340D01*
X30191Y53340D01*
X30291Y53340D01*
X30391Y53340D01*
X30491Y53340D01*
X30591Y53340D01*
X30691Y53340D01*
X30791Y53340D01*
X30891Y53340D01*
X30991Y53340D01*
X31091Y53340D01*
X31191Y53340D01*
X31291Y53340D01*
X31391Y53340D01*
X31491Y53340D01*
X31591Y53340D01*
X31691Y53340D01*
X31791Y53340D01*
X31891Y53340D01*
X31991Y53340D01*
X32090Y53340D01*
X32190Y53340D01*
X32290Y53340D01*
X32390Y53340D01*
X32490Y53340D01*
X32590Y53340D01*
X32690Y53340D01*
X32790Y53340D01*
X32890Y53340D01*
X32990Y53340D01*
X33090Y53340D01*
X33190Y53340D01*
X33290Y53340D01*
X33390Y53340D01*
X33490Y53340D01*
X33590Y53340D01*
X33690Y53340D01*
X33790Y53340D01*
X33890Y53340D01*
X33990Y53340D01*
X34090Y53340D01*
X34190Y53340D01*
X34290Y53340D01*
X34390Y53340D01*
X34490Y53340D01*
X34590Y53340D01*
X34690Y53340D01*
X34790Y53340D01*
X34890Y53340D01*
X34990Y53340D01*
X35090Y53340D01*
X35190Y53340D01*
X35290Y53340D01*
X35390Y53340D01*
X35490Y53340D01*
X35589Y53340D01*
X35689Y53340D01*
X35789Y53340D01*
X35889Y53340D01*
X35989Y53340D01*
X36089Y53340D01*
X36189Y53340D01*
X36289Y53340D01*
X36389Y53340D01*
X36489Y53340D01*
X36589Y53340D01*
X36689Y53340D01*
X36789Y53340D01*
X36889Y53340D01*
X36989Y53340D01*
X37089Y53340D01*
X37189Y53340D01*
X37289Y53340D01*
X37389Y53340D01*
X37489Y53340D01*
X37589Y53340D01*
X37689Y53340D01*
X37789Y53340D01*
X37889Y53340D01*
X37989Y53340D01*
X38089Y53340D01*
X38189Y53340D01*
X38289Y53340D01*
X38389Y53340D01*
X38489Y53340D01*
X38589Y53340D01*
X38689Y53340D01*
X38789Y53340D01*
X38888Y53340D01*
X38988Y53340D01*
X39088Y53340D01*
X39188Y53340D01*
X39288Y53340D01*
X39388Y53340D01*
X39488Y53340D01*
X39588Y53340D01*
X39688Y53340D01*
X39788Y53340D01*
X39888Y53340D01*
X39988Y53340D01*
X40088Y53340D01*
X40188Y53340D01*
X40288Y53340D01*
X40388Y53340D01*
X40488Y53340D01*
X40588Y53340D01*
X40688Y53340D01*
X40788Y53340D01*
X40888Y53340D01*
X40988Y53340D01*
X41088Y53340D01*
X41188Y53340D01*
X41288Y53340D01*
X41388Y53340D01*
X41488Y53340D01*
X41588Y53340D01*
X41688Y53340D01*
X41788Y53340D01*
X41888Y53340D01*
X41988Y53340D01*
X42088Y53340D01*
X42188Y53340D01*
X42288Y53340D01*
X42387Y53340D01*
X42487Y53340D01*
X42587Y53340D01*
X42687Y53340D01*
X42787Y53340D01*
X42887Y53340D01*
X42987Y53340D01*
X43087Y53340D01*
X43187Y53340D01*
X43287Y53340D01*
X43387Y53340D01*
X43487Y53340D01*
X43587Y53340D01*
X43687Y53340D01*
X43787Y53340D01*
X43887Y53340D01*
X43987Y53340D01*
X44087Y53340D01*
X44187Y53340D01*
X44287Y53340D01*
X44387Y53340D01*
X44487Y53340D01*
X44587Y53340D01*
X44687Y53340D01*
X44787Y53340D01*
X44887Y53340D01*
X44987Y53340D01*
X45087Y53340D01*
X45187Y53340D01*
X45287Y53340D01*
X45387Y53340D01*
X45487Y53340D01*
X45587Y53340D01*
X45687Y53340D01*
X45786Y53340D01*
X45886Y53340D01*
X45986Y53340D01*
X46086Y53340D01*
X46186Y53340D01*
X46286Y53340D01*
X46386Y53340D01*
X46486Y53340D01*
X46586Y53340D01*
X46686Y53340D01*
X46786Y53340D01*
X46886Y53340D01*
X46986Y53340D01*
X47086Y53340D01*
X47186Y53340D01*
X47286Y53340D01*
X47386Y53340D01*
X47486Y53340D01*
X47586Y53340D01*
X47686Y53340D01*
X47786Y53340D01*
X47886Y53340D01*
X47986Y53340D01*
X48086Y53340D01*
X48186Y53340D01*
X48286Y53340D01*
X48386Y53340D01*
X48486Y53340D01*
X48586Y53340D01*
X48686Y53340D01*
X48786Y53340D01*
X48886Y53340D01*
X48986Y53340D01*
X49086Y53340D01*
X49185Y53340D01*
X49285Y53340D01*
X49385Y53340D01*
X49485Y53340D01*
X49585Y53340D01*
X49685Y53340D01*
X49785Y53340D01*
X49885Y53340D01*
X49985Y53340D01*
X50085Y53340D01*
X50185Y53340D01*
X50285Y53340D01*
X50385Y53340D01*
X50485Y53340D01*
X50585Y53340D01*
X50685Y53340D01*
X50785Y53340D01*
X50885Y53340D01*
X50985Y53340D01*
X51085Y53340D01*
X51185Y53340D01*
X51285Y53340D01*
X51385Y53340D01*
X51485Y53340D01*
X51585Y53340D01*
X51685Y53340D01*
X51785Y53340D01*
X51885Y53340D01*
X51985Y53340D01*
X52085Y53340D01*
X52185Y53340D01*
X52285Y53340D01*
X52385Y53340D01*
X52485Y53340D01*
X52584Y53340D01*
X52684Y53340D01*
X52784Y53340D01*
X52884Y53340D01*
X52984Y53340D01*
X53084Y53340D01*
X53184Y53340D01*
X53284Y53340D01*
X53384Y53340D01*
X53484Y53340D01*
X53584Y53340D01*
X53684Y53340D01*
X53784Y53340D01*
X53884Y53340D01*
X53984Y53340D01*
X54084Y53340D01*
X54184Y53340D01*
X54284Y53340D01*
X54384Y53340D01*
X54484Y53340D01*
X54584Y53340D01*
X54684Y53340D01*
X54784Y53340D01*
X54884Y53340D01*
X54984Y53340D01*
X55084Y53340D01*
X55184Y53340D01*
X55284Y53340D01*
X55384Y53340D01*
X55484Y53340D01*
X55584Y53340D01*
X55684Y53340D01*
X55784Y53340D01*
X55884Y53340D01*
X55983Y53340D01*
X56083Y53340D01*
X56183Y53340D01*
X56283Y53340D01*
X56383Y53340D01*
X56483Y53340D01*
X56583Y53340D01*
X56683Y53340D01*
X56783Y53340D01*
X56883Y53340D01*
X56983Y53340D01*
X57083Y53340D01*
X57183Y53340D01*
X57283Y53340D01*
X57383Y53340D01*
X57483Y53340D01*
X57583Y53340D01*
X57683Y53340D01*
X57783Y53340D01*
X57883Y53340D01*
X57983Y53340D01*
X58083Y53340D01*
X58183Y53340D01*
X58283Y53340D01*
X58383Y53340D01*
X58483Y53340D01*
X58583Y53340D01*
X58683Y53340D01*
X58783Y53340D01*
X58883Y53340D01*
X58983Y53340D01*
X59083Y53340D01*
X59183Y53340D01*
X59283Y53340D01*
X59383Y53340D01*
X59482Y53340D01*
X59582Y53340D01*
X59682Y53340D01*
X59782Y53340D01*
X59882Y53340D01*
X59982Y53340D01*
X60082Y53340D01*
X60182Y53340D01*
X60282Y53340D01*
X60382Y53340D01*
X60482Y53340D01*
X60582Y53340D01*
X60682Y53340D01*
X60782Y53340D01*
X60882Y53340D01*
X60982Y53340D01*
X61082Y53340D01*
X61182Y53340D01*
X61282Y53340D01*
X61382Y53340D01*
X61482Y53340D01*
X61582Y53340D01*
X61682Y53340D01*
X61782Y53340D01*
X61882Y53340D01*
X61982Y53340D01*
X62082Y53340D01*
X62182Y53340D01*
X62282Y53340D01*
X62382Y53340D01*
X62482Y53340D01*
X62582Y53340D01*
X62682Y53340D01*
X62782Y53340D01*
X62882Y53340D01*
X62981Y53340D01*
X63081Y53340D01*
X63181Y53340D01*
X63281Y53340D01*
X63381Y53340D01*
X63481Y53340D01*
X63581Y53340D01*
X63681Y53340D01*
X63781Y53340D01*
X63881Y53340D01*
X63981Y53340D01*
X64081Y53340D01*
X64181Y53340D01*
X64281Y53340D01*
X64381Y53340D01*
X64481Y53340D01*
X64581Y53340D01*
X64681Y53340D01*
X64781Y53340D01*
X64881Y53340D01*
X64981Y53340D01*
X65081Y53340D01*
X65181Y53340D01*
X65281Y53340D01*
X65381Y53340D01*
X65481Y53340D01*
X65581Y53340D01*
X65681Y53340D01*
X65781Y53340D01*
X65881Y53340D01*
X65981Y53340D01*
X66081Y53340D01*
X66181Y53340D01*
X66281Y53340D01*
X66381Y53340D01*
X66481Y53340D01*
X66580Y53340D01*
X66680Y53340D01*
X66780Y53340D01*
X66880Y53340D01*
X66980Y53340D01*
X67080Y53340D01*
X67180Y53340D01*
X67280Y53340D01*
X67380Y53340D01*
X67480Y53340D01*
X67580Y53340D01*
X67680Y53340D01*
X67780Y53340D01*
X67880Y53340D01*
X67980Y53340D01*
X68080Y53340D01*
X68180Y53340D01*
X68280Y53340D01*
X68380Y53340D01*
X68480Y53340D01*
X68580Y53340D01*
X68580Y53240D01*
X68580Y53140D01*
X68580Y53040D01*
X68580Y52940D01*
X68580Y52841D01*
X68580Y52741D01*
X68580Y52641D01*
X68580Y52541D01*
X68580Y52441D01*
X68580Y52341D01*
X68580Y52241D01*
X68580Y52141D01*
X68580Y52041D01*
X68580Y51942D01*
X68580Y51842D01*
X68580Y51742D01*
X68580Y51642D01*
X68580Y51542D01*
X68580Y51442D01*
X68580Y51342D01*
X68580Y51242D01*
X68580Y51142D01*
X68580Y51043D01*
X68580Y50943D01*
X68580Y50843D01*
X68580Y50743D01*
X68580Y50643D01*
X68580Y50543D01*
X68580Y50443D01*
X68580Y50343D01*
X68580Y50243D01*
X68580Y50144D01*
X68580Y50044D01*
X68580Y49944D01*
X68580Y49844D01*
X68580Y49744D01*
X68580Y49644D01*
X68580Y49544D01*
X68580Y49444D01*
X68580Y49345D01*
X68580Y49245D01*
X68580Y49145D01*
X68580Y49045D01*
X68580Y48945D01*
X68580Y48845D01*
X68580Y48745D01*
X68580Y48645D01*
X68580Y48545D01*
X68580Y48446D01*
X68580Y48346D01*
X68580Y48246D01*
X68580Y48146D01*
X68580Y48046D01*
X68580Y47946D01*
X68580Y47846D01*
X68580Y47746D01*
X68580Y47646D01*
X68580Y47547D01*
X68580Y47447D01*
X68580Y47347D01*
X68580Y47247D01*
X68580Y47147D01*
X68580Y47047D01*
X68580Y46947D01*
X68580Y46847D01*
X68580Y46747D01*
X68580Y46648D01*
X68580Y46548D01*
X68580Y46448D01*
X68580Y46348D01*
X68580Y46248D01*
X68580Y46148D01*
X68580Y46048D01*
X68580Y45948D01*
X68580Y45848D01*
X68580Y45749D01*
X68580Y45649D01*
X68580Y45549D01*
X68580Y45449D01*
X68580Y45349D01*
X68580Y45249D01*
X68580Y45149D01*
X68580Y45049D01*
X68580Y44949D01*
X68580Y44850D01*
X68580Y44750D01*
X68580Y44650D01*
X68580Y44550D01*
X68580Y44450D01*
X68580Y44350D01*
X68580Y44250D01*
X68580Y44150D01*
X68580Y44050D01*
X68580Y43951D01*
X68580Y43851D01*
X68580Y43751D01*
X68580Y43651D01*
X68580Y43551D01*
X68580Y43451D01*
X68580Y43351D01*
X68580Y43251D01*
X68580Y43152D01*
X68580Y43052D01*
X68580Y42952D01*
X68580Y42852D01*
X68580Y42752D01*
X68580Y42652D01*
X68580Y42552D01*
X68580Y42452D01*
X68580Y42352D01*
X68580Y42253D01*
X68580Y42153D01*
X68580Y42053D01*
X68580Y41953D01*
X68580Y41853D01*
X68580Y41753D01*
X68580Y41653D01*
X68580Y41553D01*
X68580Y41453D01*
X68580Y41354D01*
X68580Y41254D01*
X68580Y41154D01*
X68580Y41054D01*
X68580Y40954D01*
X68580Y40854D01*
X68580Y40754D01*
X68580Y40654D01*
X68580Y40554D01*
X68580Y40455D01*
X68580Y40355D01*
X68580Y40255D01*
X68580Y40155D01*
X68580Y40055D01*
X68580Y39955D01*
X68580Y39855D01*
X68580Y39755D01*
X68580Y39655D01*
X68580Y39556D01*
X68580Y39456D01*
X68580Y39356D01*
X68580Y39256D01*
X68580Y39156D01*
X68580Y39056D01*
X68580Y38956D01*
X68580Y38856D01*
X68580Y38756D01*
X68580Y38657D01*
X68580Y38557D01*
X68580Y38457D01*
X68580Y38357D01*
X68580Y38257D01*
X68580Y38157D01*
X68580Y38057D01*
X68580Y37957D01*
X68580Y37857D01*
X68580Y37758D01*
X68580Y37658D01*
X68580Y37558D01*
X68580Y37458D01*
X68580Y37358D01*
X68580Y37258D01*
X68580Y37158D01*
X68580Y37058D01*
X68580Y36959D01*
X68580Y36859D01*
X68580Y36759D01*
X68580Y36659D01*
X68580Y36559D01*
X68580Y36459D01*
X68580Y36359D01*
X68580Y36259D01*
X68580Y36159D01*
X68580Y36060D01*
X68580Y35960D01*
X68580Y35860D01*
X68580Y35760D01*
X68580Y35660D01*
X68580Y35560D01*
X68580Y35460D01*
X68580Y35360D01*
X68580Y35260D01*
X68580Y35161D01*
X68580Y35061D01*
X68580Y34961D01*
X68580Y34861D01*
X68580Y34761D01*
X68580Y34661D01*
X68580Y34561D01*
X68580Y34461D01*
X68580Y34361D01*
X68580Y34262D01*
X68580Y34162D01*
X68580Y34062D01*
X68580Y33962D01*
X68580Y33862D01*
X68580Y33762D01*
X68580Y33662D01*
X68580Y33562D01*
X68580Y33462D01*
X68580Y33363D01*
X68580Y33263D01*
X68580Y33163D01*
X68580Y33063D01*
X68580Y32963D01*
X68580Y32863D01*
X68580Y32763D01*
X68580Y32663D01*
X68580Y32563D01*
X68580Y32464D01*
X68580Y32364D01*
X68580Y32264D01*
X68580Y32164D01*
X68580Y32064D01*
X68580Y31964D01*
X68580Y31864D01*
X68580Y31764D01*
X68580Y31664D01*
X68580Y31565D01*
X68580Y31465D01*
X68580Y31365D01*
X68580Y31265D01*
X68580Y31165D01*
X68580Y31065D01*
X68580Y30965D01*
X68580Y30865D01*
X68580Y30765D01*
X68580Y30666D01*
X68580Y30566D01*
X68580Y30466D01*
X68580Y30366D01*
X68580Y30266D01*
X68580Y30166D01*
X68580Y30066D01*
X68580Y29966D01*
X68580Y29867D01*
X68580Y29767D01*
X68580Y29667D01*
X68580Y29567D01*
X68580Y29467D01*
X68580Y29367D01*
X68580Y29267D01*
X68580Y29167D01*
X68580Y29067D01*
X68580Y28968D01*
X68580Y28868D01*
X68580Y28768D01*
X68580Y28668D01*
X68580Y28568D01*
X68580Y28468D01*
X68580Y28368D01*
X68580Y28268D01*
X68580Y28168D01*
X68580Y28069D01*
X68580Y27969D01*
X68580Y27869D01*
X68580Y27769D01*
X68580Y27669D01*
X68580Y27569D01*
X68580Y27469D01*
X68580Y27369D01*
X68580Y27269D01*
X68580Y27170D01*
X68580Y27070D01*
X68580Y26970D01*
X68580Y26870D01*
X68580Y26770D01*
X68580Y26670D01*
X68580Y26570D01*
X68580Y26470D01*
X68580Y26370D01*
X68580Y26271D01*
X68580Y26171D01*
X68580Y26071D01*
X68580Y25971D01*
X68580Y25871D01*
X68580Y25771D01*
X68580Y25671D01*
X68580Y25571D01*
X68580Y25471D01*
X68580Y25372D01*
X68580Y25272D01*
X68580Y25172D01*
X68580Y25072D01*
X68580Y24972D01*
X68580Y24872D01*
X68580Y24772D01*
X68580Y24672D01*
X68580Y24572D01*
X68580Y24473D01*
X68580Y24373D01*
X68580Y24273D01*
X68580Y24173D01*
X68580Y24073D01*
X68580Y23973D01*
X68580Y23873D01*
X68580Y23773D01*
X68580Y23673D01*
X68580Y23574D01*
X68580Y23474D01*
X68580Y23374D01*
X68580Y23274D01*
X68580Y23174D01*
X68580Y23074D01*
X68580Y22974D01*
X68580Y22874D01*
X68580Y22775D01*
X68580Y22675D01*
X68580Y22575D01*
X68580Y22475D01*
X68580Y22375D01*
X68580Y22275D01*
X68580Y22175D01*
X68580Y22075D01*
X68580Y21975D01*
X68580Y21876D01*
X68580Y21776D01*
X68580Y21676D01*
X68580Y21576D01*
X68580Y21476D01*
X68580Y21376D01*
X68580Y21276D01*
X68580Y21176D01*
X68580Y21076D01*
X68580Y20977D01*
X68580Y20877D01*
X68580Y20777D01*
X68580Y20677D01*
X68580Y20577D01*
X68580Y20477D01*
X68580Y20377D01*
X68580Y20277D01*
X68580Y20177D01*
X68580Y20078D01*
X68580Y19978D01*
X68580Y19878D01*
X68580Y19778D01*
X68580Y19678D01*
X68580Y19578D01*
X68580Y19478D01*
X68580Y19378D01*
X68580Y19278D01*
X68580Y19179D01*
X68580Y19079D01*
X68580Y18979D01*
X68580Y18879D01*
X68580Y18779D01*
X68580Y18679D01*
X68580Y18579D01*
X68580Y18479D01*
X68580Y18379D01*
X68580Y18280D01*
X68580Y18180D01*
X68580Y18080D01*
X68580Y17980D01*
X68580Y17880D01*
X68580Y17780D01*
X68580Y17680D01*
X68580Y17580D01*
X68580Y17480D01*
X68580Y17381D01*
X68580Y17281D01*
X68580Y17181D01*
X68580Y17081D01*
X68580Y16981D01*
X68580Y16881D01*
X68580Y16781D01*
X68580Y16681D01*
X68580Y16581D01*
X68580Y16482D01*
X68580Y16382D01*
X68580Y16282D01*
X68580Y16182D01*
X68580Y16082D01*
X68580Y15982D01*
X68580Y15882D01*
X68580Y15782D01*
X68580Y15682D01*
X68580Y15583D01*
X68580Y15483D01*
X68580Y15383D01*
X68580Y15283D01*
X68580Y15183D01*
X68580Y15083D01*
X68580Y14983D01*
X68580Y14883D01*
X68580Y14784D01*
X68580Y14684D01*
X68580Y14584D01*
X68580Y14484D01*
X68580Y14384D01*
X68580Y14284D01*
X68580Y14184D01*
X68580Y14084D01*
X68580Y13984D01*
X68580Y13885D01*
X68580Y13785D01*
X68580Y13685D01*
X68580Y13585D01*
X68580Y13485D01*
X68580Y13385D01*
X68580Y13285D01*
X68580Y13185D01*
X68580Y13085D01*
X68580Y12986D01*
X68580Y12886D01*
X68580Y12786D01*
X68580Y12686D01*
X68580Y12586D01*
X68580Y12486D01*
X68580Y12386D01*
X68580Y12286D01*
X68580Y12186D01*
X68580Y12087D01*
X68580Y11987D01*
X68580Y11887D01*
X68580Y11787D01*
X68580Y11687D01*
X68580Y11587D01*
X68580Y11487D01*
X68580Y11387D01*
X68580Y11287D01*
X68580Y11188D01*
X68580Y11088D01*
X68580Y10988D01*
X68580Y10888D01*
X68580Y10788D01*
X68580Y10688D01*
X68580Y10588D01*
X68580Y10488D01*
X68580Y10388D01*
X68580Y10289D01*
X68580Y10189D01*
X68580Y10089D01*
X68580Y9989D01*
X68580Y9889D01*
X68580Y9789D01*
X68580Y9689D01*
X68580Y9589D01*
X68580Y9489D01*
X68580Y9390D01*
X68580Y9290D01*
X68580Y9190D01*
X68580Y9090D01*
X68580Y8990D01*
X68580Y8890D01*
X68580Y8790D01*
X68580Y8690D01*
X68580Y8590D01*
X68580Y8491D01*
X68580Y8391D01*
X68580Y8291D01*
X68580Y8191D01*
X68580Y8091D01*
X68580Y7991D01*
X68580Y7891D01*
X68580Y7791D01*
X68580Y7691D01*
X68580Y7592D01*
X68580Y7492D01*
X68580Y7392D01*
X68580Y7292D01*
X68580Y7192D01*
X68580Y7092D01*
X68580Y6992D01*
X68580Y6892D01*
X68580Y6792D01*
X68580Y6693D01*
X68580Y6593D01*
X68580Y6493D01*
X68580Y6393D01*
X68580Y6293D01*
X68580Y6193D01*
X68580Y6093D01*
X68580Y5993D01*
X68580Y5893D01*
X68580Y5794D01*
X68580Y5694D01*
X68580Y5594D01*
X68580Y5494D01*
X68580Y5394D01*
X68580Y5294D01*
X68580Y5194D01*
X68580Y5094D01*
X68580Y4994D01*
X68580Y4895D01*
X68580Y4795D01*
X68580Y4695D01*
X68580Y4595D01*
X68580Y4495D01*
X68580Y4395D01*
X68580Y4295D01*
X68580Y4195D01*
X68580Y4096D01*
X68580Y3996D01*
X68580Y3896D01*
X68580Y3796D01*
X68580Y3696D01*
X68580Y3596D01*
X68580Y3496D01*
X68580Y3396D01*
X68580Y3296D01*
X68580Y3197D01*
X68580Y3097D01*
X68580Y2997D01*
X68580Y2897D01*
X68580Y2797D01*
X68580Y2697D01*
X68580Y2597D01*
X68580Y2497D01*
X68580Y2397D01*
X68580Y2297D01*
X68580Y2198D01*
X68580Y2098D01*
X68580Y1998D01*
X68580Y1898D01*
X68580Y1798D01*
X68580Y1698D01*
X68580Y1598D01*
X68580Y1498D01*
X68580Y1398D01*
X68580Y1299D01*
X68580Y1199D01*
X68580Y1099D01*
X68580Y999D01*
X68580Y899D01*
X68580Y799D01*
X68580Y699D01*
X68580Y599D01*
X68580Y499D01*
X68580Y400D01*
X68580Y300D01*
X68580Y200D01*
X68580Y100D01*
X68580Y0D01*
X68480Y0D01*
X68380Y0D01*
X68280Y0D01*
X68180Y0D01*
X68080Y0D01*
X67980Y0D01*
X67880Y0D01*
X67780Y0D01*
X67680Y0D01*
X67580Y0D01*
X67480Y0D01*
X67380Y0D01*
X67280Y0D01*
X67180Y0D01*
X67080Y0D01*
X66980Y0D01*
X66881Y0D01*
X66781Y0D01*
X66681Y0D01*
X66581Y0D01*
X66481Y0D01*
X66381Y0D01*
X66281Y0D01*
X66181Y0D01*
X66081Y0D01*
X65981Y0D01*
X65881Y0D01*
X65781Y0D01*
X65681Y0D01*
X65581Y0D01*
X65481Y0D01*
X65381Y0D01*
X65281Y0D01*
X65181Y0D01*
X65081Y0D01*
X64981Y0D01*
X64881Y0D01*
X64781Y0D01*
X64681Y0D01*
X64581Y0D01*
X64481Y0D01*
X64381Y0D01*
X64281Y0D01*
X64181Y0D01*
X64081Y0D01*
X63981Y0D01*
X63881Y0D01*
X63781Y0D01*
X63681Y0D01*
X63581Y0D01*
X63482Y0D01*
X63382Y0D01*
X63282Y0D01*
X63182Y0D01*
X63082Y0D01*
X62982Y0D01*
X62882Y0D01*
X62782Y0D01*
X62682Y0D01*
X62582Y0D01*
X62482Y0D01*
X62382Y0D01*
X62282Y0D01*
X62182Y0D01*
X62082Y0D01*
X61982Y0D01*
X61882Y0D01*
X61782Y0D01*
X61682Y0D01*
X61582Y0D01*
X61482Y0D01*
X61382Y0D01*
X61282Y0D01*
X61182Y0D01*
X61082Y0D01*
X60982Y0D01*
X60882Y0D01*
X60782Y0D01*
X60682Y0D01*
X60582Y0D01*
X60482Y0D01*
X60382Y0D01*
X60282Y0D01*
X60182Y0D01*
X60083Y0D01*
X59983Y0D01*
X59883Y0D01*
X59783Y0D01*
X59683Y0D01*
X59583Y0D01*
X59483Y0D01*
X59383Y0D01*
X59283Y0D01*
X59183Y0D01*
X59083Y0D01*
X58983Y0D01*
X58883Y0D01*
X58783Y0D01*
X58683Y0D01*
X58583Y0D01*
X58483Y0D01*
X58383Y0D01*
X58283Y0D01*
X58183Y0D01*
X58083Y0D01*
X57983Y0D01*
X57883Y0D01*
X57783Y0D01*
X57683Y0D01*
X57583Y0D01*
X57483Y0D01*
X57383Y0D01*
X57283Y0D01*
X57183Y0D01*
X57083Y0D01*
X56983Y0D01*
X56883Y0D01*
X56783Y0D01*
X56684Y0D01*
X56584Y0D01*
X56484Y0D01*
X56384Y0D01*
X56284Y0D01*
X56184Y0D01*
X56084Y0D01*
X55984Y0D01*
X55884Y0D01*
X55784Y0D01*
X55684Y0D01*
X55584Y0D01*
X55484Y0D01*
X55384Y0D01*
X55284Y0D01*
X55184Y0D01*
X55084Y0D01*
X54984Y0D01*
X54884Y0D01*
X54784Y0D01*
X54684Y0D01*
X54584Y0D01*
X54484Y0D01*
X54384Y0D01*
X54284Y0D01*
X54184Y0D01*
X54084Y0D01*
X53984Y0D01*
X53884Y0D01*
X53784Y0D01*
X53684Y0D01*
X53584Y0D01*
X53484Y0D01*
X53385Y0D01*
X53285Y0D01*
X53185Y0D01*
X53085Y0D01*
X52985Y0D01*
X52885Y0D01*
X52785Y0D01*
X52685Y0D01*
X52585Y0D01*
X52485Y0D01*
X52385Y0D01*
X52285Y0D01*
X52185Y0D01*
X52085Y0D01*
X51985Y0D01*
X51885Y0D01*
X51785Y0D01*
X51685Y0D01*
X51585Y0D01*
X51485Y0D01*
X51385Y0D01*
X51285Y0D01*
X51185Y0D01*
X51085Y0D01*
X50985Y0D01*
X50885Y0D01*
X50785Y0D01*
X50685Y0D01*
X50585Y0D01*
X50485Y0D01*
X50385Y0D01*
X50285Y0D01*
X50185Y0D01*
X50085Y0D01*
X49986Y0D01*
X49886Y0D01*
X49786Y0D01*
X49686Y0D01*
X49586Y0D01*
X49486Y0D01*
X49386Y0D01*
X49286Y0D01*
X49186Y0D01*
X49086Y0D01*
X48986Y0D01*
X48886Y0D01*
X48786Y0D01*
X48686Y0D01*
X48586Y0D01*
X48486Y0D01*
X48386Y0D01*
X48286Y0D01*
X48186Y0D01*
X48086Y0D01*
X47986Y0D01*
X47886Y0D01*
X47786Y0D01*
X47686Y0D01*
X47586Y0D01*
X47486Y0D01*
X47386Y0D01*
X47286Y0D01*
X47186Y0D01*
X47086Y0D01*
X46986Y0D01*
X46886Y0D01*
X46786Y0D01*
X46686Y0D01*
X46587Y0D01*
X46487Y0D01*
X46387Y0D01*
X46287Y0D01*
X46187Y0D01*
X46087Y0D01*
X45987Y0D01*
X45887Y0D01*
X45787Y0D01*
X45687Y0D01*
X45587Y0D01*
X45487Y0D01*
X45387Y0D01*
X45287Y0D01*
X45187Y0D01*
X45087Y0D01*
X44987Y0D01*
X44887Y0D01*
X44787Y0D01*
X44687Y0D01*
X44587Y0D01*
X44487Y0D01*
X44387Y0D01*
X44287Y0D01*
X44187Y0D01*
X44087Y0D01*
X43987Y0D01*
X43887Y0D01*
X43787Y0D01*
X43687Y0D01*
X43587Y0D01*
X43487Y0D01*
X43387Y0D01*
X43287Y0D01*
X43188Y0D01*
X43088Y0D01*
X42988Y0D01*
X42888Y0D01*
X42788Y0D01*
X42688Y0D01*
X42588Y0D01*
X42488Y0D01*
X42388Y0D01*
X42288Y0D01*
X42188Y0D01*
X42088Y0D01*
X41988Y0D01*
X41888Y0D01*
X41788Y0D01*
X41688Y0D01*
X41588Y0D01*
X41488Y0D01*
X41388Y0D01*
X41288Y0D01*
X41188Y0D01*
X41088Y0D01*
X40988Y0D01*
X40888Y0D01*
X40788Y0D01*
X40688Y0D01*
X40588Y0D01*
X40488Y0D01*
X40388Y0D01*
X40288Y0D01*
X40188Y0D01*
X40088Y0D01*
X39988Y0D01*
X39888Y0D01*
X39789Y0D01*
X39689Y0D01*
X39589Y0D01*
X39489Y0D01*
X39389Y0D01*
X39289Y0D01*
X39189Y0D01*
X39089Y0D01*
X38989Y0D01*
X38889Y0D01*
X38789Y0D01*
X38689Y0D01*
X38589Y0D01*
X38489Y0D01*
X38389Y0D01*
X38289Y0D01*
X38189Y0D01*
X38089Y0D01*
X37989Y0D01*
X37889Y0D01*
X37789Y0D01*
X37689Y0D01*
X37589Y0D01*
X37489Y0D01*
X37389Y0D01*
X37289Y0D01*
X37189Y0D01*
X37089Y0D01*
X36989Y0D01*
X36889Y0D01*
X36789Y0D01*
X36689Y0D01*
X36589Y0D01*
X36490Y0D01*
X36390Y0D01*
X36290Y0D01*
X36190Y0D01*
X36090Y0D01*
X35990Y0D01*
X35890Y0D01*
X35790Y0D01*
X35690Y0D01*
X35590Y0D01*
X35490Y0D01*
X35390Y0D01*
X35290Y0D01*
X35190Y0D01*
X35090Y0D01*
X34990Y0D01*
X34890Y0D01*
X34790Y0D01*
X34690Y0D01*
X34590Y0D01*
X34490Y0D01*
X34390Y0D01*
X34290Y0D01*
X34190Y0D01*
X34090Y0D01*
X33990Y0D01*
X33890Y0D01*
X33790Y0D01*
X33690Y0D01*
X33590Y0D01*
X33490Y0D01*
X33390Y0D01*
X33290Y0D01*
X33190Y0D01*
X33090Y0D01*
X32991Y0D01*
X32891Y0D01*
X32791Y0D01*
X32691Y0D01*
X32591Y0D01*
X32491Y0D01*
X32391Y0D01*
X32291Y0D01*
X32191Y0D01*
X32091Y0D01*
X31991Y0D01*
X31891Y0D01*
X31791Y0D01*
X31691Y0D01*
X31591Y0D01*
X31491Y0D01*
X31391Y0D01*
X31291Y0D01*
X31191Y0D01*
X31091Y0D01*
X30991Y0D01*
X30891Y0D01*
X30791Y0D01*
X30691Y0D01*
X30591Y0D01*
X30491Y0D01*
X30391Y0D01*
X30291Y0D01*
X30191Y0D01*
X30091Y0D01*
X29991Y0D01*
X29891Y0D01*
X29791Y0D01*
X29692Y0D01*
X29592Y0D01*
X29492Y0D01*
X29392Y0D01*
X29292Y0D01*
X29192Y0D01*
X29092Y0D01*
X28992Y0D01*
X28892Y0D01*
X28792Y0D01*
X28692Y0D01*
X28592Y0D01*
X28492Y0D01*
X28392Y0D01*
X28292Y0D01*
X28192Y0D01*
X28092Y0D01*
X27992Y0D01*
X27892Y0D01*
X27792Y0D01*
X27692Y0D01*
X27592Y0D01*
X27492Y0D01*
X27392Y0D01*
X27292Y0D01*
X27192Y0D01*
X27092Y0D01*
X26992Y0D01*
X26892Y0D01*
X26792Y0D01*
X26692Y0D01*
X26592Y0D01*
X26492Y0D01*
X26392Y0D01*
X26292Y0D01*
X26193Y0D01*
X26093Y0D01*
X25993Y0D01*
X25893Y0D01*
X25793Y0D01*
X25693Y0D01*
X25593Y0D01*
X25493Y0D01*
X25393Y0D01*
X25293Y0D01*
X25193Y0D01*
X25093Y0D01*
X24993Y0D01*
X24893Y0D01*
X24793Y0D01*
X24693Y0D01*
X24593Y0D01*
X24493Y0D01*
X24393Y0D01*
X24293Y0D01*
X24193Y0D01*
X24093Y0D01*
X23993Y0D01*
X23893Y0D01*
X23793Y0D01*
X23693Y0D01*
X23593Y0D01*
X23493Y0D01*
X23393Y0D01*
X23293Y0D01*
X23193Y0D01*
X23093Y0D01*
X22993Y0D01*
X22893Y0D01*
X22794Y0D01*
X22694Y0D01*
X22594Y0D01*
X22494Y0D01*
X22394Y0D01*
X22294Y0D01*
X22194Y0D01*
X22094Y0D01*
X21994Y0D01*
X21894Y0D01*
X21794Y0D01*
X21694Y0D01*
X21594Y0D01*
X21494Y0D01*
X21394Y0D01*
X21294Y0D01*
X21194Y0D01*
X21094Y0D01*
X20994Y0D01*
X20894Y0D01*
X20794Y0D01*
X20694Y0D01*
X20594Y0D01*
X20494Y0D01*
X20394Y0D01*
X20294Y0D01*
X20194Y0D01*
X20094Y0D01*
X19994Y0D01*
X19894Y0D01*
X19794Y0D01*
X19694Y0D01*
X19594Y0D01*
X19494Y0D01*
X19395Y0D01*
X19295Y0D01*
X19195Y0D01*
X19095Y0D01*
X18995Y0D01*
X18895Y0D01*
X18795Y0D01*
X18695Y0D01*
X18595Y0D01*
X18495Y0D01*
X18395Y0D01*
X18295Y0D01*
X18195Y0D01*
X18095Y0D01*
X17995Y0D01*
X17895Y0D01*
X17795Y0D01*
X17695Y0D01*
X17595Y0D01*
X17495Y0D01*
X17395Y0D01*
X17295Y0D01*
X17195Y0D01*
X17095Y0D01*
X16995Y0D01*
X16895Y0D01*
X16795Y0D01*
X16695Y0D01*
X16595Y0D01*
X16495Y0D01*
X16395Y0D01*
X16295Y0D01*
X16195Y0D01*
X16095Y0D01*
X15996Y0D01*
X15896Y0D01*
X15796Y0D01*
X15696Y0D01*
X15596Y0D01*
X15496Y0D01*
X15396Y0D01*
X15296Y0D01*
X15196Y0D01*
X15096Y0D01*
X14996Y0D01*
X14896Y0D01*
X14796Y0D01*
X14696Y0D01*
X14596Y0D01*
X14496Y0D01*
X14396Y0D01*
X14296Y0D01*
X14196Y0D01*
X14096Y0D01*
X13996Y0D01*
X13896Y0D01*
X13796Y0D01*
X13696Y0D01*
X13596Y0D01*
X13496Y0D01*
X13396Y0D01*
X13296Y0D01*
X13196Y0D01*
X13096Y0D01*
X12996Y0D01*
X12896Y0D01*
X12796Y0D01*
X12696Y0D01*
X12597Y0D01*
X12497Y0D01*
X12397Y0D01*
X12297Y0D01*
X12197Y0D01*
X12097Y0D01*
X11997Y0D01*
X11897Y0D01*
X11797Y0D01*
X11697Y0D01*
X11597Y0D01*
X11497Y0D01*
X11397Y0D01*
X11297Y0D01*
X11197Y0D01*
X11097Y0D01*
X10997Y0D01*
X10897Y0D01*
X10797Y0D01*
X10697Y0D01*
X10597Y0D01*
X10497Y0D01*
X10397Y0D01*
X10297Y0D01*
X10197Y0D01*
X10097Y0D01*
X9997Y0D01*
X9897Y0D01*
X9797Y0D01*
X9697Y0D01*
X9597Y0D01*
X9497Y0D01*
X9397Y0D01*
X9297Y0D01*
X9197Y0D01*
X9098Y0D01*
X8998Y0D01*
X8898Y0D01*
X8798Y0D01*
X8698Y0D01*
X8598Y0D01*
X8498Y0D01*
X8398Y0D01*
X8298Y0D01*
X8198Y0D01*
X8098Y0D01*
X7998Y0D01*
X7898Y0D01*
X7798Y0D01*
X7698Y0D01*
X7598Y0D01*
X7498Y0D01*
X7398Y0D01*
X7298Y0D01*
X7198Y0D01*
X7098Y0D01*
X6998Y0D01*
X6898Y0D01*
X6798Y0D01*
X6698Y0D01*
X6598Y0D01*
X6498Y0D01*
X6398Y0D01*
X6298Y0D01*
X6198Y0D01*
X6098Y0D01*
X5998Y0D01*
X5898Y0D01*
X5798Y0D01*
X5698Y0D01*
X5599Y0D01*
X5499Y0D01*
X5399Y0D01*
X5299Y0D01*
X5199Y0D01*
X5099Y0D01*
X4999Y0D01*
X4899Y0D01*
X4799Y0D01*
X4699Y0D01*
X4599Y0D01*
X4499Y0D01*
X4399Y0D01*
X4299Y0D01*
X4199Y0D01*
X4099Y0D01*
X3999Y0D01*
X3899Y0D01*
X3799Y0D01*
X3699Y0D01*
X3599Y0D01*
X3499Y0D01*
X3399Y0D01*
X3299Y0D01*
X3199Y0D01*
X3099Y0D01*
X2999Y0D01*
X2899Y0D01*
X2799Y0D01*
X2699Y0D01*
X2599Y0D01*
X2499Y0D01*
X2399Y0D01*
X2299Y0D01*
X2199Y0D01*
X2099Y0D01*
X2000Y0D01*
X1900Y0D01*
X1800Y0D01*
X1700Y0D01*
X1600Y0D01*
X1500Y0D01*
X1400Y0D01*
X1300Y0D01*
X1200Y0D01*
X1100Y0D01*
X1000Y0D01*
X900Y0D01*
X800Y0D01*
X700Y0D01*
X600Y0D01*
X500Y0D01*
X400Y0D01*
X300Y0D01*
X200Y0D01*
X100Y0D01*
X0Y0D01*
X0Y0D01*
D11*
X20320Y25400D02*
X10160Y25400D01*
D11*
X20320Y25400D02*
X20320Y25400D01*
D11*
X20320Y25400D02*
X30480Y25400D01*
D11*
X20320Y25400D02*
X20320Y25400D01*
D11*
X40640Y25400D02*
X30480Y25400D01*
D11*
X40640Y25400D02*
X40640Y25400D01*
D11*
X50800Y25400D02*
X40640Y25400D01*
D11*
X50800Y25400D02*
X50800Y25400D01*
D11*
X60990Y25400D02*
X50800Y25400D01*
D11*
X60990Y25400D02*
X60990Y25400D01*
D11*
X40640Y2540D02*
X40640Y25400D01*
D11*
X40640Y2540D02*
X40640Y2540D01*
D11*
X40640Y24105D02*
X40640Y25400D01*
D11*
X25444Y8909D02*
X40640Y24105D01*
D11*
X10160Y8909D02*
X25444Y8909D01*
D11*
X10160Y25400D02*
X10160Y25400D01*
D11*
X30480Y25400D02*
X30480Y25400D01*
D11*
X20320Y25400D02*
X20320Y25400D01*
D11*
X30480Y25400D02*
X30480Y25400D01*
D11*
X40640Y25400D02*
X40640Y25400D01*
D11*
X50800Y25400D02*
X50800Y25400D01*
D11*
X40640Y25400D02*
X40640Y25400D01*
D11*
X40640Y25400D02*
X40640Y25400D01*
D11*
X10160Y8909D02*
X10160Y8909D01*
G36*
X9411Y31230D02*
X10910Y31230D01*
X10910Y31230D01*
X10910Y29731D01*
X10910Y29730D01*
X9411Y29730D01*
X9410Y29731D01*
X9410Y31230D01*
X9411Y31230D01*
G37*
G36*
X9411Y28690D02*
X10910Y28690D01*
X10910Y28690D01*
X10910Y27191D01*
X10910Y27190D01*
X9411Y27190D01*
X9410Y27191D01*
X9410Y28690D01*
X9411Y28690D01*
G37*
G36*
X9411Y26150D02*
X10910Y26150D01*
X10910Y26150D01*
X10910Y24651D01*
X10910Y24650D01*
X9411Y24650D01*
X9410Y24651D01*
X9410Y26150D01*
X9411Y26150D01*
G37*
G36*
X19571Y31230D02*
X21070Y31230D01*
X21070Y31230D01*
X21070Y29731D01*
X21070Y29730D01*
X19571Y29730D01*
X19570Y29731D01*
X19570Y31230D01*
X19571Y31230D01*
G37*
G36*
X19571Y28690D02*
X21070Y28690D01*
X21070Y28690D01*
X21070Y27191D01*
X21070Y27190D01*
X19571Y27190D01*
X19570Y27191D01*
X19570Y28690D01*
X19571Y28690D01*
G37*
G36*
X19571Y26150D02*
X21070Y26150D01*
X21070Y26150D01*
X21070Y24651D01*
X21070Y24650D01*
X19571Y24650D01*
X19570Y24651D01*
X19570Y26150D01*
X19571Y26150D01*
G37*
G36*
X29731Y31230D02*
X31230Y31230D01*
X31230Y31230D01*
X31230Y29731D01*
X31230Y29730D01*
X29731Y29730D01*
X29730Y29731D01*
X29730Y31230D01*
X29731Y31230D01*
G37*
G36*
X29731Y28690D02*
X31230Y28690D01*
X31230Y28690D01*
X31230Y27191D01*
X31230Y27190D01*
X29731Y27190D01*
X29730Y27191D01*
X29730Y28690D01*
X29731Y28690D01*
G37*
G36*
X29731Y26150D02*
X31230Y26150D01*
X31230Y26150D01*
X31230Y24651D01*
X31230Y24650D01*
X29731Y24650D01*
X29730Y24651D01*
X29730Y26150D01*
X29731Y26150D01*
G37*
G36*
X9366Y13196D02*
X9366Y14782D01*
X9367Y14783D01*
X10953Y14783D01*
X10954Y14782D01*
X10954Y13196D01*
X10953Y13195D01*
X9367Y13195D01*
X9366Y13196D01*
G37*
G36*
X9366Y8116D02*
X9366Y9702D01*
X9367Y9703D01*
X10953Y9703D01*
X10954Y9702D01*
X10954Y8116D01*
X10953Y8115D01*
X9367Y8115D01*
X9366Y8116D01*
G37*
G36*
X26366Y52800D02*
X26466Y52800D01*
X26562Y52794D01*
X26658Y52777D01*
X26750Y52748D01*
X26838Y52709D01*
X26920Y52658D01*
X26996Y52599D01*
X27065Y52530D01*
X27124Y52454D01*
X27175Y52372D01*
X27214Y52284D01*
X27243Y52192D01*
X27260Y52096D01*
X27266Y52000D01*
X27266Y49600D01*
X27260Y49504D01*
X27243Y49408D01*
X27214Y49316D01*
X27175Y49228D01*
X27124Y49146D01*
X27065Y49070D01*
X26996Y49001D01*
X26920Y48942D01*
X26838Y48891D01*
X26750Y48852D01*
X26658Y48823D01*
X26562Y48806D01*
X26466Y48800D01*
X26366Y48800D01*
X26270Y48806D01*
X26174Y48823D01*
X26082Y48852D01*
X25994Y48891D01*
X25912Y48942D01*
X25836Y49001D01*
X25767Y49070D01*
X25708Y49146D01*
X25657Y49228D01*
X25618Y49316D01*
X25589Y49408D01*
X25572Y49504D01*
X25566Y49600D01*
X25566Y52000D01*
X25572Y52096D01*
X25589Y52192D01*
X25618Y52284D01*
X25657Y52372D01*
X25708Y52454D01*
X25767Y52530D01*
X25836Y52599D01*
X25912Y52658D01*
X25994Y52709D01*
X26082Y52748D01*
X26174Y52777D01*
X26270Y52794D01*
X26366Y52800D01*
G37*
G36*
X45670Y52800D02*
X45770Y52800D01*
X45866Y52794D01*
X45962Y52777D01*
X46054Y52748D01*
X46142Y52709D01*
X46224Y52658D01*
X46300Y52599D01*
X46369Y52530D01*
X46428Y52454D01*
X46479Y52372D01*
X46518Y52284D01*
X46547Y52192D01*
X46564Y52096D01*
X46570Y52000D01*
X46570Y49600D01*
X46564Y49504D01*
X46547Y49408D01*
X46518Y49316D01*
X46479Y49228D01*
X46428Y49146D01*
X46369Y49070D01*
X46300Y49001D01*
X46224Y48942D01*
X46142Y48891D01*
X46054Y48852D01*
X45962Y48823D01*
X45866Y48806D01*
X45770Y48800D01*
X45670Y48800D01*
X45574Y48806D01*
X45478Y48823D01*
X45386Y48852D01*
X45298Y48891D01*
X45216Y48942D01*
X45140Y49001D01*
X45071Y49070D01*
X45012Y49146D01*
X44961Y49228D01*
X44922Y49316D01*
X44893Y49408D01*
X44876Y49504D01*
X44870Y49600D01*
X44870Y52000D01*
X44876Y52096D01*
X44893Y52192D01*
X44922Y52284D01*
X44961Y52372D01*
X45012Y52454D01*
X45071Y52530D01*
X45140Y52599D01*
X45216Y52658D01*
X45298Y52709D01*
X45386Y52748D01*
X45478Y52777D01*
X45574Y52794D01*
X45670Y52800D01*
G37*
G36*
X55830Y52800D02*
X55930Y52800D01*
X56026Y52794D01*
X56122Y52777D01*
X56214Y52748D01*
X56302Y52709D01*
X56384Y52658D01*
X56460Y52599D01*
X56529Y52530D01*
X56588Y52454D01*
X56639Y52372D01*
X56678Y52284D01*
X56707Y52192D01*
X56724Y52096D01*
X56730Y52000D01*
X56730Y49600D01*
X56724Y49504D01*
X56707Y49408D01*
X56678Y49316D01*
X56639Y49228D01*
X56588Y49146D01*
X56529Y49070D01*
X56460Y49001D01*
X56384Y48942D01*
X56302Y48891D01*
X56214Y48852D01*
X56122Y48823D01*
X56026Y48806D01*
X55930Y48800D01*
X55830Y48800D01*
X55734Y48806D01*
X55638Y48823D01*
X55546Y48852D01*
X55458Y48891D01*
X55376Y48942D01*
X55300Y49001D01*
X55231Y49070D01*
X55172Y49146D01*
X55121Y49228D01*
X55082Y49316D01*
X55053Y49408D01*
X55036Y49504D01*
X55030Y49600D01*
X55030Y52000D01*
X55036Y52096D01*
X55053Y52192D01*
X55082Y52284D01*
X55121Y52372D01*
X55172Y52454D01*
X55231Y52530D01*
X55300Y52599D01*
X55376Y52658D01*
X55458Y52709D01*
X55546Y52748D01*
X55638Y52777D01*
X55734Y52794D01*
X55830Y52800D01*
G37*
G36*
X58370Y52800D02*
X58470Y52800D01*
X58566Y52794D01*
X58662Y52777D01*
X58754Y52748D01*
X58842Y52709D01*
X58924Y52658D01*
X59000Y52599D01*
X59069Y52530D01*
X59128Y52454D01*
X59179Y52372D01*
X59218Y52284D01*
X59247Y52192D01*
X59264Y52096D01*
X59270Y52000D01*
X59270Y49600D01*
X59264Y49504D01*
X59247Y49408D01*
X59218Y49316D01*
X59179Y49228D01*
X59128Y49146D01*
X59069Y49070D01*
X59000Y49001D01*
X58924Y48942D01*
X58842Y48891D01*
X58754Y48852D01*
X58662Y48823D01*
X58566Y48806D01*
X58470Y48800D01*
X58370Y48800D01*
X58274Y48806D01*
X58178Y48823D01*
X58086Y48852D01*
X57998Y48891D01*
X57916Y48942D01*
X57840Y49001D01*
X57771Y49070D01*
X57712Y49146D01*
X57661Y49228D01*
X57622Y49316D01*
X57593Y49408D01*
X57576Y49504D01*
X57570Y49600D01*
X57570Y52000D01*
X57576Y52096D01*
X57593Y52192D01*
X57622Y52284D01*
X57661Y52372D01*
X57712Y52454D01*
X57771Y52530D01*
X57840Y52599D01*
X57916Y52658D01*
X57998Y52709D01*
X58086Y52748D01*
X58178Y52777D01*
X58274Y52794D01*
X58370Y52800D01*
G37*
G36*
X50750Y52800D02*
X50850Y52800D01*
X50946Y52794D01*
X51042Y52777D01*
X51134Y52748D01*
X51222Y52709D01*
X51304Y52658D01*
X51380Y52599D01*
X51449Y52530D01*
X51508Y52454D01*
X51559Y52372D01*
X51598Y52284D01*
X51627Y52192D01*
X51644Y52096D01*
X51650Y52000D01*
X51650Y49600D01*
X51644Y49504D01*
X51627Y49408D01*
X51598Y49316D01*
X51559Y49228D01*
X51508Y49146D01*
X51449Y49070D01*
X51380Y49001D01*
X51304Y48942D01*
X51222Y48891D01*
X51134Y48852D01*
X51042Y48823D01*
X50946Y48806D01*
X50850Y48800D01*
X50750Y48800D01*
X50654Y48806D01*
X50558Y48823D01*
X50466Y48852D01*
X50378Y48891D01*
X50296Y48942D01*
X50220Y49001D01*
X50151Y49070D01*
X50092Y49146D01*
X50041Y49228D01*
X50002Y49316D01*
X49973Y49408D01*
X49956Y49504D01*
X49950Y49600D01*
X49950Y52000D01*
X49956Y52096D01*
X49973Y52192D01*
X50002Y52284D01*
X50041Y52372D01*
X50092Y52454D01*
X50151Y52530D01*
X50220Y52599D01*
X50296Y52658D01*
X50378Y52709D01*
X50466Y52748D01*
X50558Y52777D01*
X50654Y52794D01*
X50750Y52800D01*
G37*
G36*
X31446Y52800D02*
X31546Y52800D01*
X31642Y52794D01*
X31738Y52777D01*
X31830Y52748D01*
X31918Y52709D01*
X32000Y52658D01*
X32076Y52599D01*
X32145Y52530D01*
X32204Y52454D01*
X32255Y52372D01*
X32294Y52284D01*
X32323Y52192D01*
X32340Y52096D01*
X32346Y52000D01*
X32346Y49600D01*
X32340Y49504D01*
X32323Y49408D01*
X32294Y49316D01*
X32255Y49228D01*
X32204Y49146D01*
X32145Y49070D01*
X32076Y49001D01*
X32000Y48942D01*
X31918Y48891D01*
X31830Y48852D01*
X31738Y48823D01*
X31642Y48806D01*
X31546Y48800D01*
X31446Y48800D01*
X31350Y48806D01*
X31254Y48823D01*
X31162Y48852D01*
X31074Y48891D01*
X30992Y48942D01*
X30916Y49001D01*
X30847Y49070D01*
X30788Y49146D01*
X30737Y49228D01*
X30698Y49316D01*
X30669Y49408D01*
X30652Y49504D01*
X30646Y49600D01*
X30646Y52000D01*
X30652Y52096D01*
X30669Y52192D01*
X30698Y52284D01*
X30737Y52372D01*
X30788Y52454D01*
X30847Y52530D01*
X30916Y52599D01*
X30992Y52658D01*
X31074Y52709D01*
X31162Y52748D01*
X31254Y52777D01*
X31350Y52794D01*
X31446Y52800D01*
G37*
G36*
X36526Y52800D02*
X36626Y52800D01*
X36722Y52794D01*
X36818Y52777D01*
X36910Y52748D01*
X36998Y52709D01*
X37080Y52658D01*
X37156Y52599D01*
X37225Y52530D01*
X37284Y52454D01*
X37335Y52372D01*
X37374Y52284D01*
X37403Y52192D01*
X37420Y52096D01*
X37426Y52000D01*
X37426Y49600D01*
X37420Y49504D01*
X37403Y49408D01*
X37374Y49316D01*
X37335Y49228D01*
X37284Y49146D01*
X37225Y49070D01*
X37156Y49001D01*
X37080Y48942D01*
X36998Y48891D01*
X36910Y48852D01*
X36818Y48823D01*
X36722Y48806D01*
X36626Y48800D01*
X36526Y48800D01*
X36430Y48806D01*
X36334Y48823D01*
X36242Y48852D01*
X36154Y48891D01*
X36072Y48942D01*
X35996Y49001D01*
X35927Y49070D01*
X35868Y49146D01*
X35817Y49228D01*
X35778Y49316D01*
X35749Y49408D01*
X35732Y49504D01*
X35726Y49600D01*
X35726Y52000D01*
X35732Y52096D01*
X35749Y52192D01*
X35778Y52284D01*
X35817Y52372D01*
X35868Y52454D01*
X35927Y52530D01*
X35996Y52599D01*
X36072Y52658D01*
X36154Y52709D01*
X36242Y52748D01*
X36334Y52777D01*
X36430Y52794D01*
X36526Y52800D01*
G37*
G36*
X39066Y52800D02*
X39166Y52800D01*
X39262Y52794D01*
X39358Y52777D01*
X39450Y52748D01*
X39538Y52709D01*
X39620Y52658D01*
X39696Y52599D01*
X39765Y52530D01*
X39824Y52454D01*
X39875Y52372D01*
X39914Y52284D01*
X39943Y52192D01*
X39960Y52096D01*
X39966Y52000D01*
X39966Y49600D01*
X39960Y49504D01*
X39943Y49408D01*
X39914Y49316D01*
X39875Y49228D01*
X39824Y49146D01*
X39765Y49070D01*
X39696Y49001D01*
X39620Y48942D01*
X39538Y48891D01*
X39450Y48852D01*
X39358Y48823D01*
X39262Y48806D01*
X39166Y48800D01*
X39066Y48800D01*
X38970Y48806D01*
X38874Y48823D01*
X38782Y48852D01*
X38694Y48891D01*
X38612Y48942D01*
X38536Y49001D01*
X38467Y49070D01*
X38408Y49146D01*
X38357Y49228D01*
X38318Y49316D01*
X38289Y49408D01*
X38272Y49504D01*
X38266Y49600D01*
X38266Y52000D01*
X38272Y52096D01*
X38289Y52192D01*
X38318Y52284D01*
X38357Y52372D01*
X38408Y52454D01*
X38467Y52530D01*
X38536Y52599D01*
X38612Y52658D01*
X38694Y52709D01*
X38782Y52748D01*
X38874Y52777D01*
X38970Y52794D01*
X39066Y52800D01*
G37*
G36*
X53290Y52800D02*
X53390Y52800D01*
X53486Y52794D01*
X53582Y52777D01*
X53674Y52748D01*
X53762Y52709D01*
X53844Y52658D01*
X53920Y52599D01*
X53989Y52530D01*
X54048Y52454D01*
X54099Y52372D01*
X54138Y52284D01*
X54167Y52192D01*
X54184Y52096D01*
X54190Y52000D01*
X54190Y49600D01*
X54184Y49504D01*
X54167Y49408D01*
X54138Y49316D01*
X54099Y49228D01*
X54048Y49146D01*
X53989Y49070D01*
X53920Y49001D01*
X53844Y48942D01*
X53762Y48891D01*
X53674Y48852D01*
X53582Y48823D01*
X53486Y48806D01*
X53390Y48800D01*
X53290Y48800D01*
X53194Y48806D01*
X53098Y48823D01*
X53006Y48852D01*
X52918Y48891D01*
X52836Y48942D01*
X52760Y49001D01*
X52691Y49070D01*
X52632Y49146D01*
X52581Y49228D01*
X52542Y49316D01*
X52513Y49408D01*
X52496Y49504D01*
X52490Y49600D01*
X52490Y52000D01*
X52496Y52096D01*
X52513Y52192D01*
X52542Y52284D01*
X52581Y52372D01*
X52632Y52454D01*
X52691Y52530D01*
X52760Y52599D01*
X52836Y52658D01*
X52918Y52709D01*
X53006Y52748D01*
X53098Y52777D01*
X53194Y52794D01*
X53290Y52800D01*
G37*
G36*
X60910Y52800D02*
X61010Y52800D01*
X61106Y52794D01*
X61202Y52777D01*
X61294Y52748D01*
X61382Y52709D01*
X61464Y52658D01*
X61540Y52599D01*
X61609Y52530D01*
X61668Y52454D01*
X61719Y52372D01*
X61758Y52284D01*
X61787Y52192D01*
X61804Y52096D01*
X61810Y52000D01*
X61810Y49600D01*
X61804Y49504D01*
X61787Y49408D01*
X61758Y49316D01*
X61719Y49228D01*
X61668Y49146D01*
X61609Y49070D01*
X61540Y49001D01*
X61464Y48942D01*
X61382Y48891D01*
X61294Y48852D01*
X61202Y48823D01*
X61106Y48806D01*
X61010Y48800D01*
X60910Y48800D01*
X60814Y48806D01*
X60718Y48823D01*
X60626Y48852D01*
X60538Y48891D01*
X60456Y48942D01*
X60380Y49001D01*
X60311Y49070D01*
X60252Y49146D01*
X60201Y49228D01*
X60162Y49316D01*
X60133Y49408D01*
X60116Y49504D01*
X60110Y49600D01*
X60110Y52000D01*
X60116Y52096D01*
X60133Y52192D01*
X60162Y52284D01*
X60201Y52372D01*
X60252Y52454D01*
X60311Y52530D01*
X60380Y52599D01*
X60456Y52658D01*
X60538Y52709D01*
X60626Y52748D01*
X60718Y52777D01*
X60814Y52794D01*
X60910Y52800D01*
G37*
G36*
X60990Y4540D02*
X60990Y4540D01*
X61086Y4535D01*
X61180Y4519D01*
X61271Y4493D01*
X61359Y4456D01*
X61443Y4410D01*
X61520Y4355D01*
X61591Y4291D01*
X61655Y4220D01*
X61710Y4142D01*
X61756Y4059D01*
X61793Y3971D01*
X61819Y3879D01*
X61835Y3785D01*
X61840Y3690D01*
X61840Y1390D01*
X61835Y1295D01*
X61819Y1201D01*
X61793Y1109D01*
X61756Y1021D01*
X61710Y938D01*
X61655Y860D01*
X61591Y789D01*
X61520Y725D01*
X61443Y670D01*
X61359Y624D01*
X61271Y587D01*
X61180Y561D01*
X61086Y545D01*
X60990Y540D01*
X60990Y540D01*
X60895Y545D01*
X60801Y561D01*
X60710Y587D01*
X60622Y624D01*
X60538Y670D01*
X60460Y725D01*
X60389Y789D01*
X60326Y860D01*
X60271Y938D01*
X60224Y1021D01*
X60188Y1109D01*
X60162Y1201D01*
X60146Y1295D01*
X60140Y1390D01*
X60140Y3690D01*
X60146Y3785D01*
X60162Y3879D01*
X60188Y3971D01*
X60224Y4059D01*
X60271Y4142D01*
X60326Y4220D01*
X60389Y4291D01*
X60460Y4355D01*
X60538Y4410D01*
X60622Y4456D01*
X60710Y4493D01*
X60801Y4519D01*
X60895Y4535D01*
X60990Y4540D01*
G37*
G36*
X45670Y4540D02*
X45770Y4540D01*
X45866Y4534D01*
X45962Y4517D01*
X46054Y4488D01*
X46142Y4449D01*
X46224Y4398D01*
X46300Y4339D01*
X46369Y4270D01*
X46428Y4194D01*
X46479Y4112D01*
X46518Y4024D01*
X46547Y3932D01*
X46564Y3836D01*
X46570Y3740D01*
X46570Y1340D01*
X46564Y1244D01*
X46547Y1148D01*
X46518Y1056D01*
X46479Y968D01*
X46428Y886D01*
X46369Y810D01*
X46300Y741D01*
X46224Y682D01*
X46142Y631D01*
X46054Y592D01*
X45962Y563D01*
X45866Y546D01*
X45770Y540D01*
X45670Y540D01*
X45574Y546D01*
X45478Y563D01*
X45386Y592D01*
X45298Y631D01*
X45216Y682D01*
X45140Y741D01*
X45071Y810D01*
X45012Y886D01*
X44961Y968D01*
X44922Y1056D01*
X44893Y1148D01*
X44876Y1244D01*
X44870Y1340D01*
X44870Y3740D01*
X44876Y3836D01*
X44893Y3932D01*
X44922Y4024D01*
X44961Y4112D01*
X45012Y4194D01*
X45071Y4270D01*
X45140Y4339D01*
X45216Y4398D01*
X45298Y4449D01*
X45386Y4488D01*
X45478Y4517D01*
X45574Y4534D01*
X45670Y4540D01*
G37*
G36*
X18746Y52800D02*
X18846Y52800D01*
X18942Y52794D01*
X19038Y52777D01*
X19130Y52748D01*
X19218Y52709D01*
X19300Y52658D01*
X19376Y52599D01*
X19445Y52530D01*
X19504Y52454D01*
X19555Y52372D01*
X19594Y52284D01*
X19623Y52192D01*
X19640Y52096D01*
X19646Y52000D01*
X19646Y49600D01*
X19640Y49504D01*
X19623Y49408D01*
X19594Y49316D01*
X19555Y49228D01*
X19504Y49146D01*
X19445Y49070D01*
X19376Y49001D01*
X19300Y48942D01*
X19218Y48891D01*
X19130Y48852D01*
X19038Y48823D01*
X18942Y48806D01*
X18846Y48800D01*
X18746Y48800D01*
X18650Y48806D01*
X18554Y48823D01*
X18462Y48852D01*
X18374Y48891D01*
X18292Y48942D01*
X18216Y49001D01*
X18147Y49070D01*
X18088Y49146D01*
X18037Y49228D01*
X17998Y49316D01*
X17969Y49408D01*
X17952Y49504D01*
X17946Y49600D01*
X17946Y52000D01*
X17952Y52096D01*
X17969Y52192D01*
X17998Y52284D01*
X18037Y52372D01*
X18088Y52454D01*
X18147Y52530D01*
X18216Y52599D01*
X18292Y52658D01*
X18374Y52709D01*
X18462Y52748D01*
X18554Y52777D01*
X18650Y52794D01*
X18746Y52800D01*
G37*
G36*
X23826Y52800D02*
X23926Y52800D01*
X24022Y52794D01*
X24118Y52777D01*
X24210Y52748D01*
X24298Y52709D01*
X24380Y52658D01*
X24456Y52599D01*
X24525Y52530D01*
X24584Y52454D01*
X24635Y52372D01*
X24674Y52284D01*
X24703Y52192D01*
X24720Y52096D01*
X24726Y52000D01*
X24726Y49600D01*
X24720Y49504D01*
X24703Y49408D01*
X24674Y49316D01*
X24635Y49228D01*
X24584Y49146D01*
X24525Y49070D01*
X24456Y49001D01*
X24380Y48942D01*
X24298Y48891D01*
X24210Y48852D01*
X24118Y48823D01*
X24022Y48806D01*
X23926Y48800D01*
X23826Y48800D01*
X23730Y48806D01*
X23634Y48823D01*
X23542Y48852D01*
X23454Y48891D01*
X23372Y48942D01*
X23296Y49001D01*
X23227Y49070D01*
X23168Y49146D01*
X23117Y49228D01*
X23078Y49316D01*
X23049Y49408D01*
X23032Y49504D01*
X23026Y49600D01*
X23026Y52000D01*
X23032Y52096D01*
X23049Y52192D01*
X23078Y52284D01*
X23117Y52372D01*
X23168Y52454D01*
X23227Y52530D01*
X23296Y52599D01*
X23372Y52658D01*
X23454Y52709D01*
X23542Y52748D01*
X23634Y52777D01*
X23730Y52794D01*
X23826Y52800D01*
G37*
G36*
X32970Y4540D02*
X33070Y4540D01*
X33166Y4534D01*
X33262Y4517D01*
X33354Y4488D01*
X33442Y4449D01*
X33524Y4398D01*
X33600Y4339D01*
X33669Y4270D01*
X33728Y4194D01*
X33779Y4112D01*
X33818Y4024D01*
X33847Y3932D01*
X33864Y3836D01*
X33870Y3740D01*
X33870Y1340D01*
X33864Y1244D01*
X33847Y1148D01*
X33818Y1056D01*
X33779Y968D01*
X33728Y886D01*
X33669Y810D01*
X33600Y741D01*
X33524Y682D01*
X33442Y631D01*
X33354Y592D01*
X33262Y563D01*
X33166Y546D01*
X33070Y540D01*
X32970Y540D01*
X32874Y546D01*
X32778Y563D01*
X32686Y592D01*
X32598Y631D01*
X32516Y682D01*
X32440Y741D01*
X32371Y810D01*
X32312Y886D01*
X32261Y968D01*
X32222Y1056D01*
X32193Y1148D01*
X32176Y1244D01*
X32170Y1340D01*
X32170Y3740D01*
X32176Y3836D01*
X32193Y3932D01*
X32222Y4024D01*
X32261Y4112D01*
X32312Y4194D01*
X32371Y4270D01*
X32440Y4339D01*
X32516Y4398D01*
X32598Y4449D01*
X32686Y4488D01*
X32778Y4517D01*
X32874Y4534D01*
X32970Y4540D01*
G37*
G36*
X21286Y52800D02*
X21386Y52800D01*
X21482Y52794D01*
X21578Y52777D01*
X21670Y52748D01*
X21758Y52709D01*
X21840Y52658D01*
X21916Y52599D01*
X21985Y52530D01*
X22044Y52454D01*
X22095Y52372D01*
X22134Y52284D01*
X22163Y52192D01*
X22180Y52096D01*
X22186Y52000D01*
X22186Y49600D01*
X22180Y49504D01*
X22163Y49408D01*
X22134Y49316D01*
X22095Y49228D01*
X22044Y49146D01*
X21985Y49070D01*
X21916Y49001D01*
X21840Y48942D01*
X21758Y48891D01*
X21670Y48852D01*
X21578Y48823D01*
X21482Y48806D01*
X21386Y48800D01*
X21286Y48800D01*
X21190Y48806D01*
X21094Y48823D01*
X21002Y48852D01*
X20914Y48891D01*
X20832Y48942D01*
X20756Y49001D01*
X20687Y49070D01*
X20628Y49146D01*
X20577Y49228D01*
X20538Y49316D01*
X20509Y49408D01*
X20492Y49504D01*
X20486Y49600D01*
X20486Y52000D01*
X20492Y52096D01*
X20509Y52192D01*
X20538Y52284D01*
X20577Y52372D01*
X20628Y52454D01*
X20687Y52530D01*
X20756Y52599D01*
X20832Y52658D01*
X20914Y52709D01*
X21002Y52748D01*
X21094Y52777D01*
X21190Y52794D01*
X21286Y52800D01*
G37*
G36*
X55880Y4540D02*
X55880Y4540D01*
X55975Y4535D01*
X56069Y4519D01*
X56161Y4493D01*
X56249Y4456D01*
X56332Y4410D01*
X56410Y4355D01*
X56481Y4291D01*
X56545Y4220D01*
X56600Y4142D01*
X56646Y4059D01*
X56683Y3971D01*
X56709Y3879D01*
X56725Y3785D01*
X56730Y3690D01*
X56730Y1390D01*
X56725Y1295D01*
X56709Y1201D01*
X56683Y1109D01*
X56646Y1021D01*
X56600Y938D01*
X56545Y860D01*
X56481Y789D01*
X56410Y725D01*
X56332Y670D01*
X56249Y624D01*
X56161Y587D01*
X56069Y561D01*
X55975Y545D01*
X55880Y540D01*
X55880Y540D01*
X55785Y545D01*
X55691Y561D01*
X55599Y587D01*
X55511Y624D01*
X55428Y670D01*
X55350Y725D01*
X55279Y789D01*
X55215Y860D01*
X55160Y938D01*
X55114Y1021D01*
X55077Y1109D01*
X55051Y1201D01*
X55035Y1295D01*
X55030Y1390D01*
X55030Y3690D01*
X55035Y3785D01*
X55051Y3879D01*
X55077Y3971D01*
X55114Y4059D01*
X55160Y4142D01*
X55215Y4220D01*
X55279Y4291D01*
X55350Y4355D01*
X55428Y4410D01*
X55511Y4456D01*
X55599Y4493D01*
X55691Y4519D01*
X55785Y4535D01*
X55880Y4540D01*
G37*
G36*
X35510Y4540D02*
X35610Y4540D01*
X35706Y4534D01*
X35802Y4517D01*
X35894Y4488D01*
X35982Y4449D01*
X36064Y4398D01*
X36140Y4339D01*
X36209Y4270D01*
X36268Y4194D01*
X36319Y4112D01*
X36358Y4024D01*
X36387Y3932D01*
X36404Y3836D01*
X36410Y3740D01*
X36410Y1340D01*
X36404Y1244D01*
X36387Y1148D01*
X36358Y1056D01*
X36319Y968D01*
X36268Y886D01*
X36209Y810D01*
X36140Y741D01*
X36064Y682D01*
X35982Y631D01*
X35894Y592D01*
X35802Y563D01*
X35706Y546D01*
X35610Y540D01*
X35510Y540D01*
X35414Y546D01*
X35318Y563D01*
X35226Y592D01*
X35138Y631D01*
X35056Y682D01*
X34980Y741D01*
X34911Y810D01*
X34852Y886D01*
X34801Y968D01*
X34762Y1056D01*
X34733Y1148D01*
X34716Y1244D01*
X34710Y1340D01*
X34710Y3740D01*
X34716Y3836D01*
X34733Y3932D01*
X34762Y4024D01*
X34801Y4112D01*
X34852Y4194D01*
X34911Y4270D01*
X34980Y4339D01*
X35056Y4398D01*
X35138Y4449D01*
X35226Y4488D01*
X35318Y4517D01*
X35414Y4534D01*
X35510Y4540D01*
G37*
G36*
X27890Y4540D02*
X27990Y4540D01*
X28086Y4534D01*
X28182Y4517D01*
X28274Y4488D01*
X28362Y4449D01*
X28444Y4398D01*
X28520Y4339D01*
X28589Y4270D01*
X28648Y4194D01*
X28699Y4112D01*
X28738Y4024D01*
X28767Y3932D01*
X28784Y3836D01*
X28790Y3740D01*
X28790Y1340D01*
X28784Y1244D01*
X28767Y1148D01*
X28738Y1056D01*
X28699Y968D01*
X28648Y886D01*
X28589Y810D01*
X28520Y741D01*
X28444Y682D01*
X28362Y631D01*
X28274Y592D01*
X28182Y563D01*
X28086Y546D01*
X27990Y540D01*
X27890Y540D01*
X27794Y546D01*
X27698Y563D01*
X27606Y592D01*
X27518Y631D01*
X27436Y682D01*
X27360Y741D01*
X27291Y810D01*
X27232Y886D01*
X27181Y968D01*
X27142Y1056D01*
X27113Y1148D01*
X27096Y1244D01*
X27090Y1340D01*
X27090Y3740D01*
X27096Y3836D01*
X27113Y3932D01*
X27142Y4024D01*
X27181Y4112D01*
X27232Y4194D01*
X27291Y4270D01*
X27360Y4339D01*
X27436Y4398D01*
X27518Y4449D01*
X27606Y4488D01*
X27698Y4517D01*
X27794Y4534D01*
X27890Y4540D01*
G37*
G36*
X63450Y52800D02*
X63550Y52800D01*
X63646Y52794D01*
X63742Y52777D01*
X63834Y52748D01*
X63922Y52709D01*
X64004Y52658D01*
X64080Y52599D01*
X64149Y52530D01*
X64208Y52454D01*
X64259Y52372D01*
X64298Y52284D01*
X64327Y52192D01*
X64344Y52096D01*
X64350Y52000D01*
X64350Y49600D01*
X64344Y49504D01*
X64327Y49408D01*
X64298Y49316D01*
X64259Y49228D01*
X64208Y49146D01*
X64149Y49070D01*
X64080Y49001D01*
X64004Y48942D01*
X63922Y48891D01*
X63834Y48852D01*
X63742Y48823D01*
X63646Y48806D01*
X63550Y48800D01*
X63450Y48800D01*
X63354Y48806D01*
X63258Y48823D01*
X63166Y48852D01*
X63078Y48891D01*
X62996Y48942D01*
X62920Y49001D01*
X62851Y49070D01*
X62792Y49146D01*
X62741Y49228D01*
X62702Y49316D01*
X62673Y49408D01*
X62656Y49504D01*
X62650Y49600D01*
X62650Y52000D01*
X62656Y52096D01*
X62673Y52192D01*
X62702Y52284D01*
X62741Y52372D01*
X62792Y52454D01*
X62851Y52530D01*
X62920Y52599D01*
X62996Y52658D01*
X63078Y52709D01*
X63166Y52748D01*
X63258Y52777D01*
X63354Y52794D01*
X63450Y52800D01*
G37*
G36*
X41606Y52800D02*
X41706Y52800D01*
X41802Y52794D01*
X41898Y52777D01*
X41990Y52748D01*
X42078Y52709D01*
X42160Y52658D01*
X42236Y52599D01*
X42305Y52530D01*
X42364Y52454D01*
X42415Y52372D01*
X42454Y52284D01*
X42483Y52192D01*
X42500Y52096D01*
X42506Y52000D01*
X42506Y49600D01*
X42500Y49504D01*
X42483Y49408D01*
X42454Y49316D01*
X42415Y49228D01*
X42364Y49146D01*
X42305Y49070D01*
X42236Y49001D01*
X42160Y48942D01*
X42078Y48891D01*
X41990Y48852D01*
X41898Y48823D01*
X41802Y48806D01*
X41706Y48800D01*
X41606Y48800D01*
X41510Y48806D01*
X41414Y48823D01*
X41322Y48852D01*
X41234Y48891D01*
X41152Y48942D01*
X41076Y49001D01*
X41007Y49070D01*
X40948Y49146D01*
X40897Y49228D01*
X40858Y49316D01*
X40829Y49408D01*
X40812Y49504D01*
X40806Y49600D01*
X40806Y52000D01*
X40812Y52096D01*
X40829Y52192D01*
X40858Y52284D01*
X40897Y52372D01*
X40948Y52454D01*
X41007Y52530D01*
X41076Y52599D01*
X41152Y52658D01*
X41234Y52709D01*
X41322Y52748D01*
X41414Y52777D01*
X41510Y52794D01*
X41606Y52800D01*
G37*
G36*
X28906Y52800D02*
X29006Y52800D01*
X29102Y52794D01*
X29198Y52777D01*
X29290Y52748D01*
X29378Y52709D01*
X29460Y52658D01*
X29536Y52599D01*
X29605Y52530D01*
X29664Y52454D01*
X29715Y52372D01*
X29754Y52284D01*
X29783Y52192D01*
X29800Y52096D01*
X29806Y52000D01*
X29806Y49600D01*
X29800Y49504D01*
X29783Y49408D01*
X29754Y49316D01*
X29715Y49228D01*
X29664Y49146D01*
X29605Y49070D01*
X29536Y49001D01*
X29460Y48942D01*
X29378Y48891D01*
X29290Y48852D01*
X29198Y48823D01*
X29102Y48806D01*
X29006Y48800D01*
X28906Y48800D01*
X28810Y48806D01*
X28714Y48823D01*
X28622Y48852D01*
X28534Y48891D01*
X28452Y48942D01*
X28376Y49001D01*
X28307Y49070D01*
X28248Y49146D01*
X28197Y49228D01*
X28158Y49316D01*
X28129Y49408D01*
X28112Y49504D01*
X28106Y49600D01*
X28106Y52000D01*
X28112Y52096D01*
X28129Y52192D01*
X28158Y52284D01*
X28197Y52372D01*
X28248Y52454D01*
X28307Y52530D01*
X28376Y52599D01*
X28452Y52658D01*
X28534Y52709D01*
X28622Y52748D01*
X28714Y52777D01*
X28810Y52794D01*
X28906Y52800D01*
G37*
G36*
X58420Y4540D02*
X58420Y4540D01*
X58515Y4535D01*
X58609Y4519D01*
X58701Y4493D01*
X58789Y4456D01*
X58872Y4410D01*
X58950Y4355D01*
X59021Y4291D01*
X59085Y4220D01*
X59140Y4142D01*
X59186Y4059D01*
X59223Y3971D01*
X59249Y3879D01*
X59265Y3785D01*
X59270Y3690D01*
X59270Y1390D01*
X59265Y1295D01*
X59249Y1201D01*
X59223Y1109D01*
X59186Y1021D01*
X59140Y938D01*
X59085Y860D01*
X59021Y789D01*
X58950Y725D01*
X58872Y670D01*
X58789Y624D01*
X58701Y587D01*
X58609Y561D01*
X58515Y545D01*
X58420Y540D01*
X58420Y540D01*
X58325Y545D01*
X58231Y561D01*
X58139Y587D01*
X58051Y624D01*
X57968Y670D01*
X57890Y725D01*
X57819Y789D01*
X57755Y860D01*
X57700Y938D01*
X57654Y1021D01*
X57617Y1109D01*
X57591Y1201D01*
X57575Y1295D01*
X57570Y1390D01*
X57570Y3690D01*
X57575Y3785D01*
X57591Y3879D01*
X57617Y3971D01*
X57654Y4059D01*
X57700Y4142D01*
X57755Y4220D01*
X57819Y4291D01*
X57890Y4355D01*
X57968Y4410D01*
X58051Y4456D01*
X58139Y4493D01*
X58231Y4519D01*
X58325Y4535D01*
X58420Y4540D01*
G37*
G36*
X43130Y4540D02*
X43230Y4540D01*
X43326Y4534D01*
X43422Y4517D01*
X43514Y4488D01*
X43602Y4449D01*
X43684Y4398D01*
X43760Y4339D01*
X43829Y4270D01*
X43888Y4194D01*
X43939Y4112D01*
X43978Y4024D01*
X44007Y3932D01*
X44024Y3836D01*
X44030Y3740D01*
X44030Y1340D01*
X44024Y1244D01*
X44007Y1148D01*
X43978Y1056D01*
X43939Y968D01*
X43888Y886D01*
X43829Y810D01*
X43760Y741D01*
X43684Y682D01*
X43602Y631D01*
X43514Y592D01*
X43422Y563D01*
X43326Y546D01*
X43230Y540D01*
X43130Y540D01*
X43034Y546D01*
X42938Y563D01*
X42846Y592D01*
X42758Y631D01*
X42676Y682D01*
X42600Y741D01*
X42531Y810D01*
X42472Y886D01*
X42421Y968D01*
X42382Y1056D01*
X42353Y1148D01*
X42336Y1244D01*
X42330Y1340D01*
X42330Y3740D01*
X42336Y3836D01*
X42353Y3932D01*
X42382Y4024D01*
X42421Y4112D01*
X42472Y4194D01*
X42531Y4270D01*
X42600Y4339D01*
X42676Y4398D01*
X42758Y4449D01*
X42846Y4488D01*
X42938Y4517D01*
X43034Y4534D01*
X43130Y4540D01*
G37*
G36*
X33986Y52800D02*
X34086Y52800D01*
X34182Y52794D01*
X34278Y52777D01*
X34370Y52748D01*
X34458Y52709D01*
X34540Y52658D01*
X34616Y52599D01*
X34685Y52530D01*
X34744Y52454D01*
X34795Y52372D01*
X34834Y52284D01*
X34863Y52192D01*
X34880Y52096D01*
X34886Y52000D01*
X34886Y49600D01*
X34880Y49504D01*
X34863Y49408D01*
X34834Y49316D01*
X34795Y49228D01*
X34744Y49146D01*
X34685Y49070D01*
X34616Y49001D01*
X34540Y48942D01*
X34458Y48891D01*
X34370Y48852D01*
X34278Y48823D01*
X34182Y48806D01*
X34086Y48800D01*
X33986Y48800D01*
X33890Y48806D01*
X33794Y48823D01*
X33702Y48852D01*
X33614Y48891D01*
X33532Y48942D01*
X33456Y49001D01*
X33387Y49070D01*
X33328Y49146D01*
X33277Y49228D01*
X33238Y49316D01*
X33209Y49408D01*
X33192Y49504D01*
X33186Y49600D01*
X33186Y52000D01*
X33192Y52096D01*
X33209Y52192D01*
X33238Y52284D01*
X33277Y52372D01*
X33328Y52454D01*
X33387Y52530D01*
X33456Y52599D01*
X33532Y52658D01*
X33614Y52709D01*
X33702Y52748D01*
X33794Y52777D01*
X33890Y52794D01*
X33986Y52800D01*
G37*
G36*
X48210Y52800D02*
X48310Y52800D01*
X48406Y52794D01*
X48502Y52777D01*
X48594Y52748D01*
X48682Y52709D01*
X48764Y52658D01*
X48840Y52599D01*
X48909Y52530D01*
X48968Y52454D01*
X49019Y52372D01*
X49058Y52284D01*
X49087Y52192D01*
X49104Y52096D01*
X49110Y52000D01*
X49110Y49600D01*
X49104Y49504D01*
X49087Y49408D01*
X49058Y49316D01*
X49019Y49228D01*
X48968Y49146D01*
X48909Y49070D01*
X48840Y49001D01*
X48764Y48942D01*
X48682Y48891D01*
X48594Y48852D01*
X48502Y48823D01*
X48406Y48806D01*
X48310Y48800D01*
X48210Y48800D01*
X48114Y48806D01*
X48018Y48823D01*
X47926Y48852D01*
X47838Y48891D01*
X47756Y48942D01*
X47680Y49001D01*
X47611Y49070D01*
X47552Y49146D01*
X47501Y49228D01*
X47462Y49316D01*
X47433Y49408D01*
X47416Y49504D01*
X47410Y49600D01*
X47410Y52000D01*
X47416Y52096D01*
X47433Y52192D01*
X47462Y52284D01*
X47501Y52372D01*
X47552Y52454D01*
X47611Y52530D01*
X47680Y52599D01*
X47756Y52658D01*
X47838Y52709D01*
X47926Y52748D01*
X48018Y52777D01*
X48114Y52794D01*
X48210Y52800D01*
G37*
G36*
X63500Y4540D02*
X63500Y4540D01*
X63595Y4535D01*
X63689Y4519D01*
X63781Y4493D01*
X63869Y4456D01*
X63952Y4410D01*
X64030Y4355D01*
X64101Y4291D01*
X64165Y4220D01*
X64220Y4142D01*
X64266Y4059D01*
X64303Y3971D01*
X64329Y3879D01*
X64345Y3785D01*
X64350Y3690D01*
X64350Y1390D01*
X64345Y1295D01*
X64329Y1201D01*
X64303Y1109D01*
X64266Y1021D01*
X64220Y938D01*
X64165Y860D01*
X64101Y789D01*
X64030Y725D01*
X63952Y670D01*
X63869Y624D01*
X63781Y587D01*
X63689Y561D01*
X63595Y545D01*
X63500Y540D01*
X63500Y540D01*
X63405Y545D01*
X63311Y561D01*
X63219Y587D01*
X63131Y624D01*
X63048Y670D01*
X62970Y725D01*
X62899Y789D01*
X62835Y860D01*
X62780Y938D01*
X62734Y1021D01*
X62697Y1109D01*
X62671Y1201D01*
X62655Y1295D01*
X62650Y1390D01*
X62650Y3690D01*
X62655Y3785D01*
X62671Y3879D01*
X62697Y3971D01*
X62734Y4059D01*
X62780Y4142D01*
X62835Y4220D01*
X62899Y4291D01*
X62970Y4355D01*
X63048Y4410D01*
X63131Y4456D01*
X63219Y4493D01*
X63311Y4519D01*
X63405Y4535D01*
X63500Y4540D01*
G37*
G36*
X53340Y4540D02*
X53340Y4540D01*
X53435Y4535D01*
X53529Y4519D01*
X53621Y4493D01*
X53709Y4456D01*
X53792Y4410D01*
X53870Y4355D01*
X53941Y4291D01*
X54005Y4220D01*
X54060Y4142D01*
X54106Y4059D01*
X54143Y3971D01*
X54169Y3879D01*
X54185Y3785D01*
X54190Y3690D01*
X54190Y1390D01*
X54185Y1295D01*
X54169Y1201D01*
X54143Y1109D01*
X54106Y1021D01*
X54060Y938D01*
X54005Y860D01*
X53941Y789D01*
X53870Y725D01*
X53792Y670D01*
X53709Y624D01*
X53621Y587D01*
X53529Y561D01*
X53435Y545D01*
X53340Y540D01*
X53340Y540D01*
X53245Y545D01*
X53151Y561D01*
X53059Y587D01*
X52971Y624D01*
X52888Y670D01*
X52810Y725D01*
X52739Y789D01*
X52675Y860D01*
X52620Y938D01*
X52574Y1021D01*
X52537Y1109D01*
X52511Y1201D01*
X52495Y1295D01*
X52490Y1390D01*
X52490Y3690D01*
X52495Y3785D01*
X52511Y3879D01*
X52537Y3971D01*
X52574Y4059D01*
X52620Y4142D01*
X52675Y4220D01*
X52739Y4291D01*
X52810Y4355D01*
X52888Y4410D01*
X52971Y4456D01*
X53059Y4493D01*
X53151Y4519D01*
X53245Y4535D01*
X53340Y4540D01*
G37*
G36*
X40590Y4540D02*
X40690Y4540D01*
X40786Y4534D01*
X40882Y4517D01*
X40974Y4488D01*
X41062Y4449D01*
X41144Y4398D01*
X41220Y4339D01*
X41289Y4270D01*
X41348Y4194D01*
X41399Y4112D01*
X41438Y4024D01*
X41467Y3932D01*
X41484Y3836D01*
X41490Y3740D01*
X41490Y1340D01*
X41484Y1244D01*
X41467Y1148D01*
X41438Y1056D01*
X41399Y968D01*
X41348Y886D01*
X41289Y810D01*
X41220Y741D01*
X41144Y682D01*
X41062Y631D01*
X40974Y592D01*
X40882Y563D01*
X40786Y546D01*
X40690Y540D01*
X40590Y540D01*
X40494Y546D01*
X40398Y563D01*
X40306Y592D01*
X40218Y631D01*
X40136Y682D01*
X40060Y741D01*
X39991Y810D01*
X39932Y886D01*
X39881Y968D01*
X39842Y1056D01*
X39813Y1148D01*
X39796Y1244D01*
X39790Y1340D01*
X39790Y3740D01*
X39796Y3836D01*
X39813Y3932D01*
X39842Y4024D01*
X39881Y4112D01*
X39932Y4194D01*
X39991Y4270D01*
X40060Y4339D01*
X40136Y4398D01*
X40218Y4449D01*
X40306Y4488D01*
X40398Y4517D01*
X40494Y4534D01*
X40590Y4540D01*
G37*
G36*
X30430Y4540D02*
X30530Y4540D01*
X30626Y4534D01*
X30722Y4517D01*
X30814Y4488D01*
X30902Y4449D01*
X30984Y4398D01*
X31060Y4339D01*
X31129Y4270D01*
X31188Y4194D01*
X31239Y4112D01*
X31278Y4024D01*
X31307Y3932D01*
X31324Y3836D01*
X31330Y3740D01*
X31330Y1340D01*
X31324Y1244D01*
X31307Y1148D01*
X31278Y1056D01*
X31239Y968D01*
X31188Y886D01*
X31129Y810D01*
X31060Y741D01*
X30984Y682D01*
X30902Y631D01*
X30814Y592D01*
X30722Y563D01*
X30626Y546D01*
X30530Y540D01*
X30430Y540D01*
X30334Y546D01*
X30238Y563D01*
X30146Y592D01*
X30058Y631D01*
X29976Y682D01*
X29900Y741D01*
X29831Y810D01*
X29772Y886D01*
X29721Y968D01*
X29682Y1056D01*
X29653Y1148D01*
X29636Y1244D01*
X29630Y1340D01*
X29630Y3740D01*
X29636Y3836D01*
X29653Y3932D01*
X29682Y4024D01*
X29721Y4112D01*
X29772Y4194D01*
X29831Y4270D01*
X29900Y4339D01*
X29976Y4398D01*
X30058Y4449D01*
X30146Y4488D01*
X30238Y4517D01*
X30334Y4534D01*
X30430Y4540D01*
G37*
G36*
X50800Y4540D02*
X50800Y4540D01*
X50895Y4535D01*
X50989Y4519D01*
X51081Y4493D01*
X51169Y4456D01*
X51252Y4410D01*
X51330Y4355D01*
X51401Y4291D01*
X51465Y4220D01*
X51520Y4142D01*
X51566Y4059D01*
X51603Y3971D01*
X51629Y3879D01*
X51645Y3785D01*
X51650Y3690D01*
X51650Y1390D01*
X51645Y1295D01*
X51629Y1201D01*
X51603Y1109D01*
X51566Y1021D01*
X51520Y938D01*
X51465Y860D01*
X51401Y789D01*
X51330Y725D01*
X51252Y670D01*
X51169Y624D01*
X51081Y587D01*
X50989Y561D01*
X50895Y545D01*
X50800Y540D01*
X50800Y540D01*
X50705Y545D01*
X50611Y561D01*
X50519Y587D01*
X50431Y624D01*
X50348Y670D01*
X50270Y725D01*
X50199Y789D01*
X50135Y860D01*
X50080Y938D01*
X50034Y1021D01*
X49997Y1109D01*
X49971Y1201D01*
X49955Y1295D01*
X49950Y1390D01*
X49950Y3690D01*
X49955Y3785D01*
X49971Y3879D01*
X49997Y3971D01*
X50034Y4059D01*
X50080Y4142D01*
X50135Y4220D01*
X50199Y4291D01*
X50270Y4355D01*
X50348Y4410D01*
X50431Y4456D01*
X50519Y4493D01*
X50611Y4519D01*
X50705Y4535D01*
X50800Y4540D01*
G37*
G36*
X38050Y4540D02*
X38150Y4540D01*
X38246Y4534D01*
X38342Y4517D01*
X38434Y4488D01*
X38522Y4449D01*
X38604Y4398D01*
X38680Y4339D01*
X38749Y4270D01*
X38808Y4194D01*
X38859Y4112D01*
X38898Y4024D01*
X38927Y3932D01*
X38944Y3836D01*
X38950Y3740D01*
X38950Y1340D01*
X38944Y1244D01*
X38927Y1148D01*
X38898Y1056D01*
X38859Y968D01*
X38808Y886D01*
X38749Y810D01*
X38680Y741D01*
X38604Y682D01*
X38522Y631D01*
X38434Y592D01*
X38342Y563D01*
X38246Y546D01*
X38150Y540D01*
X38050Y540D01*
X37954Y546D01*
X37858Y563D01*
X37766Y592D01*
X37678Y631D01*
X37596Y682D01*
X37520Y741D01*
X37451Y810D01*
X37392Y886D01*
X37341Y968D01*
X37302Y1056D01*
X37273Y1148D01*
X37256Y1244D01*
X37250Y1340D01*
X37250Y3740D01*
X37256Y3836D01*
X37273Y3932D01*
X37302Y4024D01*
X37341Y4112D01*
X37392Y4194D01*
X37451Y4270D01*
X37520Y4339D01*
X37596Y4398D01*
X37678Y4449D01*
X37766Y4488D01*
X37858Y4517D01*
X37954Y4534D01*
X38050Y4540D01*
G37*
G36*
X13970Y2590D02*
X13970Y2590D01*
X14020Y2540D01*
X14020Y2540D01*
X13970Y2490D01*
X13970Y2490D01*
X13920Y2540D01*
X13920Y2540D01*
X13970Y2590D01*
G37*
G36*
X66040Y7670D02*
X66040Y7670D01*
X66090Y7620D01*
X66090Y7620D01*
X66040Y7570D01*
X66040Y7570D01*
X65990Y7620D01*
X65990Y7620D01*
X66040Y7670D01*
G37*
G36*
X15240Y50850D02*
X15240Y50850D01*
X15290Y50800D01*
X15290Y50800D01*
X15240Y50750D01*
X15240Y50750D01*
X15190Y50800D01*
X15190Y50800D01*
X15240Y50850D01*
G37*
G36*
X66040Y35610D02*
X66040Y35610D01*
X66090Y35560D01*
X66090Y35560D01*
X66040Y35510D01*
X66040Y35510D01*
X65990Y35560D01*
X65990Y35560D01*
X66040Y35610D01*
G37*
G36*
X39891Y31230D02*
X41390Y31230D01*
X41390Y31230D01*
X41390Y29731D01*
X41390Y29730D01*
X39891Y29730D01*
X39890Y29731D01*
X39890Y31230D01*
X39891Y31230D01*
G37*
G36*
X39891Y28690D02*
X41390Y28690D01*
X41390Y28690D01*
X41390Y27191D01*
X41390Y27190D01*
X39891Y27190D01*
X39890Y27191D01*
X39890Y28690D01*
X39891Y28690D01*
G37*
G36*
X39891Y26150D02*
X41390Y26150D01*
X41390Y26150D01*
X41390Y24651D01*
X41390Y24650D01*
X39891Y24650D01*
X39890Y24651D01*
X39890Y26150D01*
X39891Y26150D01*
G37*
G36*
X50051Y31230D02*
X51550Y31230D01*
X51550Y31230D01*
X51550Y29731D01*
X51550Y29730D01*
X50051Y29730D01*
X50050Y29731D01*
X50050Y31230D01*
X50051Y31230D01*
G37*
G36*
X50051Y28690D02*
X51550Y28690D01*
X51550Y28690D01*
X51550Y27191D01*
X51550Y27190D01*
X50051Y27190D01*
X50050Y27191D01*
X50050Y28690D01*
X50051Y28690D01*
G37*
G36*
X50051Y26150D02*
X51550Y26150D01*
X51550Y26150D01*
X51550Y24651D01*
X51550Y24650D01*
X50051Y24650D01*
X50050Y24651D01*
X50050Y26150D01*
X50051Y26150D01*
G37*
G36*
X60241Y31230D02*
X61740Y31230D01*
X61740Y31230D01*
X61740Y29731D01*
X61740Y29730D01*
X60241Y29730D01*
X60240Y29731D01*
X60240Y31230D01*
X60241Y31230D01*
G37*
G36*
X60241Y28690D02*
X61740Y28690D01*
X61740Y28690D01*
X61740Y27191D01*
X61740Y27190D01*
X60241Y27190D01*
X60240Y27191D01*
X60240Y28690D01*
X60241Y28690D01*
G37*
G36*
X60241Y26150D02*
X61740Y26150D01*
X61740Y26150D01*
X61740Y24651D01*
X61740Y24650D01*
X60241Y24650D01*
X60240Y24651D01*
X60240Y26150D01*
X60241Y26150D01*
G37*
M02*
