G75*
G71*
%OFA0B0*%
%FSLAX23Y23*%
%IPPOS*%
%LPD*%
%ADD10C,0.1*%
%ADD11C,0.111*%
%ADD12C,0.15*%
%ADD13C,0.2*%
%ADD14C,0.167*%
%ADD15C,0.25*%
%ADD16C,0.47*%
%ADD17C,0.353*%
%ADD18C,0.235*%
%LPD*%D10*
X0Y0D02*
X0Y100D01*
X0Y200D01*
X0Y300D01*
X0Y400D01*
X0Y499D01*
X0Y599D01*
X0Y699D01*
X0Y799D01*
X0Y899D01*
X0Y999D01*
X0Y1099D01*
X0Y1199D01*
X0Y1299D01*
X0Y1398D01*
X0Y1498D01*
X0Y1598D01*
X0Y1698D01*
X0Y1798D01*
X0Y1898D01*
X0Y1998D01*
X0Y2098D01*
X0Y2198D01*
X0Y2297D01*
X0Y2397D01*
X0Y2497D01*
X0Y2597D01*
X0Y2697D01*
X0Y2797D01*
X0Y2897D01*
X0Y2997D01*
X0Y3097D01*
X0Y3196D01*
X0Y3296D01*
X0Y3396D01*
X0Y3496D01*
X0Y3596D01*
X0Y3696D01*
X0Y3796D01*
X0Y3896D01*
X0Y3995D01*
X0Y4095D01*
X0Y4195D01*
X0Y4295D01*
X0Y4395D01*
X0Y4495D01*
X0Y4595D01*
X0Y4695D01*
X0Y4795D01*
X0Y4894D01*
X0Y4994D01*
X0Y5094D01*
X0Y5194D01*
X0Y5294D01*
X0Y5394D01*
X0Y5494D01*
X0Y5594D01*
X0Y5694D01*
X0Y5793D01*
X0Y5893D01*
X0Y5993D01*
X0Y6093D01*
X0Y6193D01*
X0Y6293D01*
X0Y6393D01*
X0Y6493D01*
X0Y6593D01*
X0Y6692D01*
X0Y6792D01*
X0Y6892D01*
X0Y6992D01*
X0Y7092D01*
X0Y7192D01*
X0Y7292D01*
X0Y7392D01*
X0Y7492D01*
X0Y7591D01*
X0Y7691D01*
X0Y7791D01*
X0Y7891D01*
X0Y7991D01*
X0Y8091D01*
X0Y8191D01*
X0Y8291D01*
X0Y8391D01*
X0Y8490D01*
X0Y8590D01*
X0Y8690D01*
X0Y8790D01*
X0Y8890D01*
X0Y8990D01*
X0Y9090D01*
X0Y9190D01*
X0Y9290D01*
X0Y9389D01*
X0Y9489D01*
X0Y9589D01*
X0Y9689D01*
X0Y9789D01*
X0Y9889D01*
X0Y9989D01*
X0Y10089D01*
X0Y10188D01*
X0Y10288D01*
X0Y10388D01*
X0Y10488D01*
X0Y10588D01*
X0Y10688D01*
X0Y10788D01*
X0Y10888D01*
X0Y10988D01*
X0Y11087D01*
X0Y11187D01*
X0Y11287D01*
X0Y11387D01*
X0Y11487D01*
X0Y11587D01*
X0Y11687D01*
X0Y11787D01*
X0Y11887D01*
X0Y11986D01*
X0Y12086D01*
X0Y12186D01*
X0Y12286D01*
X0Y12386D01*
X0Y12486D01*
X0Y12586D01*
X0Y12686D01*
X0Y12786D01*
X0Y12885D01*
X0Y12985D01*
X0Y13085D01*
X0Y13185D01*
X0Y13285D01*
X0Y13385D01*
X0Y13485D01*
X0Y13585D01*
X0Y13685D01*
X0Y13784D01*
X0Y13884D01*
X0Y13984D01*
X0Y14084D01*
X0Y14184D01*
X0Y14284D01*
X0Y14384D01*
X0Y14484D01*
X0Y14584D01*
X0Y14683D01*
X0Y14783D01*
X0Y14883D01*
X0Y14983D01*
X0Y15083D01*
X0Y15183D01*
X0Y15283D01*
X0Y15383D01*
X0Y15483D01*
X0Y15582D01*
X0Y15682D01*
X0Y15782D01*
X0Y15882D01*
X0Y15982D01*
X0Y16082D01*
X0Y16182D01*
X0Y16282D01*
X0Y16381D01*
X0Y16481D01*
X0Y16581D01*
X0Y16681D01*
X0Y16781D01*
X0Y16881D01*
X0Y16981D01*
X0Y17081D01*
X0Y17181D01*
X0Y17280D01*
X0Y17380D01*
X0Y17480D01*
X0Y17580D01*
X0Y17680D01*
X0Y17780D01*
X0Y17880D01*
X0Y17980D01*
X0Y18080D01*
X0Y18179D01*
X0Y18279D01*
X0Y18379D01*
X0Y18479D01*
X0Y18579D01*
X0Y18679D01*
X0Y18779D01*
X0Y18879D01*
X0Y18979D01*
X0Y19078D01*
X0Y19178D01*
X0Y19278D01*
X0Y19378D01*
X0Y19478D01*
X0Y19578D01*
X0Y19678D01*
X0Y19778D01*
X0Y19878D01*
X0Y19977D01*
X0Y20077D01*
X0Y20177D01*
X0Y20277D01*
X0Y20377D01*
X0Y20477D01*
X0Y20577D01*
X0Y20677D01*
X0Y20777D01*
X0Y20876D01*
X0Y20976D01*
X0Y21076D01*
X0Y21176D01*
X0Y21276D01*
X0Y21376D01*
X0Y21476D01*
X0Y21576D01*
X0Y21676D01*
X0Y21775D01*
X0Y21875D01*
X0Y21975D01*
X0Y22075D01*
X0Y22175D01*
X0Y22275D01*
X0Y22375D01*
X0Y22475D01*
X0Y22575D01*
X0Y22674D01*
X0Y22774D01*
X0Y22874D01*
X0Y22974D01*
X0Y23074D01*
X0Y23174D01*
X0Y23274D01*
X0Y23374D01*
X0Y23473D01*
X0Y23573D01*
X0Y23673D01*
X0Y23773D01*
X0Y23873D01*
X0Y23973D01*
X0Y24073D01*
X0Y24173D01*
X0Y24273D01*
X0Y24372D01*
X0Y24472D01*
X0Y24572D01*
X0Y24672D01*
X0Y24772D01*
X0Y24872D01*
X0Y24972D01*
X0Y25072D01*
X0Y25172D01*
X0Y25271D01*
X0Y25371D01*
X0Y25471D01*
X0Y25571D01*
X0Y25671D01*
X0Y25771D01*
X0Y25871D01*
X0Y25971D01*
X0Y26071D01*
X0Y26170D01*
X0Y26270D01*
X0Y26370D01*
X0Y26470D01*
X0Y26570D01*
X0Y26670D01*
X0Y26770D01*
X0Y26870D01*
X0Y26970D01*
X0Y27069D01*
X0Y27169D01*
X0Y27269D01*
X0Y27369D01*
X0Y27469D01*
X0Y27569D01*
X0Y27669D01*
X0Y27769D01*
X0Y27869D01*
X0Y27968D01*
X0Y28068D01*
X0Y28168D01*
X0Y28268D01*
X0Y28368D01*
X0Y28468D01*
X0Y28568D01*
X0Y28668D01*
X0Y28768D01*
X0Y28867D01*
X0Y28967D01*
X0Y29067D01*
X0Y29167D01*
X0Y29267D01*
X0Y29367D01*
X0Y29467D01*
X0Y29567D01*
X0Y29667D01*
X0Y29766D01*
X0Y29866D01*
X0Y29966D01*
X0Y30066D01*
X0Y30166D01*
X0Y30266D01*
X0Y30366D01*
X0Y30466D01*
X0Y30565D01*
X0Y30665D01*
X0Y30765D01*
X0Y30865D01*
X0Y30965D01*
X0Y31065D01*
X0Y31165D01*
X0Y31265D01*
X0Y31365D01*
X0Y31464D01*
X0Y31564D01*
X0Y31664D01*
X0Y31764D01*
X0Y31864D01*
X0Y31964D01*
X0Y32064D01*
X0Y32164D01*
X0Y32264D01*
X0Y32363D01*
X0Y32463D01*
X0Y32563D01*
X0Y32663D01*
X0Y32763D01*
X0Y32863D01*
X0Y32963D01*
X0Y33063D01*
X0Y33163D01*
X0Y33262D01*
X0Y33362D01*
X0Y33462D01*
X0Y33562D01*
X0Y33662D01*
X0Y33762D01*
X0Y33862D01*
X0Y33962D01*
X0Y34062D01*
X0Y34161D01*
X0Y34261D01*
X0Y34361D01*
X0Y34461D01*
X0Y34561D01*
X0Y34661D01*
X0Y34761D01*
X0Y34861D01*
X0Y34961D01*
X0Y35060D01*
X0Y35160D01*
X0Y35260D01*
X0Y35360D01*
X0Y35460D01*
X0Y35560D01*
X0Y35660D01*
X0Y35760D01*
X0Y35860D01*
X0Y35959D01*
X0Y36059D01*
X0Y36159D01*
X0Y36259D01*
X0Y36359D01*
X0Y36459D01*
X0Y36559D01*
X0Y36659D01*
X0Y36759D01*
X0Y36858D01*
X0Y36958D01*
X0Y37058D01*
X0Y37158D01*
X0Y37258D01*
X0Y37358D01*
X0Y37458D01*
X0Y37558D01*
X0Y37658D01*
X0Y37757D01*
X0Y37857D01*
X0Y37957D01*
X0Y38057D01*
X0Y38157D01*
X0Y38257D01*
X0Y38357D01*
X0Y38457D01*
X0Y38556D01*
X0Y38656D01*
X0Y38756D01*
X0Y38856D01*
X0Y38956D01*
X0Y39056D01*
X0Y39156D01*
X0Y39256D01*
X0Y39356D01*
X0Y39455D01*
X0Y39555D01*
X0Y39655D01*
X0Y39755D01*
X0Y39855D01*
X0Y39955D01*
X0Y40055D01*
X0Y40155D01*
X0Y40255D01*
X0Y40354D01*
X0Y40454D01*
X0Y40554D01*
X0Y40654D01*
X0Y40754D01*
X0Y40854D01*
X0Y40954D01*
X0Y41054D01*
X0Y41154D01*
X0Y41253D01*
X0Y41353D01*
X0Y41453D01*
X0Y41553D01*
X0Y41653D01*
X0Y41753D01*
X0Y41853D01*
X0Y41953D01*
X0Y42053D01*
X0Y42152D01*
X0Y42252D01*
X0Y42352D01*
X0Y42452D01*
X0Y42552D01*
X0Y42652D01*
X0Y42752D01*
X0Y42852D01*
X0Y42952D01*
X0Y43051D01*
X0Y43151D01*
X0Y43251D01*
X0Y43351D01*
X0Y43451D01*
X0Y43551D01*
X0Y43651D01*
X0Y43751D01*
X0Y43851D01*
X0Y43950D01*
X0Y44050D01*
X0Y44150D01*
X0Y44250D01*
X0Y44350D01*
X0Y44450D01*
X0Y44550D01*
X0Y44650D01*
X0Y44750D01*
X0Y44849D01*
X0Y44949D01*
X0Y45049D01*
X0Y45149D01*
X0Y45249D01*
X0Y45349D01*
X0Y45449D01*
X0Y45549D01*
X0Y45649D01*
X0Y45748D01*
X0Y45848D01*
X0Y45948D01*
X0Y46048D01*
X0Y46148D01*
X0Y46248D01*
X0Y46348D01*
X0Y46448D01*
X0Y46548D01*
X0Y46647D01*
X0Y46747D01*
X0Y46847D01*
X0Y46947D01*
X0Y47047D01*
X0Y47147D01*
X0Y47247D01*
X0Y47347D01*
X0Y47447D01*
X0Y47546D01*
X0Y47646D01*
X0Y47746D01*
X0Y47846D01*
X0Y47946D01*
X0Y48046D01*
X0Y48146D01*
X0Y48246D01*
X0Y48346D01*
X0Y48445D01*
X0Y48545D01*
X0Y48645D01*
X0Y48745D01*
X0Y48845D01*
X0Y48945D01*
X0Y49045D01*
X0Y49145D01*
X0Y49244D01*
X0Y49344D01*
X0Y49444D01*
X0Y49544D01*
X0Y49644D01*
X0Y49744D01*
X0Y49844D01*
X0Y49944D01*
X0Y50044D01*
X0Y50143D01*
X0Y50243D01*
X0Y50343D01*
X0Y50443D01*
X0Y50543D01*
X0Y50643D01*
X0Y50743D01*
X0Y50843D01*
X0Y50943D01*
X0Y51043D01*
X0Y51142D01*
X0Y51242D01*
X0Y51342D01*
X0Y51442D01*
X0Y51542D01*
X0Y51642D01*
X0Y51742D01*
X0Y51842D01*
X0Y51942D01*
X0Y52041D01*
X0Y52141D01*
X0Y52241D01*
X0Y52341D01*
X0Y52441D01*
X0Y52541D01*
X0Y52641D01*
X0Y52741D01*
X0Y52841D01*
X0Y52940D01*
X0Y53040D01*
X0Y53140D01*
X0Y53240D01*
X0Y53340D01*
X100Y53340D01*
X200Y53340D01*
X300Y53340D01*
X400Y53340D01*
X500Y53340D01*
X600Y53340D01*
X700Y53340D01*
X800Y53340D01*
X900Y53340D01*
X1000Y53340D01*
X1100Y53340D01*
X1200Y53340D01*
X1300Y53340D01*
X1400Y53340D01*
X1500Y53340D01*
X1600Y53340D01*
X1699Y53340D01*
X1799Y53340D01*
X1899Y53340D01*
X1999Y53340D01*
X2099Y53340D01*
X2199Y53340D01*
X2299Y53340D01*
X2399Y53340D01*
X2499Y53340D01*
X2599Y53340D01*
X2699Y53340D01*
X2799Y53340D01*
X2899Y53340D01*
X2999Y53340D01*
X3099Y53340D01*
X3199Y53340D01*
X3299Y53340D01*
X3399Y53340D01*
X3499Y53340D01*
X3599Y53340D01*
X3699Y53340D01*
X3799Y53340D01*
X3899Y53340D01*
X3999Y53340D01*
X4099Y53340D01*
X4199Y53340D01*
X4299Y53340D01*
X4399Y53340D01*
X4499Y53340D01*
X4599Y53340D01*
X4699Y53340D01*
X4799Y53340D01*
X4899Y53340D01*
X4999Y53340D01*
X5098Y53340D01*
X5198Y53340D01*
X5298Y53340D01*
X5398Y53340D01*
X5498Y53340D01*
X5598Y53340D01*
X5698Y53340D01*
X5798Y53340D01*
X5898Y53340D01*
X5998Y53340D01*
X6098Y53340D01*
X6198Y53340D01*
X6298Y53340D01*
X6398Y53340D01*
X6498Y53340D01*
X6598Y53340D01*
X6698Y53340D01*
X6798Y53340D01*
X6898Y53340D01*
X6998Y53340D01*
X7098Y53340D01*
X7198Y53340D01*
X7298Y53340D01*
X7398Y53340D01*
X7498Y53340D01*
X7598Y53340D01*
X7698Y53340D01*
X7798Y53340D01*
X7898Y53340D01*
X7998Y53340D01*
X8098Y53340D01*
X8198Y53340D01*
X8298Y53340D01*
X8398Y53340D01*
X8497Y53340D01*
X8597Y53340D01*
X8697Y53340D01*
X8797Y53340D01*
X8897Y53340D01*
X8997Y53340D01*
X9097Y53340D01*
X9197Y53340D01*
X9297Y53340D01*
X9397Y53340D01*
X9497Y53340D01*
X9597Y53340D01*
X9697Y53340D01*
X9797Y53340D01*
X9897Y53340D01*
X9997Y53340D01*
X10097Y53340D01*
X10197Y53340D01*
X10297Y53340D01*
X10397Y53340D01*
X10497Y53340D01*
X10597Y53340D01*
X10697Y53340D01*
X10797Y53340D01*
X10897Y53340D01*
X10997Y53340D01*
X11097Y53340D01*
X11197Y53340D01*
X11297Y53340D01*
X11397Y53340D01*
X11497Y53340D01*
X11597Y53340D01*
X11697Y53340D01*
X11797Y53340D01*
X11896Y53340D01*
X11996Y53340D01*
X12096Y53340D01*
X12196Y53340D01*
X12296Y53340D01*
X12396Y53340D01*
X12496Y53340D01*
X12596Y53340D01*
X12696Y53340D01*
X12796Y53340D01*
X12896Y53340D01*
X12996Y53340D01*
X13096Y53340D01*
X13196Y53340D01*
X13296Y53340D01*
X13396Y53340D01*
X13496Y53340D01*
X13596Y53340D01*
X13696Y53340D01*
X13796Y53340D01*
X13896Y53340D01*
X13996Y53340D01*
X14096Y53340D01*
X14196Y53340D01*
X14296Y53340D01*
X14396Y53340D01*
X14496Y53340D01*
X14596Y53340D01*
X14696Y53340D01*
X14796Y53340D01*
X14896Y53340D01*
X14996Y53340D01*
X15096Y53340D01*
X15195Y53340D01*
X15295Y53340D01*
X15395Y53340D01*
X15495Y53340D01*
X15595Y53340D01*
X15695Y53340D01*
X15795Y53340D01*
X15895Y53340D01*
X15995Y53340D01*
X16095Y53340D01*
X16195Y53340D01*
X16295Y53340D01*
X16395Y53340D01*
X16495Y53340D01*
X16595Y53340D01*
X16695Y53340D01*
X16795Y53340D01*
X16895Y53340D01*
X16995Y53340D01*
X17095Y53340D01*
X17195Y53340D01*
X17295Y53340D01*
X17395Y53340D01*
X17495Y53340D01*
X17595Y53340D01*
X17695Y53340D01*
X17795Y53340D01*
X17895Y53340D01*
X17995Y53340D01*
X18095Y53340D01*
X18195Y53340D01*
X18295Y53340D01*
X18395Y53340D01*
X18495Y53340D01*
X18594Y53340D01*
X18694Y53340D01*
X18794Y53340D01*
X18894Y53340D01*
X18994Y53340D01*
X19094Y53340D01*
X19194Y53340D01*
X19294Y53340D01*
X19394Y53340D01*
X19494Y53340D01*
X19594Y53340D01*
X19694Y53340D01*
X19794Y53340D01*
X19894Y53340D01*
X19994Y53340D01*
X20094Y53340D01*
X20194Y53340D01*
X20294Y53340D01*
X20394Y53340D01*
X20494Y53340D01*
X20594Y53340D01*
X20694Y53340D01*
X20794Y53340D01*
X20894Y53340D01*
X20994Y53340D01*
X21094Y53340D01*
X21194Y53340D01*
X21294Y53340D01*
X21394Y53340D01*
X21494Y53340D01*
X21594Y53340D01*
X21694Y53340D01*
X21794Y53340D01*
X21894Y53340D01*
X21993Y53340D01*
X22093Y53340D01*
X22193Y53340D01*
X22293Y53340D01*
X22393Y53340D01*
X22493Y53340D01*
X22593Y53340D01*
X22693Y53340D01*
X22793Y53340D01*
X22893Y53340D01*
X22993Y53340D01*
X23093Y53340D01*
X23193Y53340D01*
X23293Y53340D01*
X23393Y53340D01*
X23493Y53340D01*
X23593Y53340D01*
X23693Y53340D01*
X23793Y53340D01*
X23893Y53340D01*
X23993Y53340D01*
X24093Y53340D01*
X24193Y53340D01*
X24293Y53340D01*
X24393Y53340D01*
X24493Y53340D01*
X24593Y53340D01*
X24693Y53340D01*
X24793Y53340D01*
X24893Y53340D01*
X24993Y53340D01*
X25093Y53340D01*
X25193Y53340D01*
X25293Y53340D01*
X25392Y53340D01*
X25492Y53340D01*
X25592Y53340D01*
X25692Y53340D01*
X25792Y53340D01*
X25892Y53340D01*
X25992Y53340D01*
X26092Y53340D01*
X26192Y53340D01*
X26292Y53340D01*
X26392Y53340D01*
X26492Y53340D01*
X26592Y53340D01*
X26692Y53340D01*
X26792Y53340D01*
X26892Y53340D01*
X26992Y53340D01*
X27092Y53340D01*
X27192Y53340D01*
X27292Y53340D01*
X27392Y53340D01*
X27492Y53340D01*
X27592Y53340D01*
X27692Y53340D01*
X27792Y53340D01*
X27892Y53340D01*
X27992Y53340D01*
X28092Y53340D01*
X28192Y53340D01*
X28292Y53340D01*
X28392Y53340D01*
X28492Y53340D01*
X28592Y53340D01*
X28692Y53340D01*
X28791Y53340D01*
X28891Y53340D01*
X28991Y53340D01*
X29091Y53340D01*
X29191Y53340D01*
X29291Y53340D01*
X29391Y53340D01*
X29491Y53340D01*
X29591Y53340D01*
X29691Y53340D01*
X29791Y53340D01*
X29891Y53340D01*
X29991Y53340D01*
X30091Y53340D01*
X30191Y53340D01*
X30291Y53340D01*
X30391Y53340D01*
X30491Y53340D01*
X30591Y53340D01*
X30691Y53340D01*
X30791Y53340D01*
X30891Y53340D01*
X30991Y53340D01*
X31091Y53340D01*
X31191Y53340D01*
X31291Y53340D01*
X31391Y53340D01*
X31491Y53340D01*
X31591Y53340D01*
X31691Y53340D01*
X31791Y53340D01*
X31891Y53340D01*
X31991Y53340D01*
X32090Y53340D01*
X32190Y53340D01*
X32290Y53340D01*
X32390Y53340D01*
X32490Y53340D01*
X32590Y53340D01*
X32690Y53340D01*
X32790Y53340D01*
X32890Y53340D01*
X32990Y53340D01*
X33090Y53340D01*
X33190Y53340D01*
X33290Y53340D01*
X33390Y53340D01*
X33490Y53340D01*
X33590Y53340D01*
X33690Y53340D01*
X33790Y53340D01*
X33890Y53340D01*
X33990Y53340D01*
X34090Y53340D01*
X34190Y53340D01*
X34290Y53340D01*
X34390Y53340D01*
X34490Y53340D01*
X34590Y53340D01*
X34690Y53340D01*
X34790Y53340D01*
X34890Y53340D01*
X34990Y53340D01*
X35090Y53340D01*
X35190Y53340D01*
X35290Y53340D01*
X35390Y53340D01*
X35490Y53340D01*
X35589Y53340D01*
X35689Y53340D01*
X35789Y53340D01*
X35889Y53340D01*
X35989Y53340D01*
X36089Y53340D01*
X36189Y53340D01*
X36289Y53340D01*
X36389Y53340D01*
X36489Y53340D01*
X36589Y53340D01*
X36689Y53340D01*
X36789Y53340D01*
X36889Y53340D01*
X36989Y53340D01*
X37089Y53340D01*
X37189Y53340D01*
X37289Y53340D01*
X37389Y53340D01*
X37489Y53340D01*
X37589Y53340D01*
X37689Y53340D01*
X37789Y53340D01*
X37889Y53340D01*
X37989Y53340D01*
X38089Y53340D01*
X38189Y53340D01*
X38289Y53340D01*
X38389Y53340D01*
X38489Y53340D01*
X38589Y53340D01*
X38689Y53340D01*
X38789Y53340D01*
X38888Y53340D01*
X38988Y53340D01*
X39088Y53340D01*
X39188Y53340D01*
X39288Y53340D01*
X39388Y53340D01*
X39488Y53340D01*
X39588Y53340D01*
X39688Y53340D01*
X39788Y53340D01*
X39888Y53340D01*
X39988Y53340D01*
X40088Y53340D01*
X40188Y53340D01*
X40288Y53340D01*
X40388Y53340D01*
X40488Y53340D01*
X40588Y53340D01*
X40688Y53340D01*
X40788Y53340D01*
X40888Y53340D01*
X40988Y53340D01*
X41088Y53340D01*
X41188Y53340D01*
X41288Y53340D01*
X41388Y53340D01*
X41488Y53340D01*
X41588Y53340D01*
X41688Y53340D01*
X41788Y53340D01*
X41888Y53340D01*
X41988Y53340D01*
X42088Y53340D01*
X42188Y53340D01*
X42288Y53340D01*
X42387Y53340D01*
X42487Y53340D01*
X42587Y53340D01*
X42687Y53340D01*
X42787Y53340D01*
X42887Y53340D01*
X42987Y53340D01*
X43087Y53340D01*
X43187Y53340D01*
X43287Y53340D01*
X43387Y53340D01*
X43487Y53340D01*
X43587Y53340D01*
X43687Y53340D01*
X43787Y53340D01*
X43887Y53340D01*
X43987Y53340D01*
X44087Y53340D01*
X44187Y53340D01*
X44287Y53340D01*
X44387Y53340D01*
X44487Y53340D01*
X44587Y53340D01*
X44687Y53340D01*
X44787Y53340D01*
X44887Y53340D01*
X44987Y53340D01*
X45087Y53340D01*
X45187Y53340D01*
X45287Y53340D01*
X45387Y53340D01*
X45487Y53340D01*
X45587Y53340D01*
X45687Y53340D01*
X45786Y53340D01*
X45886Y53340D01*
X45986Y53340D01*
X46086Y53340D01*
X46186Y53340D01*
X46286Y53340D01*
X46386Y53340D01*
X46486Y53340D01*
X46586Y53340D01*
X46686Y53340D01*
X46786Y53340D01*
X46886Y53340D01*
X46986Y53340D01*
X47086Y53340D01*
X47186Y53340D01*
X47286Y53340D01*
X47386Y53340D01*
X47486Y53340D01*
X47586Y53340D01*
X47686Y53340D01*
X47786Y53340D01*
X47886Y53340D01*
X47986Y53340D01*
X48086Y53340D01*
X48186Y53340D01*
X48286Y53340D01*
X48386Y53340D01*
X48486Y53340D01*
X48586Y53340D01*
X48686Y53340D01*
X48786Y53340D01*
X48886Y53340D01*
X48986Y53340D01*
X49086Y53340D01*
X49185Y53340D01*
X49285Y53340D01*
X49385Y53340D01*
X49485Y53340D01*
X49585Y53340D01*
X49685Y53340D01*
X49785Y53340D01*
X49885Y53340D01*
X49985Y53340D01*
X50085Y53340D01*
X50185Y53340D01*
X50285Y53340D01*
X50385Y53340D01*
X50485Y53340D01*
X50585Y53340D01*
X50685Y53340D01*
X50785Y53340D01*
X50885Y53340D01*
X50985Y53340D01*
X51085Y53340D01*
X51185Y53340D01*
X51285Y53340D01*
X51385Y53340D01*
X51485Y53340D01*
X51585Y53340D01*
X51685Y53340D01*
X51785Y53340D01*
X51885Y53340D01*
X51985Y53340D01*
X52085Y53340D01*
X52185Y53340D01*
X52285Y53340D01*
X52385Y53340D01*
X52485Y53340D01*
X52584Y53340D01*
X52684Y53340D01*
X52784Y53340D01*
X52884Y53340D01*
X52984Y53340D01*
X53084Y53340D01*
X53184Y53340D01*
X53284Y53340D01*
X53384Y53340D01*
X53484Y53340D01*
X53584Y53340D01*
X53684Y53340D01*
X53784Y53340D01*
X53884Y53340D01*
X53984Y53340D01*
X54084Y53340D01*
X54184Y53340D01*
X54284Y53340D01*
X54384Y53340D01*
X54484Y53340D01*
X54584Y53340D01*
X54684Y53340D01*
X54784Y53340D01*
X54884Y53340D01*
X54984Y53340D01*
X55084Y53340D01*
X55184Y53340D01*
X55284Y53340D01*
X55384Y53340D01*
X55484Y53340D01*
X55584Y53340D01*
X55684Y53340D01*
X55784Y53340D01*
X55884Y53340D01*
X55983Y53340D01*
X56083Y53340D01*
X56183Y53340D01*
X56283Y53340D01*
X56383Y53340D01*
X56483Y53340D01*
X56583Y53340D01*
X56683Y53340D01*
X56783Y53340D01*
X56883Y53340D01*
X56983Y53340D01*
X57083Y53340D01*
X57183Y53340D01*
X57283Y53340D01*
X57383Y53340D01*
X57483Y53340D01*
X57583Y53340D01*
X57683Y53340D01*
X57783Y53340D01*
X57883Y53340D01*
X57983Y53340D01*
X58083Y53340D01*
X58183Y53340D01*
X58283Y53340D01*
X58383Y53340D01*
X58483Y53340D01*
X58583Y53340D01*
X58683Y53340D01*
X58783Y53340D01*
X58883Y53340D01*
X58983Y53340D01*
X59083Y53340D01*
X59183Y53340D01*
X59283Y53340D01*
X59383Y53340D01*
X59482Y53340D01*
X59582Y53340D01*
X59682Y53340D01*
X59782Y53340D01*
X59882Y53340D01*
X59982Y53340D01*
X60082Y53340D01*
X60182Y53340D01*
X60282Y53340D01*
X60382Y53340D01*
X60482Y53340D01*
X60582Y53340D01*
X60682Y53340D01*
X60782Y53340D01*
X60882Y53340D01*
X60982Y53340D01*
X61082Y53340D01*
X61182Y53340D01*
X61282Y53340D01*
X61382Y53340D01*
X61482Y53340D01*
X61582Y53340D01*
X61682Y53340D01*
X61782Y53340D01*
X61882Y53340D01*
X61982Y53340D01*
X62082Y53340D01*
X62182Y53340D01*
X62282Y53340D01*
X62382Y53340D01*
X62482Y53340D01*
X62582Y53340D01*
X62682Y53340D01*
X62782Y53340D01*
X62882Y53340D01*
X62981Y53340D01*
X63081Y53340D01*
X63181Y53340D01*
X63281Y53340D01*
X63381Y53340D01*
X63481Y53340D01*
X63581Y53340D01*
X63681Y53340D01*
X63781Y53340D01*
X63881Y53340D01*
X63981Y53340D01*
X64081Y53340D01*
X64181Y53340D01*
X64281Y53340D01*
X64381Y53340D01*
X64481Y53340D01*
X64581Y53340D01*
X64681Y53340D01*
X64781Y53340D01*
X64881Y53340D01*
X64981Y53340D01*
X65081Y53340D01*
X65181Y53340D01*
X65281Y53340D01*
X65381Y53340D01*
X65481Y53340D01*
X65581Y53340D01*
X65681Y53340D01*
X65781Y53340D01*
X65881Y53340D01*
X65981Y53340D01*
X66081Y53340D01*
X66181Y53340D01*
X66281Y53340D01*
X66381Y53340D01*
X66481Y53340D01*
X66580Y53340D01*
X66680Y53340D01*
X66780Y53340D01*
X66880Y53340D01*
X66980Y53340D01*
X67080Y53340D01*
X67180Y53340D01*
X67280Y53340D01*
X67380Y53340D01*
X67480Y53340D01*
X67580Y53340D01*
X67680Y53340D01*
X67780Y53340D01*
X67880Y53340D01*
X67980Y53340D01*
X68080Y53340D01*
X68180Y53340D01*
X68280Y53340D01*
X68380Y53340D01*
X68480Y53340D01*
X68580Y53340D01*
X68580Y53240D01*
X68580Y53140D01*
X68580Y53040D01*
X68580Y52940D01*
X68580Y52841D01*
X68580Y52741D01*
X68580Y52641D01*
X68580Y52541D01*
X68580Y52441D01*
X68580Y52341D01*
X68580Y52241D01*
X68580Y52141D01*
X68580Y52041D01*
X68580Y51942D01*
X68580Y51842D01*
X68580Y51742D01*
X68580Y51642D01*
X68580Y51542D01*
X68580Y51442D01*
X68580Y51342D01*
X68580Y51242D01*
X68580Y51142D01*
X68580Y51043D01*
X68580Y50943D01*
X68580Y50843D01*
X68580Y50743D01*
X68580Y50643D01*
X68580Y50543D01*
X68580Y50443D01*
X68580Y50343D01*
X68580Y50243D01*
X68580Y50144D01*
X68580Y50044D01*
X68580Y49944D01*
X68580Y49844D01*
X68580Y49744D01*
X68580Y49644D01*
X68580Y49544D01*
X68580Y49444D01*
X68580Y49345D01*
X68580Y49245D01*
X68580Y49145D01*
X68580Y49045D01*
X68580Y48945D01*
X68580Y48845D01*
X68580Y48745D01*
X68580Y48645D01*
X68580Y48545D01*
X68580Y48446D01*
X68580Y48346D01*
X68580Y48246D01*
X68580Y48146D01*
X68580Y48046D01*
X68580Y47946D01*
X68580Y47846D01*
X68580Y47746D01*
X68580Y47646D01*
X68580Y47547D01*
X68580Y47447D01*
X68580Y47347D01*
X68580Y47247D01*
X68580Y47147D01*
X68580Y47047D01*
X68580Y46947D01*
X68580Y46847D01*
X68580Y46747D01*
X68580Y46648D01*
X68580Y46548D01*
X68580Y46448D01*
X68580Y46348D01*
X68580Y46248D01*
X68580Y46148D01*
X68580Y46048D01*
X68580Y45948D01*
X68580Y45848D01*
X68580Y45749D01*
X68580Y45649D01*
X68580Y45549D01*
X68580Y45449D01*
X68580Y45349D01*
X68580Y45249D01*
X68580Y45149D01*
X68580Y45049D01*
X68580Y44949D01*
X68580Y44850D01*
X68580Y44750D01*
X68580Y44650D01*
X68580Y44550D01*
X68580Y44450D01*
X68580Y44350D01*
X68580Y44250D01*
X68580Y44150D01*
X68580Y44050D01*
X68580Y43951D01*
X68580Y43851D01*
X68580Y43751D01*
X68580Y43651D01*
X68580Y43551D01*
X68580Y43451D01*
X68580Y43351D01*
X68580Y43251D01*
X68580Y43152D01*
X68580Y43052D01*
X68580Y42952D01*
X68580Y42852D01*
X68580Y42752D01*
X68580Y42652D01*
X68580Y42552D01*
X68580Y42452D01*
X68580Y42352D01*
X68580Y42253D01*
X68580Y42153D01*
X68580Y42053D01*
X68580Y41953D01*
X68580Y41853D01*
X68580Y41753D01*
X68580Y41653D01*
X68580Y41553D01*
X68580Y41453D01*
X68580Y41354D01*
X68580Y41254D01*
X68580Y41154D01*
X68580Y41054D01*
X68580Y40954D01*
X68580Y40854D01*
X68580Y40754D01*
X68580Y40654D01*
X68580Y40554D01*
X68580Y40455D01*
X68580Y40355D01*
X68580Y40255D01*
X68580Y40155D01*
X68580Y40055D01*
X68580Y39955D01*
X68580Y39855D01*
X68580Y39755D01*
X68580Y39655D01*
X68580Y39556D01*
X68580Y39456D01*
X68580Y39356D01*
X68580Y39256D01*
X68580Y39156D01*
X68580Y39056D01*
X68580Y38956D01*
X68580Y38856D01*
X68580Y38756D01*
X68580Y38657D01*
X68580Y38557D01*
X68580Y38457D01*
X68580Y38357D01*
X68580Y38257D01*
X68580Y38157D01*
X68580Y38057D01*
X68580Y37957D01*
X68580Y37857D01*
X68580Y37758D01*
X68580Y37658D01*
X68580Y37558D01*
X68580Y37458D01*
X68580Y37358D01*
X68580Y37258D01*
X68580Y37158D01*
X68580Y37058D01*
X68580Y36959D01*
X68580Y36859D01*
X68580Y36759D01*
X68580Y36659D01*
X68580Y36559D01*
X68580Y36459D01*
X68580Y36359D01*
X68580Y36259D01*
X68580Y36159D01*
X68580Y36060D01*
X68580Y35960D01*
X68580Y35860D01*
X68580Y35760D01*
X68580Y35660D01*
X68580Y35560D01*
X68580Y35460D01*
X68580Y35360D01*
X68580Y35260D01*
X68580Y35161D01*
X68580Y35061D01*
X68580Y34961D01*
X68580Y34861D01*
X68580Y34761D01*
X68580Y34661D01*
X68580Y34561D01*
X68580Y34461D01*
X68580Y34361D01*
X68580Y34262D01*
X68580Y34162D01*
X68580Y34062D01*
X68580Y33962D01*
X68580Y33862D01*
X68580Y33762D01*
X68580Y33662D01*
X68580Y33562D01*
X68580Y33462D01*
X68580Y33363D01*
X68580Y33263D01*
X68580Y33163D01*
X68580Y33063D01*
X68580Y32963D01*
X68580Y32863D01*
X68580Y32763D01*
X68580Y32663D01*
X68580Y32563D01*
X68580Y32464D01*
X68580Y32364D01*
X68580Y32264D01*
X68580Y32164D01*
X68580Y32064D01*
X68580Y31964D01*
X68580Y31864D01*
X68580Y31764D01*
X68580Y31664D01*
X68580Y31565D01*
X68580Y31465D01*
X68580Y31365D01*
X68580Y31265D01*
X68580Y31165D01*
X68580Y31065D01*
X68580Y30965D01*
X68580Y30865D01*
X68580Y30765D01*
X68580Y30666D01*
X68580Y30566D01*
X68580Y30466D01*
X68580Y30366D01*
X68580Y30266D01*
X68580Y30166D01*
X68580Y30066D01*
X68580Y29966D01*
X68580Y29867D01*
X68580Y29767D01*
X68580Y29667D01*
X68580Y29567D01*
X68580Y29467D01*
X68580Y29367D01*
X68580Y29267D01*
X68580Y29167D01*
X68580Y29067D01*
X68580Y28968D01*
X68580Y28868D01*
X68580Y28768D01*
X68580Y28668D01*
X68580Y28568D01*
X68580Y28468D01*
X68580Y28368D01*
X68580Y28268D01*
X68580Y28168D01*
X68580Y28069D01*
X68580Y27969D01*
X68580Y27869D01*
X68580Y27769D01*
X68580Y27669D01*
X68580Y27569D01*
X68580Y27469D01*
X68580Y27369D01*
X68580Y27269D01*
X68580Y27170D01*
X68580Y27070D01*
X68580Y26970D01*
X68580Y26870D01*
X68580Y26770D01*
X68580Y26670D01*
X68580Y26570D01*
X68580Y26470D01*
X68580Y26370D01*
X68580Y26271D01*
X68580Y26171D01*
X68580Y26071D01*
X68580Y25971D01*
X68580Y25871D01*
X68580Y25771D01*
X68580Y25671D01*
X68580Y25571D01*
X68580Y25471D01*
X68580Y25372D01*
X68580Y25272D01*
X68580Y25172D01*
X68580Y25072D01*
X68580Y24972D01*
X68580Y24872D01*
X68580Y24772D01*
X68580Y24672D01*
X68580Y24572D01*
X68580Y24473D01*
X68580Y24373D01*
X68580Y24273D01*
X68580Y24173D01*
X68580Y24073D01*
X68580Y23973D01*
X68580Y23873D01*
X68580Y23773D01*
X68580Y23673D01*
X68580Y23574D01*
X68580Y23474D01*
X68580Y23374D01*
X68580Y23274D01*
X68580Y23174D01*
X68580Y23074D01*
X68580Y22974D01*
X68580Y22874D01*
X68580Y22775D01*
X68580Y22675D01*
X68580Y22575D01*
X68580Y22475D01*
X68580Y22375D01*
X68580Y22275D01*
X68580Y22175D01*
X68580Y22075D01*
X68580Y21975D01*
X68580Y21876D01*
X68580Y21776D01*
X68580Y21676D01*
X68580Y21576D01*
X68580Y21476D01*
X68580Y21376D01*
X68580Y21276D01*
X68580Y21176D01*
X68580Y21076D01*
X68580Y20977D01*
X68580Y20877D01*
X68580Y20777D01*
X68580Y20677D01*
X68580Y20577D01*
X68580Y20477D01*
X68580Y20377D01*
X68580Y20277D01*
X68580Y20177D01*
X68580Y20078D01*
X68580Y19978D01*
X68580Y19878D01*
X68580Y19778D01*
X68580Y19678D01*
X68580Y19578D01*
X68580Y19478D01*
X68580Y19378D01*
X68580Y19278D01*
X68580Y19179D01*
X68580Y19079D01*
X68580Y18979D01*
X68580Y18879D01*
X68580Y18779D01*
X68580Y18679D01*
X68580Y18579D01*
X68580Y18479D01*
X68580Y18379D01*
X68580Y18280D01*
X68580Y18180D01*
X68580Y18080D01*
X68580Y17980D01*
X68580Y17880D01*
X68580Y17780D01*
X68580Y17680D01*
X68580Y17580D01*
X68580Y17480D01*
X68580Y17381D01*
X68580Y17281D01*
X68580Y17181D01*
X68580Y17081D01*
X68580Y16981D01*
X68580Y16881D01*
X68580Y16781D01*
X68580Y16681D01*
X68580Y16581D01*
X68580Y16482D01*
X68580Y16382D01*
X68580Y16282D01*
X68580Y16182D01*
X68580Y16082D01*
X68580Y15982D01*
X68580Y15882D01*
X68580Y15782D01*
X68580Y15682D01*
X68580Y15583D01*
X68580Y15483D01*
X68580Y15383D01*
X68580Y15283D01*
X68580Y15183D01*
X68580Y15083D01*
X68580Y14983D01*
X68580Y14883D01*
X68580Y14784D01*
X68580Y14684D01*
X68580Y14584D01*
X68580Y14484D01*
X68580Y14384D01*
X68580Y14284D01*
X68580Y14184D01*
X68580Y14084D01*
X68580Y13984D01*
X68580Y13885D01*
X68580Y13785D01*
X68580Y13685D01*
X68580Y13585D01*
X68580Y13485D01*
X68580Y13385D01*
X68580Y13285D01*
X68580Y13185D01*
X68580Y13085D01*
X68580Y12986D01*
X68580Y12886D01*
X68580Y12786D01*
X68580Y12686D01*
X68580Y12586D01*
X68580Y12486D01*
X68580Y12386D01*
X68580Y12286D01*
X68580Y12186D01*
X68580Y12087D01*
X68580Y11987D01*
X68580Y11887D01*
X68580Y11787D01*
X68580Y11687D01*
X68580Y11587D01*
X68580Y11487D01*
X68580Y11387D01*
X68580Y11287D01*
X68580Y11188D01*
X68580Y11088D01*
X68580Y10988D01*
X68580Y10888D01*
X68580Y10788D01*
X68580Y10688D01*
X68580Y10588D01*
X68580Y10488D01*
X68580Y10388D01*
X68580Y10289D01*
X68580Y10189D01*
X68580Y10089D01*
X68580Y9989D01*
X68580Y9889D01*
X68580Y9789D01*
X68580Y9689D01*
X68580Y9589D01*
X68580Y9489D01*
X68580Y9390D01*
X68580Y9290D01*
X68580Y9190D01*
X68580Y9090D01*
X68580Y8990D01*
X68580Y8890D01*
X68580Y8790D01*
X68580Y8690D01*
X68580Y8590D01*
X68580Y8491D01*
X68580Y8391D01*
X68580Y8291D01*
X68580Y8191D01*
X68580Y8091D01*
X68580Y7991D01*
X68580Y7891D01*
X68580Y7791D01*
X68580Y7691D01*
X68580Y7592D01*
X68580Y7492D01*
X68580Y7392D01*
X68580Y7292D01*
X68580Y7192D01*
X68580Y7092D01*
X68580Y6992D01*
X68580Y6892D01*
X68580Y6792D01*
X68580Y6693D01*
X68580Y6593D01*
X68580Y6493D01*
X68580Y6393D01*
X68580Y6293D01*
X68580Y6193D01*
X68580Y6093D01*
X68580Y5993D01*
X68580Y5893D01*
X68580Y5794D01*
X68580Y5694D01*
X68580Y5594D01*
X68580Y5494D01*
X68580Y5394D01*
X68580Y5294D01*
X68580Y5194D01*
X68580Y5094D01*
X68580Y4994D01*
X68580Y4895D01*
X68580Y4795D01*
X68580Y4695D01*
X68580Y4595D01*
X68580Y4495D01*
X68580Y4395D01*
X68580Y4295D01*
X68580Y4195D01*
X68580Y4096D01*
X68580Y3996D01*
X68580Y3896D01*
X68580Y3796D01*
X68580Y3696D01*
X68580Y3596D01*
X68580Y3496D01*
X68580Y3396D01*
X68580Y3296D01*
X68580Y3197D01*
X68580Y3097D01*
X68580Y2997D01*
X68580Y2897D01*
X68580Y2797D01*
X68580Y2697D01*
X68580Y2597D01*
X68580Y2497D01*
X68580Y2397D01*
X68580Y2297D01*
X68580Y2198D01*
X68580Y2098D01*
X68580Y1998D01*
X68580Y1898D01*
X68580Y1798D01*
X68580Y1698D01*
X68580Y1598D01*
X68580Y1498D01*
X68580Y1398D01*
X68580Y1299D01*
X68580Y1199D01*
X68580Y1099D01*
X68580Y999D01*
X68580Y899D01*
X68580Y799D01*
X68580Y699D01*
X68580Y599D01*
X68580Y499D01*
X68580Y400D01*
X68580Y300D01*
X68580Y200D01*
X68580Y100D01*
X68580Y0D01*
X68480Y0D01*
X68380Y0D01*
X68280Y0D01*
X68180Y0D01*
X68080Y0D01*
X67980Y0D01*
X67880Y0D01*
X67780Y0D01*
X67680Y0D01*
X67580Y0D01*
X67480Y0D01*
X67380Y0D01*
X67280Y0D01*
X67180Y0D01*
X67080Y0D01*
X66980Y0D01*
X66881Y0D01*
X66781Y0D01*
X66681Y0D01*
X66581Y0D01*
X66481Y0D01*
X66381Y0D01*
X66281Y0D01*
X66181Y0D01*
X66081Y0D01*
X65981Y0D01*
X65881Y0D01*
X65781Y0D01*
X65681Y0D01*
X65581Y0D01*
X65481Y0D01*
X65381Y0D01*
X65281Y0D01*
X65181Y0D01*
X65081Y0D01*
X64981Y0D01*
X64881Y0D01*
X64781Y0D01*
X64681Y0D01*
X64581Y0D01*
X64481Y0D01*
X64381Y0D01*
X64281Y0D01*
X64181Y0D01*
X64081Y0D01*
X63981Y0D01*
X63881Y0D01*
X63781Y0D01*
X63681Y0D01*
X63581Y0D01*
X63482Y0D01*
X63382Y0D01*
X63282Y0D01*
X63182Y0D01*
X63082Y0D01*
X62982Y0D01*
X62882Y0D01*
X62782Y0D01*
X62682Y0D01*
X62582Y0D01*
X62482Y0D01*
X62382Y0D01*
X62282Y0D01*
X62182Y0D01*
X62082Y0D01*
X61982Y0D01*
X61882Y0D01*
X61782Y0D01*
X61682Y0D01*
X61582Y0D01*
X61482Y0D01*
X61382Y0D01*
X61282Y0D01*
X61182Y0D01*
X61082Y0D01*
X60982Y0D01*
X60882Y0D01*
X60782Y0D01*
X60682Y0D01*
X60582Y0D01*
X60482Y0D01*
X60382Y0D01*
X60282Y0D01*
X60182Y0D01*
X60083Y0D01*
X59983Y0D01*
X59883Y0D01*
X59783Y0D01*
X59683Y0D01*
X59583Y0D01*
X59483Y0D01*
X59383Y0D01*
X59283Y0D01*
X59183Y0D01*
X59083Y0D01*
X58983Y0D01*
X58883Y0D01*
X58783Y0D01*
X58683Y0D01*
X58583Y0D01*
X58483Y0D01*
X58383Y0D01*
X58283Y0D01*
X58183Y0D01*
X58083Y0D01*
X57983Y0D01*
X57883Y0D01*
X57783Y0D01*
X57683Y0D01*
X57583Y0D01*
X57483Y0D01*
X57383Y0D01*
X57283Y0D01*
X57183Y0D01*
X57083Y0D01*
X56983Y0D01*
X56883Y0D01*
X56783Y0D01*
X56684Y0D01*
X56584Y0D01*
X56484Y0D01*
X56384Y0D01*
X56284Y0D01*
X56184Y0D01*
X56084Y0D01*
X55984Y0D01*
X55884Y0D01*
X55784Y0D01*
X55684Y0D01*
X55584Y0D01*
X55484Y0D01*
X55384Y0D01*
X55284Y0D01*
X55184Y0D01*
X55084Y0D01*
X54984Y0D01*
X54884Y0D01*
X54784Y0D01*
X54684Y0D01*
X54584Y0D01*
X54484Y0D01*
X54384Y0D01*
X54284Y0D01*
X54184Y0D01*
X54084Y0D01*
X53984Y0D01*
X53884Y0D01*
X53784Y0D01*
X53684Y0D01*
X53584Y0D01*
X53484Y0D01*
X53385Y0D01*
X53285Y0D01*
X53185Y0D01*
X53085Y0D01*
X52985Y0D01*
X52885Y0D01*
X52785Y0D01*
X52685Y0D01*
X52585Y0D01*
X52485Y0D01*
X52385Y0D01*
X52285Y0D01*
X52185Y0D01*
X52085Y0D01*
X51985Y0D01*
X51885Y0D01*
X51785Y0D01*
X51685Y0D01*
X51585Y0D01*
X51485Y0D01*
X51385Y0D01*
X51285Y0D01*
X51185Y0D01*
X51085Y0D01*
X50985Y0D01*
X50885Y0D01*
X50785Y0D01*
X50685Y0D01*
X50585Y0D01*
X50485Y0D01*
X50385Y0D01*
X50285Y0D01*
X50185Y0D01*
X50085Y0D01*
X49986Y0D01*
X49886Y0D01*
X49786Y0D01*
X49686Y0D01*
X49586Y0D01*
X49486Y0D01*
X49386Y0D01*
X49286Y0D01*
X49186Y0D01*
X49086Y0D01*
X48986Y0D01*
X48886Y0D01*
X48786Y0D01*
X48686Y0D01*
X48586Y0D01*
X48486Y0D01*
X48386Y0D01*
X48286Y0D01*
X48186Y0D01*
X48086Y0D01*
X47986Y0D01*
X47886Y0D01*
X47786Y0D01*
X47686Y0D01*
X47586Y0D01*
X47486Y0D01*
X47386Y0D01*
X47286Y0D01*
X47186Y0D01*
X47086Y0D01*
X46986Y0D01*
X46886Y0D01*
X46786Y0D01*
X46686Y0D01*
X46587Y0D01*
X46487Y0D01*
X46387Y0D01*
X46287Y0D01*
X46187Y0D01*
X46087Y0D01*
X45987Y0D01*
X45887Y0D01*
X45787Y0D01*
X45687Y0D01*
X45587Y0D01*
X45487Y0D01*
X45387Y0D01*
X45287Y0D01*
X45187Y0D01*
X45087Y0D01*
X44987Y0D01*
X44887Y0D01*
X44787Y0D01*
X44687Y0D01*
X44587Y0D01*
X44487Y0D01*
X44387Y0D01*
X44287Y0D01*
X44187Y0D01*
X44087Y0D01*
X43987Y0D01*
X43887Y0D01*
X43787Y0D01*
X43687Y0D01*
X43587Y0D01*
X43487Y0D01*
X43387Y0D01*
X43287Y0D01*
X43188Y0D01*
X43088Y0D01*
X42988Y0D01*
X42888Y0D01*
X42788Y0D01*
X42688Y0D01*
X42588Y0D01*
X42488Y0D01*
X42388Y0D01*
X42288Y0D01*
X42188Y0D01*
X42088Y0D01*
X41988Y0D01*
X41888Y0D01*
X41788Y0D01*
X41688Y0D01*
X41588Y0D01*
X41488Y0D01*
X41388Y0D01*
X41288Y0D01*
X41188Y0D01*
X41088Y0D01*
X40988Y0D01*
X40888Y0D01*
X40788Y0D01*
X40688Y0D01*
X40588Y0D01*
X40488Y0D01*
X40388Y0D01*
X40288Y0D01*
X40188Y0D01*
X40088Y0D01*
X39988Y0D01*
X39888Y0D01*
X39789Y0D01*
X39689Y0D01*
X39589Y0D01*
X39489Y0D01*
X39389Y0D01*
X39289Y0D01*
X39189Y0D01*
X39089Y0D01*
X38989Y0D01*
X38889Y0D01*
X38789Y0D01*
X38689Y0D01*
X38589Y0D01*
X38489Y0D01*
X38389Y0D01*
X38289Y0D01*
X38189Y0D01*
X38089Y0D01*
X37989Y0D01*
X37889Y0D01*
X37789Y0D01*
X37689Y0D01*
X37589Y0D01*
X37489Y0D01*
X37389Y0D01*
X37289Y0D01*
X37189Y0D01*
X37089Y0D01*
X36989Y0D01*
X36889Y0D01*
X36789Y0D01*
X36689Y0D01*
X36589Y0D01*
X36490Y0D01*
X36390Y0D01*
X36290Y0D01*
X36190Y0D01*
X36090Y0D01*
X35990Y0D01*
X35890Y0D01*
X35790Y0D01*
X35690Y0D01*
X35590Y0D01*
X35490Y0D01*
X35390Y0D01*
X35290Y0D01*
X35190Y0D01*
X35090Y0D01*
X34990Y0D01*
X34890Y0D01*
X34790Y0D01*
X34690Y0D01*
X34590Y0D01*
X34490Y0D01*
X34390Y0D01*
X34290Y0D01*
X34190Y0D01*
X34090Y0D01*
X33990Y0D01*
X33890Y0D01*
X33790Y0D01*
X33690Y0D01*
X33590Y0D01*
X33490Y0D01*
X33390Y0D01*
X33290Y0D01*
X33190Y0D01*
X33090Y0D01*
X32991Y0D01*
X32891Y0D01*
X32791Y0D01*
X32691Y0D01*
X32591Y0D01*
X32491Y0D01*
X32391Y0D01*
X32291Y0D01*
X32191Y0D01*
X32091Y0D01*
X31991Y0D01*
X31891Y0D01*
X31791Y0D01*
X31691Y0D01*
X31591Y0D01*
X31491Y0D01*
X31391Y0D01*
X31291Y0D01*
X31191Y0D01*
X31091Y0D01*
X30991Y0D01*
X30891Y0D01*
X30791Y0D01*
X30691Y0D01*
X30591Y0D01*
X30491Y0D01*
X30391Y0D01*
X30291Y0D01*
X30191Y0D01*
X30091Y0D01*
X29991Y0D01*
X29891Y0D01*
X29791Y0D01*
X29692Y0D01*
X29592Y0D01*
X29492Y0D01*
X29392Y0D01*
X29292Y0D01*
X29192Y0D01*
X29092Y0D01*
X28992Y0D01*
X28892Y0D01*
X28792Y0D01*
X28692Y0D01*
X28592Y0D01*
X28492Y0D01*
X28392Y0D01*
X28292Y0D01*
X28192Y0D01*
X28092Y0D01*
X27992Y0D01*
X27892Y0D01*
X27792Y0D01*
X27692Y0D01*
X27592Y0D01*
X27492Y0D01*
X27392Y0D01*
X27292Y0D01*
X27192Y0D01*
X27092Y0D01*
X26992Y0D01*
X26892Y0D01*
X26792Y0D01*
X26692Y0D01*
X26592Y0D01*
X26492Y0D01*
X26392Y0D01*
X26292Y0D01*
X26193Y0D01*
X26093Y0D01*
X25993Y0D01*
X25893Y0D01*
X25793Y0D01*
X25693Y0D01*
X25593Y0D01*
X25493Y0D01*
X25393Y0D01*
X25293Y0D01*
X25193Y0D01*
X25093Y0D01*
X24993Y0D01*
X24893Y0D01*
X24793Y0D01*
X24693Y0D01*
X24593Y0D01*
X24493Y0D01*
X24393Y0D01*
X24293Y0D01*
X24193Y0D01*
X24093Y0D01*
X23993Y0D01*
X23893Y0D01*
X23793Y0D01*
X23693Y0D01*
X23593Y0D01*
X23493Y0D01*
X23393Y0D01*
X23293Y0D01*
X23193Y0D01*
X23093Y0D01*
X22993Y0D01*
X22893Y0D01*
X22794Y0D01*
X22694Y0D01*
X22594Y0D01*
X22494Y0D01*
X22394Y0D01*
X22294Y0D01*
X22194Y0D01*
X22094Y0D01*
X21994Y0D01*
X21894Y0D01*
X21794Y0D01*
X21694Y0D01*
X21594Y0D01*
X21494Y0D01*
X21394Y0D01*
X21294Y0D01*
X21194Y0D01*
X21094Y0D01*
X20994Y0D01*
X20894Y0D01*
X20794Y0D01*
X20694Y0D01*
X20594Y0D01*
X20494Y0D01*
X20394Y0D01*
X20294Y0D01*
X20194Y0D01*
X20094Y0D01*
X19994Y0D01*
X19894Y0D01*
X19794Y0D01*
X19694Y0D01*
X19594Y0D01*
X19494Y0D01*
X19395Y0D01*
X19295Y0D01*
X19195Y0D01*
X19095Y0D01*
X18995Y0D01*
X18895Y0D01*
X18795Y0D01*
X18695Y0D01*
X18595Y0D01*
X18495Y0D01*
X18395Y0D01*
X18295Y0D01*
X18195Y0D01*
X18095Y0D01*
X17995Y0D01*
X17895Y0D01*
X17795Y0D01*
X17695Y0D01*
X17595Y0D01*
X17495Y0D01*
X17395Y0D01*
X17295Y0D01*
X17195Y0D01*
X17095Y0D01*
X16995Y0D01*
X16895Y0D01*
X16795Y0D01*
X16695Y0D01*
X16595Y0D01*
X16495Y0D01*
X16395Y0D01*
X16295Y0D01*
X16195Y0D01*
X16095Y0D01*
X15996Y0D01*
X15896Y0D01*
X15796Y0D01*
X15696Y0D01*
X15596Y0D01*
X15496Y0D01*
X15396Y0D01*
X15296Y0D01*
X15196Y0D01*
X15096Y0D01*
X14996Y0D01*
X14896Y0D01*
X14796Y0D01*
X14696Y0D01*
X14596Y0D01*
X14496Y0D01*
X14396Y0D01*
X14296Y0D01*
X14196Y0D01*
X14096Y0D01*
X13996Y0D01*
X13896Y0D01*
X13796Y0D01*
X13696Y0D01*
X13596Y0D01*
X13496Y0D01*
X13396Y0D01*
X13296Y0D01*
X13196Y0D01*
X13096Y0D01*
X12996Y0D01*
X12896Y0D01*
X12796Y0D01*
X12696Y0D01*
X12597Y0D01*
X12497Y0D01*
X12397Y0D01*
X12297Y0D01*
X12197Y0D01*
X12097Y0D01*
X11997Y0D01*
X11897Y0D01*
X11797Y0D01*
X11697Y0D01*
X11597Y0D01*
X11497Y0D01*
X11397Y0D01*
X11297Y0D01*
X11197Y0D01*
X11097Y0D01*
X10997Y0D01*
X10897Y0D01*
X10797Y0D01*
X10697Y0D01*
X10597Y0D01*
X10497Y0D01*
X10397Y0D01*
X10297Y0D01*
X10197Y0D01*
X10097Y0D01*
X9997Y0D01*
X9897Y0D01*
X9797Y0D01*
X9697Y0D01*
X9597Y0D01*
X9497Y0D01*
X9397Y0D01*
X9297Y0D01*
X9197Y0D01*
X9098Y0D01*
X8998Y0D01*
X8898Y0D01*
X8798Y0D01*
X8698Y0D01*
X8598Y0D01*
X8498Y0D01*
X8398Y0D01*
X8298Y0D01*
X8198Y0D01*
X8098Y0D01*
X7998Y0D01*
X7898Y0D01*
X7798Y0D01*
X7698Y0D01*
X7598Y0D01*
X7498Y0D01*
X7398Y0D01*
X7298Y0D01*
X7198Y0D01*
X7098Y0D01*
X6998Y0D01*
X6898Y0D01*
X6798Y0D01*
X6698Y0D01*
X6598Y0D01*
X6498Y0D01*
X6398Y0D01*
X6298Y0D01*
X6198Y0D01*
X6098Y0D01*
X5998Y0D01*
X5898Y0D01*
X5798Y0D01*
X5698Y0D01*
X5599Y0D01*
X5499Y0D01*
X5399Y0D01*
X5299Y0D01*
X5199Y0D01*
X5099Y0D01*
X4999Y0D01*
X4899Y0D01*
X4799Y0D01*
X4699Y0D01*
X4599Y0D01*
X4499Y0D01*
X4399Y0D01*
X4299Y0D01*
X4199Y0D01*
X4099Y0D01*
X3999Y0D01*
X3899Y0D01*
X3799Y0D01*
X3699Y0D01*
X3599Y0D01*
X3499Y0D01*
X3399Y0D01*
X3299Y0D01*
X3199Y0D01*
X3099Y0D01*
X2999Y0D01*
X2899Y0D01*
X2799Y0D01*
X2699Y0D01*
X2599Y0D01*
X2499Y0D01*
X2399Y0D01*
X2299Y0D01*
X2199Y0D01*
X2099Y0D01*
X2000Y0D01*
X1900Y0D01*
X1800Y0D01*
X1700Y0D01*
X1600Y0D01*
X1500Y0D01*
X1400Y0D01*
X1300Y0D01*
X1200Y0D01*
X1100Y0D01*
X1000Y0D01*
X900Y0D01*
X800Y0D01*
X700Y0D01*
X600Y0D01*
X500Y0D01*
X400Y0D01*
X300Y0D01*
X200Y0D01*
X100Y0D01*
X0Y0D01*
X0Y0D01*
D11*
X9618Y27607D02*
X9618Y28273D01*
D11*
X9618Y28246D02*
X9924Y28023D01*
X10229Y28246D01*
D11*
X10229Y28273D02*
X10229Y27607D01*
D11*
X10591Y27607D02*
X10591Y28273D01*
X10535Y28273D01*
X10452Y28162D01*
D11*
X10452Y27607D02*
X10702Y27607D01*
D10*
X8890Y31750D02*
X11430Y31750D01*
X11430Y24130D01*
X8890Y24130D01*
X8890Y31750D01*
D12*
X7620Y27464D02*
X7620Y27559D01*
X7620Y27654D01*
X7620Y27749D01*
X7620Y27845D01*
X7620Y27940D01*
X7620Y28035D01*
X7620Y28130D01*
X7620Y28226D01*
X7620Y28321D01*
X7620Y28416D01*
D12*
X7144Y27940D02*
X7239Y27940D01*
X7334Y27940D01*
X7429Y27940D01*
X7525Y27940D01*
X7620Y27940D01*
X7715Y27940D01*
X7810Y27940D01*
X7906Y27940D01*
X8001Y27940D01*
X8096Y27940D01*
D12*
X7144Y25393D02*
X7239Y25393D01*
X7334Y25393D01*
X7429Y25393D01*
X7525Y25393D01*
X7620Y25393D01*
X7715Y25393D01*
X7810Y25393D01*
X7906Y25393D01*
X8001Y25393D01*
X8096Y25393D01*
D10*
X6920Y30280D02*
X6920Y30255D01*
X6995Y30180D01*
X7295Y30180D01*
X7370Y30255D01*
X7370Y30330D01*
X7295Y30405D01*
X6995Y30405D01*
X6920Y30480D01*
X6920Y30555D01*
X6995Y30630D01*
X7295Y30630D01*
X7370Y30555D01*
X7370Y30530D01*
D10*
X7620Y30780D02*
X7620Y30780D01*
D10*
X7570Y30630D02*
X7620Y30630D01*
X7620Y30180D01*
D10*
X7570Y30180D02*
X7670Y30180D01*
D10*
X8320Y30630D02*
X8320Y30105D01*
X8245Y30030D01*
X7995Y30030D01*
D10*
X8320Y30230D02*
X7970Y30230D01*
X7870Y30330D01*
X7870Y30505D01*
X7995Y30630D01*
X8170Y30630D01*
X8320Y30480D01*
D11*
X19709Y27607D02*
X19709Y28273D01*
D11*
X19709Y28246D02*
X20014Y28023D01*
X20320Y28246D01*
D11*
X20320Y28273D02*
X20320Y27607D01*
D11*
X20542Y28162D02*
X20542Y28190D01*
X20626Y28273D01*
X20848Y28273D01*
X20931Y28190D01*
X20931Y27996D01*
X20542Y27607D01*
X20931Y27607D01*
D10*
X19050Y31750D02*
X21590Y31750D01*
X21590Y24130D01*
X19050Y24130D01*
X19050Y31750D01*
D12*
X17780Y27464D02*
X17780Y27559D01*
X17780Y27654D01*
X17780Y27749D01*
X17780Y27845D01*
X17780Y27940D01*
X17780Y28035D01*
X17780Y28130D01*
X17780Y28226D01*
X17780Y28321D01*
X17780Y28416D01*
D12*
X17304Y27940D02*
X17399Y27940D01*
X17494Y27940D01*
X17589Y27940D01*
X17685Y27940D01*
X17780Y27940D01*
X17875Y27940D01*
X17970Y27940D01*
X18066Y27940D01*
X18161Y27940D01*
X18256Y27940D01*
D12*
X17304Y25393D02*
X17399Y25393D01*
X17494Y25393D01*
X17589Y25393D01*
X17685Y25393D01*
X17780Y25393D01*
X17875Y25393D01*
X17970Y25393D01*
X18066Y25393D01*
X18161Y25393D01*
X18256Y25393D01*
D10*
X17080Y30280D02*
X17080Y30255D01*
X17155Y30180D01*
X17455Y30180D01*
X17530Y30255D01*
X17530Y30330D01*
X17455Y30405D01*
X17155Y30405D01*
X17080Y30480D01*
X17080Y30555D01*
X17155Y30630D01*
X17455Y30630D01*
X17530Y30555D01*
X17530Y30530D01*
D10*
X17780Y30780D02*
X17780Y30780D01*
D10*
X17730Y30630D02*
X17780Y30630D01*
X17780Y30180D01*
D10*
X17730Y30180D02*
X17830Y30180D01*
D10*
X18480Y30630D02*
X18480Y30105D01*
X18405Y30030D01*
X18155Y30030D01*
D10*
X18480Y30230D02*
X18130Y30230D01*
X18030Y30330D01*
X18030Y30505D01*
X18155Y30630D01*
X18330Y30630D01*
X18480Y30480D01*
D11*
X29869Y27607D02*
X29869Y28273D01*
D11*
X29869Y28246D02*
X30174Y28023D01*
X30480Y28246D01*
D11*
X30480Y28273D02*
X30480Y27607D01*
D11*
X30702Y28162D02*
X30702Y28190D01*
X30786Y28273D01*
X31008Y28273D01*
X31091Y28190D01*
X31091Y28079D01*
X30952Y27940D01*
X31091Y27801D01*
X31091Y27690D01*
X31008Y27607D01*
X30786Y27607D01*
X30702Y27690D01*
X30702Y27718D01*
D11*
X30869Y27940D02*
X30952Y27940D01*
D10*
X29210Y31750D02*
X31750Y31750D01*
X31750Y24130D01*
X29210Y24130D01*
X29210Y31750D01*
D12*
X27940Y27464D02*
X27940Y27559D01*
X27940Y27654D01*
X27940Y27749D01*
X27940Y27845D01*
X27940Y27940D01*
X27940Y28035D01*
X27940Y28130D01*
X27940Y28226D01*
X27940Y28321D01*
X27940Y28416D01*
D12*
X27464Y27940D02*
X27559Y27940D01*
X27654Y27940D01*
X27749Y27940D01*
X27845Y27940D01*
X27940Y27940D01*
X28035Y27940D01*
X28130Y27940D01*
X28226Y27940D01*
X28321Y27940D01*
X28416Y27940D01*
D12*
X27464Y25393D02*
X27559Y25393D01*
X27654Y25393D01*
X27749Y25393D01*
X27845Y25393D01*
X27940Y25393D01*
X28035Y25393D01*
X28130Y25393D01*
X28226Y25393D01*
X28321Y25393D01*
X28416Y25393D01*
D10*
X27240Y30280D02*
X27240Y30255D01*
X27315Y30180D01*
X27615Y30180D01*
X27690Y30255D01*
X27690Y30330D01*
X27615Y30405D01*
X27315Y30405D01*
X27240Y30480D01*
X27240Y30555D01*
X27315Y30630D01*
X27615Y30630D01*
X27690Y30555D01*
X27690Y30530D01*
D10*
X27940Y30780D02*
X27940Y30780D01*
D10*
X27890Y30630D02*
X27940Y30630D01*
X27940Y30180D01*
D10*
X27890Y30180D02*
X27990Y30180D01*
D10*
X28640Y30630D02*
X28640Y30105D01*
X28565Y30030D01*
X28315Y30030D01*
D10*
X28640Y30230D02*
X28290Y30230D01*
X28190Y30330D01*
X28190Y30505D01*
X28315Y30630D01*
X28490Y30630D01*
X28640Y30480D01*
D11*
X8993Y11116D02*
X8993Y11782D01*
X9382Y11782D01*
X9493Y11671D01*
X9493Y11560D01*
X9382Y11449D01*
X8993Y11449D01*
D11*
X9382Y11449D02*
X9493Y11338D01*
X9493Y11227D01*
X9382Y11116D01*
X8993Y11116D01*
D11*
X9799Y11616D02*
X10049Y11616D01*
X10188Y11504D01*
X10188Y11116D01*
X9827Y11116D01*
X9716Y11254D01*
X9827Y11393D01*
X10188Y11393D01*
D11*
X10493Y11782D02*
X10493Y11227D01*
X10604Y11116D01*
X10771Y11116D01*
X10854Y11199D01*
X10854Y11227D01*
D11*
X10410Y11616D02*
X10632Y11616D01*
D11*
X11216Y11116D02*
X11216Y11782D01*
X11160Y11782D01*
X11077Y11671D01*
D11*
X11077Y11116D02*
X11327Y11116D01*
D10*
X12207Y9949D02*
X12207Y12949D01*
X22207Y12949D01*
X22207Y9949D01*
X12207Y9949D01*
D10*
X11901Y10949D02*
X11901Y11949D01*
X12201Y11949D01*
X12201Y10949D01*
X11901Y10949D01*
D10*
X22283Y10699D02*
X22283Y10798D01*
X22283Y10898D01*
X22283Y10998D01*
X22283Y11098D01*
X22283Y11198D01*
X22283Y11298D01*
X22283Y11398D01*
X22283Y11498D01*
X22283Y11598D01*
X22283Y11697D01*
X22283Y11797D01*
X22283Y11897D01*
X22283Y11997D01*
X22283Y12097D01*
X22283Y12197D01*
D10*
X8255Y10877D02*
X8255Y10780D01*
X8255Y10684D01*
X8255Y10587D01*
X8255Y10490D01*
X8255Y10393D01*
X8255Y10296D01*
X8255Y10199D01*
X8255Y10102D01*
D10*
X7867Y10877D02*
X7962Y10877D01*
X8057Y10877D01*
X8153Y10877D01*
X8248Y10877D01*
X8343Y10877D01*
X8438Y10877D01*
X8534Y10877D01*
X8629Y10877D01*
D10*
X7486Y11258D02*
X7581Y11258D01*
X7676Y11258D01*
X7772Y11258D01*
X7867Y11258D01*
X7962Y11258D01*
X8057Y11258D01*
X8153Y11258D01*
X8248Y11258D01*
X8343Y11258D01*
X8438Y11258D01*
X8534Y11258D01*
X8629Y11258D01*
X8724Y11258D01*
X8819Y11258D01*
X8915Y11258D01*
X9010Y11258D01*
D13*
X8242Y8447D02*
X8242Y8543D01*
X8242Y8638D01*
X8242Y8733D01*
X8242Y8828D01*
X8242Y8924D01*
X8242Y9019D01*
X8242Y9114D01*
X8242Y9209D01*
X8242Y9305D01*
X8242Y9400D01*
D13*
X7760Y13989D02*
X7856Y13989D01*
X7951Y13989D01*
X8046Y13989D01*
X8141Y13989D01*
X8237Y13989D01*
X8332Y13989D01*
X8427Y13989D01*
X8522Y13989D01*
X8618Y13989D01*
X8713Y13989D01*
D13*
X8242Y13500D02*
X8242Y13595D01*
X8242Y13690D01*
X8242Y13785D01*
X8242Y13881D01*
X8242Y13976D01*
X8242Y14071D01*
X8242Y14166D01*
X8242Y14262D01*
X8242Y14357D01*
X8242Y14452D01*
D10*
X8255Y12803D02*
X8255Y12706D01*
X8255Y12609D01*
X8255Y12512D01*
X8255Y12415D01*
X8255Y12318D01*
X8255Y12221D01*
X8255Y12124D01*
X8255Y12027D01*
D10*
X7486Y12020D02*
X7581Y12020D01*
X7676Y12020D01*
X7772Y12020D01*
X7867Y12020D01*
X7962Y12020D01*
X8057Y12020D01*
X8153Y12020D01*
X8248Y12020D01*
X8343Y12020D01*
X8438Y12020D01*
X8534Y12020D01*
X8629Y12020D01*
X8724Y12020D01*
X8819Y12020D01*
X8915Y12020D01*
X9010Y12020D01*
D10*
X7867Y11639D02*
X7962Y11639D01*
X8057Y11639D01*
X8153Y11639D01*
X8248Y11639D01*
X8343Y11639D01*
X8438Y11639D01*
X8534Y11639D01*
X8629Y11639D01*
D10*
X8248Y11209D02*
X8248Y11304D01*
X8248Y11400D01*
X8248Y11495D01*
X8248Y11590D01*
D14*
X15740Y10532D02*
X15240Y10532D01*
X14740Y10866D01*
X14740Y10949D01*
X15240Y11282D01*
X15740Y11282D01*
D14*
X15490Y10532D02*
X15490Y11282D01*
D14*
X15740Y11616D02*
X15240Y11616D01*
X14740Y11949D01*
X14740Y12032D01*
X15240Y12366D01*
X15740Y12366D01*
D14*
X15490Y11616D02*
X15490Y12366D01*
D14*
X14266Y11116D02*
X13266Y11116D01*
X13266Y11032D01*
X13891Y10616D01*
X14058Y10616D01*
X14058Y11199D01*
D14*
X14266Y11532D02*
X14225Y11532D01*
X13558Y12282D01*
X13516Y12282D01*
D14*
X13516Y11532D02*
X13558Y11532D01*
X14225Y12282D01*
X14266Y12282D01*
D11*
X-458Y333D02*
X-458Y-250D01*
X-375Y-333D01*
X-97Y-333D01*
X-14Y-250D01*
X-14Y333D01*
D11*
X347Y-333D02*
X347Y333D01*
X292Y333D01*
X208Y222D01*
D11*
X208Y-333D02*
X458Y-333D01*
D15*
X0Y0D02*
X0Y100D01*
X0Y200D01*
X0Y300D01*
X0Y400D01*
X0Y500D01*
X0Y600D01*
X0Y700D01*
X0Y800D01*
X0Y900D01*
X0Y1000D01*
X0Y1100D01*
X0Y1200D01*
X0Y1300D01*
X0Y1400D01*
X0Y1500D01*
X0Y1600D01*
X0Y1700D01*
X0Y1800D01*
X0Y1900D01*
X0Y2000D01*
X0Y2100D01*
X0Y2200D01*
X0Y2300D01*
X0Y2400D01*
X0Y2500D01*
X0Y2600D01*
X0Y2700D01*
X0Y2800D01*
X0Y2900D01*
X0Y3000D01*
X0Y3100D01*
X0Y3200D01*
X0Y3300D01*
X0Y3400D01*
X0Y3500D01*
X0Y3600D01*
X0Y3700D01*
X0Y3800D01*
X0Y3900D01*
X0Y4000D01*
X0Y4099D01*
X0Y4199D01*
X0Y4299D01*
X0Y4399D01*
X0Y4499D01*
X0Y4599D01*
X0Y4699D01*
X0Y4799D01*
X0Y4899D01*
X0Y4999D01*
X0Y5099D01*
X0Y5199D01*
X0Y5299D01*
X0Y5399D01*
X0Y5499D01*
X0Y5599D01*
X0Y5699D01*
X0Y5799D01*
X0Y5899D01*
X0Y5999D01*
X0Y6099D01*
X0Y6199D01*
X0Y6299D01*
X0Y6399D01*
X0Y6499D01*
X0Y6599D01*
X0Y6699D01*
X0Y6799D01*
X0Y6899D01*
X0Y6999D01*
X0Y7099D01*
X0Y7199D01*
X0Y7299D01*
X0Y7399D01*
X0Y7499D01*
X0Y7599D01*
X0Y7699D01*
X0Y7799D01*
X0Y7899D01*
X0Y7999D01*
X0Y8099D01*
X0Y8199D01*
X0Y8299D01*
X0Y8399D01*
X0Y8499D01*
X0Y8599D01*
X0Y8699D01*
X0Y8799D01*
X0Y8899D01*
X0Y8999D01*
X0Y9099D01*
X0Y9199D01*
X0Y9299D01*
X0Y9399D01*
X0Y9499D01*
X0Y9599D01*
X0Y9699D01*
X0Y9799D01*
X0Y9899D01*
X0Y9999D01*
X0Y10099D01*
X0Y10199D01*
X0Y10299D01*
X0Y10399D01*
X0Y10499D01*
X0Y10599D01*
X0Y10699D01*
X0Y10799D01*
X0Y10899D01*
X0Y10999D01*
X0Y11099D01*
X0Y11199D01*
X0Y11299D01*
X0Y11399D01*
X0Y11499D01*
X0Y11599D01*
X0Y11699D01*
X0Y11799D01*
X0Y11899D01*
X0Y11999D01*
X0Y12098D01*
X0Y12198D01*
X0Y12298D01*
X0Y12398D01*
X0Y12498D01*
X0Y12598D01*
X0Y12698D01*
X0Y12798D01*
X0Y12898D01*
X0Y12998D01*
X0Y13098D01*
X0Y13198D01*
X0Y13298D01*
X0Y13398D01*
X0Y13498D01*
X0Y13598D01*
X0Y13698D01*
X0Y13798D01*
X0Y13898D01*
X0Y13998D01*
X0Y14098D01*
X0Y14198D01*
X0Y14298D01*
X0Y14398D01*
X0Y14498D01*
X0Y14598D01*
X0Y14698D01*
X0Y14798D01*
X0Y14898D01*
X0Y14998D01*
X0Y15098D01*
X0Y15198D01*
X0Y15298D01*
X0Y15398D01*
X0Y15498D01*
X0Y15598D01*
X0Y15698D01*
X0Y15798D01*
X0Y15898D01*
X0Y15998D01*
X0Y16098D01*
X0Y16198D01*
X0Y16298D01*
X0Y16398D01*
X0Y16498D01*
X0Y16598D01*
X0Y16698D01*
X0Y16798D01*
X0Y16898D01*
X0Y16998D01*
X0Y17098D01*
X0Y17198D01*
X0Y17298D01*
X0Y17398D01*
X0Y17498D01*
X0Y17598D01*
X0Y17698D01*
X0Y17798D01*
X0Y17898D01*
X0Y17998D01*
X0Y18098D01*
X0Y18198D01*
X0Y18298D01*
X0Y18398D01*
X0Y18498D01*
X0Y18598D01*
X0Y18698D01*
X0Y18798D01*
X0Y18898D01*
X0Y18998D01*
X0Y19098D01*
X0Y19198D01*
X0Y19298D01*
X0Y19398D01*
X0Y19498D01*
X0Y19598D01*
X0Y19698D01*
X0Y19798D01*
X0Y19898D01*
X0Y19998D01*
X0Y20098D01*
X0Y20197D01*
X0Y20297D01*
X0Y20397D01*
X0Y20497D01*
X0Y20597D01*
X0Y20697D01*
X0Y20797D01*
X0Y20897D01*
X0Y20997D01*
X0Y21097D01*
X0Y21197D01*
X0Y21297D01*
X0Y21397D01*
X0Y21497D01*
X0Y21597D01*
X0Y21697D01*
X0Y21797D01*
X0Y21897D01*
X0Y21997D01*
X0Y22097D01*
X0Y22197D01*
X0Y22297D01*
X0Y22397D01*
X0Y22497D01*
X0Y22597D01*
X0Y22697D01*
X0Y22797D01*
X0Y22897D01*
X0Y22997D01*
X0Y23097D01*
X0Y23197D01*
X0Y23297D01*
X0Y23397D01*
X0Y23497D01*
X0Y23597D01*
X0Y23697D01*
X0Y23797D01*
X0Y23897D01*
X0Y23997D01*
X0Y24097D01*
X0Y24197D01*
X0Y24297D01*
X0Y24397D01*
X0Y24497D01*
X0Y24597D01*
X0Y24697D01*
X0Y24797D01*
X0Y24897D01*
X0Y24997D01*
X0Y25097D01*
X0Y25197D01*
X0Y25297D01*
X0Y25397D01*
X0Y25497D01*
X0Y25597D01*
X0Y25697D01*
X0Y25797D01*
X0Y25897D01*
X0Y25997D01*
X0Y26097D01*
X0Y26197D01*
X0Y26297D01*
X0Y26397D01*
X0Y26497D01*
X0Y26597D01*
X0Y26697D01*
X0Y26797D01*
X0Y26897D01*
X0Y26997D01*
X0Y27097D01*
X0Y27197D01*
X0Y27297D01*
X0Y27397D01*
X0Y27497D01*
X0Y27597D01*
X0Y27697D01*
X0Y27797D01*
X0Y27897D01*
X0Y27997D01*
X0Y28097D01*
X0Y28197D01*
X0Y28297D01*
X0Y28397D01*
X0Y28496D01*
X0Y28596D01*
X0Y28696D01*
X0Y28796D01*
X0Y28896D01*
X0Y28996D01*
X0Y29096D01*
X0Y29196D01*
X0Y29296D01*
X0Y29396D01*
X0Y29496D01*
X0Y29596D01*
X0Y29696D01*
X0Y29796D01*
X0Y29896D01*
X0Y29996D01*
X0Y30096D01*
X0Y30196D01*
X0Y30296D01*
X0Y30396D01*
X0Y30496D01*
X0Y30596D01*
X0Y30696D01*
X0Y30796D01*
X0Y30896D01*
X0Y30996D01*
X0Y31096D01*
X0Y31196D01*
X0Y31296D01*
X0Y31396D01*
X0Y31496D01*
X0Y31596D01*
X0Y31696D01*
X0Y31796D01*
X0Y31896D01*
X0Y31996D01*
X0Y32096D01*
X0Y32196D01*
X0Y32296D01*
X0Y32396D01*
X0Y32496D01*
X0Y32596D01*
X0Y32696D01*
X0Y32796D01*
X0Y32896D01*
X0Y32996D01*
X0Y33096D01*
X0Y33196D01*
X0Y33296D01*
X0Y33396D01*
X0Y33496D01*
X0Y33596D01*
X0Y33696D01*
X0Y33796D01*
X0Y33896D01*
X0Y33996D01*
X0Y34096D01*
X0Y34196D01*
X0Y34296D01*
X0Y34396D01*
X0Y34496D01*
X0Y34596D01*
X0Y34696D01*
X0Y34796D01*
X0Y34896D01*
X0Y34996D01*
X0Y35096D01*
X0Y35196D01*
X0Y35296D01*
X0Y35396D01*
X0Y35496D01*
X0Y35596D01*
X0Y35696D01*
X0Y35796D01*
X0Y35896D01*
X0Y35996D01*
X0Y36096D01*
X0Y36196D01*
X0Y36296D01*
X0Y36396D01*
X0Y36496D01*
X0Y36596D01*
X0Y36696D01*
X0Y36795D01*
X0Y36895D01*
X0Y36995D01*
X0Y37095D01*
X0Y37195D01*
X0Y37295D01*
X0Y37395D01*
X0Y37495D01*
X0Y37595D01*
X0Y37695D01*
X0Y37795D01*
X0Y37895D01*
X0Y37995D01*
X0Y38095D01*
X0Y38195D01*
X0Y38295D01*
X0Y38395D01*
X0Y38495D01*
X0Y38595D01*
X0Y38695D01*
X0Y38795D01*
X0Y38895D01*
X0Y38995D01*
X0Y39095D01*
X0Y39195D01*
X0Y39295D01*
X0Y39395D01*
X0Y39495D01*
X0Y39595D01*
X0Y39695D01*
X0Y39795D01*
X0Y39895D01*
X0Y39995D01*
X0Y40095D01*
X0Y40195D01*
X0Y40295D01*
X0Y40395D01*
X0Y40495D01*
X0Y40595D01*
X0Y40695D01*
X0Y40795D01*
X0Y40895D01*
X0Y40995D01*
X0Y41095D01*
X0Y41195D01*
X0Y41295D01*
X0Y41395D01*
X0Y41495D01*
X0Y41595D01*
X0Y41695D01*
X0Y41795D01*
X0Y41895D01*
X0Y41995D01*
X0Y42095D01*
X0Y42195D01*
X0Y42295D01*
X0Y42395D01*
X0Y42495D01*
X0Y42595D01*
X0Y42695D01*
X0Y42795D01*
X0Y42895D01*
X0Y42995D01*
X0Y43095D01*
X0Y43195D01*
X0Y43295D01*
X0Y43395D01*
X0Y43495D01*
X0Y43595D01*
X0Y43695D01*
X0Y43795D01*
X0Y43895D01*
X0Y43995D01*
X0Y44095D01*
X0Y44195D01*
X0Y44295D01*
X0Y44395D01*
X0Y44495D01*
X0Y44595D01*
X0Y44695D01*
X0Y44795D01*
X0Y44895D01*
X0Y44995D01*
X0Y45095D01*
X0Y45195D01*
X0Y45294D01*
X0Y45394D01*
X0Y45494D01*
X0Y45594D01*
X0Y45694D01*
X0Y45794D01*
X0Y45894D01*
X0Y45994D01*
X0Y46094D01*
X0Y46194D01*
X0Y46294D01*
X0Y46394D01*
X0Y46494D01*
X0Y46594D01*
X0Y46694D01*
X0Y46794D01*
X0Y46894D01*
X0Y46994D01*
X0Y47094D01*
X0Y47194D01*
X0Y47294D01*
X0Y47394D01*
X0Y47494D01*
X0Y47594D01*
X0Y47694D01*
X0Y47794D01*
X0Y47894D01*
X0Y47994D01*
X0Y48094D01*
X0Y48194D01*
X0Y48294D01*
X0Y48394D01*
X0Y48494D01*
X0Y48594D01*
X0Y48694D01*
X0Y48794D01*
X0Y48894D01*
X0Y48994D01*
X0Y49094D01*
X0Y49194D01*
X0Y49294D01*
X0Y49394D01*
X0Y49494D01*
X0Y49594D01*
X0Y49694D01*
X0Y49794D01*
X0Y49894D01*
X0Y49994D01*
X0Y50094D01*
X0Y50194D01*
X0Y50294D01*
X0Y50394D01*
X0Y50494D01*
X0Y50594D01*
X0Y50694D01*
X0Y50794D01*
X0Y50894D01*
X0Y50994D01*
X0Y51094D01*
X0Y51194D01*
X0Y51294D01*
X0Y51394D01*
X0Y51494D01*
X0Y51594D01*
X0Y51694D01*
X0Y51794D01*
X0Y51894D01*
X0Y51994D01*
X0Y52094D01*
X0Y52194D01*
X0Y52294D01*
X0Y52394D01*
X0Y52494D01*
X0Y52594D01*
X0Y52694D01*
X0Y52794D01*
X0Y52894D01*
X0Y52994D01*
X0Y53094D01*
X0Y53194D01*
X0Y53294D01*
X54Y53340D01*
X154Y53340D01*
X254Y53340D01*
X354Y53340D01*
X454Y53340D01*
X554Y53340D01*
X654Y53340D01*
X754Y53340D01*
X854Y53340D01*
X954Y53340D01*
X1054Y53340D01*
X1154Y53340D01*
X1254Y53340D01*
X1353Y53340D01*
X1453Y53340D01*
X1553Y53340D01*
X1653Y53340D01*
X1753Y53340D01*
X1853Y53340D01*
X1953Y53340D01*
X2053Y53340D01*
X2153Y53340D01*
X2253Y53340D01*
X2353Y53340D01*
X2453Y53340D01*
X2553Y53340D01*
X2653Y53340D01*
X2753Y53340D01*
X2853Y53340D01*
X2953Y53340D01*
X3053Y53340D01*
X3153Y53340D01*
X3253Y53340D01*
X3353Y53340D01*
X3453Y53340D01*
X3553Y53340D01*
X3653Y53340D01*
X3753Y53340D01*
X3853Y53340D01*
X3953Y53340D01*
X4053Y53340D01*
X4153Y53340D01*
X4253Y53340D01*
X4353Y53340D01*
X4453Y53340D01*
X4553Y53340D01*
X4653Y53340D01*
X4753Y53340D01*
X4853Y53340D01*
X4953Y53340D01*
X5053Y53340D01*
X5153Y53340D01*
X5253Y53340D01*
X5353Y53340D01*
X5453Y53340D01*
X5553Y53340D01*
X5653Y53340D01*
X5753Y53340D01*
X5853Y53340D01*
X5953Y53340D01*
X6053Y53340D01*
X6153Y53340D01*
X6253Y53340D01*
X6353Y53340D01*
X6453Y53340D01*
X6553Y53340D01*
X6653Y53340D01*
X6753Y53340D01*
X6853Y53340D01*
X6953Y53340D01*
X7053Y53340D01*
X7153Y53340D01*
X7253Y53340D01*
X7353Y53340D01*
X7453Y53340D01*
X7553Y53340D01*
X7653Y53340D01*
X7753Y53340D01*
X7853Y53340D01*
X7953Y53340D01*
X8053Y53340D01*
X8153Y53340D01*
X8253Y53340D01*
X8353Y53340D01*
X8453Y53340D01*
X8553Y53340D01*
X8653Y53340D01*
X8753Y53340D01*
X8853Y53340D01*
X8953Y53340D01*
X9053Y53340D01*
X9153Y53340D01*
X9253Y53340D01*
X9352Y53340D01*
X9452Y53340D01*
X9552Y53340D01*
X9652Y53340D01*
X9752Y53340D01*
X9852Y53340D01*
X9952Y53340D01*
X10052Y53340D01*
X10152Y53340D01*
X10252Y53340D01*
X10352Y53340D01*
X10452Y53340D01*
X10552Y53340D01*
X10652Y53340D01*
X10752Y53340D01*
X10852Y53340D01*
X10952Y53340D01*
X11052Y53340D01*
X11152Y53340D01*
X11252Y53340D01*
X11352Y53340D01*
X11452Y53340D01*
X11552Y53340D01*
X11652Y53340D01*
X11752Y53340D01*
X11852Y53340D01*
X11952Y53340D01*
X12052Y53340D01*
X12152Y53340D01*
X12252Y53340D01*
X12352Y53340D01*
X12452Y53340D01*
X12552Y53340D01*
X12652Y53340D01*
X12752Y53340D01*
X12852Y53340D01*
X12952Y53340D01*
X13052Y53340D01*
X13152Y53340D01*
X13252Y53340D01*
X13352Y53340D01*
X13452Y53340D01*
X13552Y53340D01*
X13652Y53340D01*
X13752Y53340D01*
X13852Y53340D01*
X13952Y53340D01*
X14052Y53340D01*
X14152Y53340D01*
X14252Y53340D01*
X14352Y53340D01*
X14452Y53340D01*
X14552Y53340D01*
X14652Y53340D01*
X14752Y53340D01*
X14852Y53340D01*
X14952Y53340D01*
X15052Y53340D01*
X15152Y53340D01*
X15252Y53340D01*
X15352Y53340D01*
X15452Y53340D01*
X15552Y53340D01*
X15652Y53340D01*
X15752Y53340D01*
X15852Y53340D01*
X15952Y53340D01*
X16052Y53340D01*
X16152Y53340D01*
X16252Y53340D01*
X16352Y53340D01*
X16452Y53340D01*
X16552Y53340D01*
X16652Y53340D01*
X16752Y53340D01*
X16852Y53340D01*
X16952Y53340D01*
X17052Y53340D01*
X17152Y53340D01*
X17252Y53340D01*
X17352Y53340D01*
X17452Y53340D01*
X17551Y53340D01*
X17651Y53340D01*
X17751Y53340D01*
X17851Y53340D01*
X17951Y53340D01*
X18051Y53340D01*
X18151Y53340D01*
X18251Y53340D01*
X18351Y53340D01*
X18451Y53340D01*
X18551Y53340D01*
X18651Y53340D01*
X18751Y53340D01*
X18851Y53340D01*
X18951Y53340D01*
X19051Y53340D01*
X19151Y53340D01*
X19251Y53340D01*
X19351Y53340D01*
X19451Y53340D01*
X19551Y53340D01*
X19651Y53340D01*
X19751Y53340D01*
X19851Y53340D01*
X19951Y53340D01*
X20051Y53340D01*
X20151Y53340D01*
X20251Y53340D01*
X20351Y53340D01*
X20451Y53340D01*
X20551Y53340D01*
X20651Y53340D01*
X20751Y53340D01*
X20851Y53340D01*
X20951Y53340D01*
X21051Y53340D01*
X21151Y53340D01*
X21251Y53340D01*
X21351Y53340D01*
X21451Y53340D01*
X21551Y53340D01*
X21651Y53340D01*
X21751Y53340D01*
X21851Y53340D01*
X21951Y53340D01*
X22051Y53340D01*
X22151Y53340D01*
X22251Y53340D01*
X22351Y53340D01*
X22451Y53340D01*
X22551Y53340D01*
X22651Y53340D01*
X22751Y53340D01*
X22851Y53340D01*
X22951Y53340D01*
X23051Y53340D01*
X23151Y53340D01*
X23251Y53340D01*
X23351Y53340D01*
X23451Y53340D01*
X23551Y53340D01*
X23651Y53340D01*
X23751Y53340D01*
X23851Y53340D01*
X23951Y53340D01*
X24051Y53340D01*
X24151Y53340D01*
X24251Y53340D01*
X24351Y53340D01*
X24451Y53340D01*
X24551Y53340D01*
X24651Y53340D01*
X24751Y53340D01*
X24851Y53340D01*
X24951Y53340D01*
X25051Y53340D01*
X25151Y53340D01*
X25251Y53340D01*
X25351Y53340D01*
X25451Y53340D01*
X25551Y53340D01*
X25650Y53340D01*
X25750Y53340D01*
X25850Y53340D01*
X25950Y53340D01*
X26050Y53340D01*
X26150Y53340D01*
X26250Y53340D01*
X26350Y53340D01*
X26450Y53340D01*
X26550Y53340D01*
X26650Y53340D01*
X26750Y53340D01*
X26850Y53340D01*
X26950Y53340D01*
X27050Y53340D01*
X27150Y53340D01*
X27250Y53340D01*
X27350Y53340D01*
X27450Y53340D01*
X27550Y53340D01*
X27650Y53340D01*
X27750Y53340D01*
X27850Y53340D01*
X27950Y53340D01*
X28050Y53340D01*
X28150Y53340D01*
X28250Y53340D01*
X28350Y53340D01*
X28450Y53340D01*
X28550Y53340D01*
X28650Y53340D01*
X28750Y53340D01*
X28850Y53340D01*
X28950Y53340D01*
X29050Y53340D01*
X29150Y53340D01*
X29250Y53340D01*
X29350Y53340D01*
X29450Y53340D01*
X29550Y53340D01*
X29650Y53340D01*
X29750Y53340D01*
X29850Y53340D01*
X29950Y53340D01*
X30050Y53340D01*
X30150Y53340D01*
X30250Y53340D01*
X30350Y53340D01*
X30450Y53340D01*
X30550Y53340D01*
X30650Y53340D01*
X30750Y53340D01*
X30850Y53340D01*
X30950Y53340D01*
X31050Y53340D01*
X31150Y53340D01*
X31250Y53340D01*
X31350Y53340D01*
X31450Y53340D01*
X31550Y53340D01*
X31650Y53340D01*
X31750Y53340D01*
X31850Y53340D01*
X31950Y53340D01*
X32050Y53340D01*
X32150Y53340D01*
X32250Y53340D01*
X32350Y53340D01*
X32450Y53340D01*
X32550Y53340D01*
X32650Y53340D01*
X32750Y53340D01*
X32850Y53340D01*
X32950Y53340D01*
X33050Y53340D01*
X33150Y53340D01*
X33250Y53340D01*
X33350Y53340D01*
X33450Y53340D01*
X33550Y53340D01*
X33650Y53340D01*
X33750Y53340D01*
X33849Y53340D01*
X33949Y53340D01*
X34049Y53340D01*
X34149Y53340D01*
X34249Y53340D01*
X34349Y53340D01*
X34449Y53340D01*
X34549Y53340D01*
X34649Y53340D01*
X34749Y53340D01*
X34849Y53340D01*
X34949Y53340D01*
X35049Y53340D01*
X35149Y53340D01*
X35249Y53340D01*
X35349Y53340D01*
X35449Y53340D01*
X35549Y53340D01*
X35649Y53340D01*
X35749Y53340D01*
X35849Y53340D01*
X35949Y53340D01*
X36049Y53340D01*
X36149Y53340D01*
X36249Y53340D01*
X36349Y53340D01*
X36449Y53340D01*
X36549Y53340D01*
X36649Y53340D01*
X36749Y53340D01*
X36849Y53340D01*
X36949Y53340D01*
X37049Y53340D01*
X37149Y53340D01*
X37249Y53340D01*
X37349Y53340D01*
X37449Y53340D01*
X37549Y53340D01*
X37649Y53340D01*
X37749Y53340D01*
X37849Y53340D01*
X37949Y53340D01*
X38049Y53340D01*
X38149Y53340D01*
X38249Y53340D01*
X38349Y53340D01*
X38449Y53340D01*
X38549Y53340D01*
X38649Y53340D01*
X38749Y53340D01*
X38849Y53340D01*
X38949Y53340D01*
X39049Y53340D01*
X39149Y53340D01*
X39249Y53340D01*
X39349Y53340D01*
X39449Y53340D01*
X39549Y53340D01*
X39649Y53340D01*
X39749Y53340D01*
X39849Y53340D01*
X39949Y53340D01*
X40049Y53340D01*
X40149Y53340D01*
X40249Y53340D01*
X40349Y53340D01*
X40449Y53340D01*
X40549Y53340D01*
X40649Y53340D01*
X40749Y53340D01*
X40849Y53340D01*
X40949Y53340D01*
X41049Y53340D01*
X41149Y53340D01*
X41249Y53340D01*
X41349Y53340D01*
X41449Y53340D01*
X41549Y53340D01*
X41649Y53340D01*
X41749Y53340D01*
X41849Y53340D01*
X41949Y53340D01*
X42049Y53340D01*
X42148Y53340D01*
X42248Y53340D01*
X42348Y53340D01*
X42448Y53340D01*
X42548Y53340D01*
X42648Y53340D01*
X42748Y53340D01*
X42848Y53340D01*
X42948Y53340D01*
X43048Y53340D01*
X43148Y53340D01*
X43248Y53340D01*
X43348Y53340D01*
X43448Y53340D01*
X43548Y53340D01*
X43648Y53340D01*
X43748Y53340D01*
X43848Y53340D01*
X43948Y53340D01*
X44048Y53340D01*
X44148Y53340D01*
X44248Y53340D01*
X44348Y53340D01*
X44448Y53340D01*
X44548Y53340D01*
X44648Y53340D01*
X44748Y53340D01*
X44848Y53340D01*
X44948Y53340D01*
X45048Y53340D01*
X45148Y53340D01*
X45248Y53340D01*
X45348Y53340D01*
X45448Y53340D01*
X45548Y53340D01*
X45648Y53340D01*
X45748Y53340D01*
X45848Y53340D01*
X45948Y53340D01*
X46048Y53340D01*
X46148Y53340D01*
X46248Y53340D01*
X46348Y53340D01*
X46448Y53340D01*
X46548Y53340D01*
X46648Y53340D01*
X46748Y53340D01*
X46848Y53340D01*
X46948Y53340D01*
X47048Y53340D01*
X47148Y53340D01*
X47248Y53340D01*
X47348Y53340D01*
X47448Y53340D01*
X47548Y53340D01*
X47648Y53340D01*
X47748Y53340D01*
X47848Y53340D01*
X47948Y53340D01*
X48048Y53340D01*
X48148Y53340D01*
X48248Y53340D01*
X48348Y53340D01*
X48448Y53340D01*
X48548Y53340D01*
X48648Y53340D01*
X48748Y53340D01*
X48848Y53340D01*
X48948Y53340D01*
X49048Y53340D01*
X49148Y53340D01*
X49248Y53340D01*
X49348Y53340D01*
X49448Y53340D01*
X49548Y53340D01*
X49648Y53340D01*
X49748Y53340D01*
X49848Y53340D01*
X49948Y53340D01*
X50048Y53340D01*
X50148Y53340D01*
X50248Y53340D01*
X50348Y53340D01*
X50448Y53340D01*
X50547Y53340D01*
X50647Y53340D01*
X50747Y53340D01*
X50847Y53340D01*
X50947Y53340D01*
X51047Y53340D01*
X51147Y53340D01*
X51247Y53340D01*
X51347Y53340D01*
X51447Y53340D01*
X51547Y53340D01*
X51647Y53340D01*
X51747Y53340D01*
X51847Y53340D01*
X51947Y53340D01*
X52047Y53340D01*
X52147Y53340D01*
X52247Y53340D01*
X52347Y53340D01*
X52447Y53340D01*
X52547Y53340D01*
X52647Y53340D01*
X52747Y53340D01*
X52847Y53340D01*
X52947Y53340D01*
X53047Y53340D01*
X53147Y53340D01*
X53247Y53340D01*
X53347Y53340D01*
X53447Y53340D01*
X53547Y53340D01*
X53647Y53340D01*
X53747Y53340D01*
X53847Y53340D01*
X53947Y53340D01*
X54047Y53340D01*
X54147Y53340D01*
X54247Y53340D01*
X54347Y53340D01*
X54447Y53340D01*
X54547Y53340D01*
X54647Y53340D01*
X54747Y53340D01*
X54847Y53340D01*
X54947Y53340D01*
X55047Y53340D01*
X55147Y53340D01*
X55247Y53340D01*
X55347Y53340D01*
X55447Y53340D01*
X55547Y53340D01*
X55647Y53340D01*
X55747Y53340D01*
X55847Y53340D01*
X55947Y53340D01*
X56047Y53340D01*
X56147Y53340D01*
X56247Y53340D01*
X56347Y53340D01*
X56447Y53340D01*
X56547Y53340D01*
X56647Y53340D01*
X56747Y53340D01*
X56847Y53340D01*
X56947Y53340D01*
X57047Y53340D01*
X57147Y53340D01*
X57247Y53340D01*
X57347Y53340D01*
X57447Y53340D01*
X57547Y53340D01*
X57647Y53340D01*
X57747Y53340D01*
X57847Y53340D01*
X57947Y53340D01*
X58047Y53340D01*
X58147Y53340D01*
X58247Y53340D01*
X58347Y53340D01*
X58447Y53340D01*
X58547Y53340D01*
X58647Y53340D01*
X58747Y53340D01*
X58847Y53340D01*
X58947Y53340D01*
X59047Y53340D01*
X59146Y53340D01*
X59246Y53340D01*
X59346Y53340D01*
X59446Y53340D01*
X59546Y53340D01*
X59646Y53340D01*
X59746Y53340D01*
X59846Y53340D01*
X59946Y53340D01*
X60046Y53340D01*
X60146Y53340D01*
X60246Y53340D01*
X60346Y53340D01*
X60446Y53340D01*
X60546Y53340D01*
X60646Y53340D01*
X60746Y53340D01*
X60846Y53340D01*
X60946Y53340D01*
X61046Y53340D01*
X61146Y53340D01*
X61246Y53340D01*
X61346Y53340D01*
X61446Y53340D01*
X61546Y53340D01*
X61646Y53340D01*
X61746Y53340D01*
X61846Y53340D01*
X61946Y53340D01*
X62046Y53340D01*
X62146Y53340D01*
X62246Y53340D01*
X62346Y53340D01*
X62446Y53340D01*
X62546Y53340D01*
X62646Y53340D01*
X62746Y53340D01*
X62846Y53340D01*
X62946Y53340D01*
X63046Y53340D01*
X63146Y53340D01*
X63246Y53340D01*
X63346Y53340D01*
X63446Y53340D01*
X63546Y53340D01*
X63646Y53340D01*
X63746Y53340D01*
X63846Y53340D01*
X63946Y53340D01*
X64046Y53340D01*
X64146Y53340D01*
X64246Y53340D01*
X64346Y53340D01*
X64446Y53340D01*
X64537Y53319D01*
X64608Y53248D01*
X64679Y53177D01*
X64749Y53107D01*
X64820Y53036D01*
X64891Y52965D01*
X64961Y52895D01*
X65032Y52824D01*
X65103Y52753D01*
X65174Y52682D01*
X65244Y52612D01*
X65315Y52541D01*
X65386Y52470D01*
X65456Y52400D01*
X65527Y52329D01*
X65598Y52258D01*
X65668Y52188D01*
X65739Y52117D01*
X65810Y52046D01*
X65881Y51975D01*
X65951Y51905D01*
X66022Y51834D01*
X66040Y51742D01*
X66040Y51642D01*
X66040Y51542D01*
X66040Y51442D01*
X66040Y51342D01*
X66040Y51242D01*
X66040Y51142D01*
X66040Y51042D01*
X66040Y50942D01*
X66040Y50842D01*
X66040Y50742D01*
X66040Y50642D01*
X66040Y50542D01*
X66040Y50442D01*
X66040Y50342D01*
X66040Y50242D01*
X66040Y50142D01*
X66040Y50042D01*
X66040Y49942D01*
X66040Y49842D01*
X66040Y49742D01*
X66040Y49642D01*
X66040Y49542D01*
X66040Y49442D01*
X66040Y49342D01*
X66040Y49242D01*
X66040Y49142D01*
X66040Y49042D01*
X66040Y48942D01*
X66040Y48842D01*
X66040Y48742D01*
X66040Y48642D01*
X66040Y48542D01*
X66040Y48442D01*
X66040Y48342D01*
X66040Y48242D01*
X66040Y48142D01*
X66040Y48042D01*
X66040Y47942D01*
X66040Y47842D01*
X66040Y47742D01*
X66040Y47642D01*
X66040Y47542D01*
X66040Y47442D01*
X66040Y47342D01*
X66040Y47242D01*
X66040Y47142D01*
X66040Y47042D01*
X66040Y46942D01*
X66040Y46842D01*
X66040Y46742D01*
X66040Y46642D01*
X66040Y46542D01*
X66040Y46442D01*
X66040Y46342D01*
X66040Y46242D01*
X66040Y46142D01*
X66040Y46042D01*
X66040Y45942D01*
X66040Y45842D01*
X66040Y45742D01*
X66040Y45642D01*
X66040Y45542D01*
X66040Y45442D01*
X66040Y45342D01*
X66040Y45242D01*
X66040Y45142D01*
X66040Y45042D01*
X66040Y44942D01*
X66040Y44842D01*
X66040Y44742D01*
X66040Y44642D01*
X66040Y44542D01*
X66040Y44442D01*
X66040Y44342D01*
X66040Y44242D01*
X66040Y44142D01*
X66040Y44042D01*
X66040Y43942D01*
X66040Y43843D01*
X66040Y43743D01*
X66040Y43643D01*
X66040Y43543D01*
X66040Y43443D01*
X66040Y43343D01*
X66040Y43243D01*
X66040Y43143D01*
X66040Y43043D01*
X66040Y42943D01*
X66040Y42843D01*
X66040Y42743D01*
X66040Y42643D01*
X66040Y42543D01*
X66040Y42443D01*
X66040Y42343D01*
X66040Y42243D01*
X66040Y42143D01*
X66040Y42043D01*
X66040Y41943D01*
X66040Y41843D01*
X66040Y41743D01*
X66040Y41643D01*
X66040Y41543D01*
X66040Y41443D01*
X66040Y41343D01*
X66040Y41243D01*
X66040Y41143D01*
X66040Y41043D01*
X66040Y40943D01*
X66040Y40843D01*
X66040Y40743D01*
X66040Y40643D01*
X66040Y40543D01*
X66040Y40443D01*
X66070Y40356D01*
X66141Y40285D01*
X66212Y40214D01*
X66283Y40143D01*
X66353Y40073D01*
X66424Y40002D01*
X66495Y39931D01*
X66565Y39861D01*
X66636Y39790D01*
X66707Y39719D01*
X66777Y39649D01*
X66848Y39578D01*
X66919Y39507D01*
X66990Y39436D01*
X67060Y39366D01*
X67131Y39295D01*
X67202Y39224D01*
X67272Y39154D01*
X67343Y39083D01*
X67414Y39012D01*
X67485Y38941D01*
X67555Y38871D01*
X67626Y38800D01*
X67697Y38729D01*
X67767Y38659D01*
X67838Y38588D01*
X67909Y38517D01*
X67979Y38447D01*
X68050Y38376D01*
X68121Y38305D01*
X68192Y38234D01*
X68262Y38164D01*
X68333Y38093D01*
X68404Y38022D01*
X68474Y37952D01*
X68545Y37881D01*
X68580Y37795D01*
X68580Y37695D01*
X68580Y37595D01*
X68580Y37495D01*
X68580Y37395D01*
X68580Y37295D01*
X68580Y37196D01*
X68580Y37096D01*
X68580Y36996D01*
X68580Y36896D01*
X68580Y36796D01*
X68580Y36696D01*
X68580Y36596D01*
X68580Y36496D01*
X68580Y36396D01*
X68580Y36296D01*
X68580Y36196D01*
X68580Y36096D01*
X68580Y35996D01*
X68580Y35896D01*
X68580Y35796D01*
X68580Y35696D01*
X68580Y35596D01*
X68580Y35496D01*
X68580Y35396D01*
X68580Y35296D01*
X68580Y35196D01*
X68580Y35096D01*
X68580Y34996D01*
X68580Y34896D01*
X68580Y34796D01*
X68580Y34696D01*
X68580Y34596D01*
X68580Y34496D01*
X68580Y34396D01*
X68580Y34296D01*
X68580Y34196D01*
X68580Y34096D01*
X68580Y33996D01*
X68580Y33896D01*
X68580Y33796D01*
X68580Y33696D01*
X68580Y33596D01*
X68580Y33496D01*
X68580Y33396D01*
X68580Y33296D01*
X68580Y33196D01*
X68580Y33096D01*
X68580Y32996D01*
X68580Y32896D01*
X68580Y32796D01*
X68580Y32696D01*
X68580Y32596D01*
X68580Y32496D01*
X68580Y32396D01*
X68580Y32296D01*
X68580Y32196D01*
X68580Y32096D01*
X68580Y31996D01*
X68580Y31896D01*
X68580Y31796D01*
X68580Y31696D01*
X68580Y31596D01*
X68580Y31496D01*
X68580Y31396D01*
X68580Y31296D01*
X68580Y31196D01*
X68580Y31096D01*
X68580Y30996D01*
X68580Y30896D01*
X68580Y30796D01*
X68580Y30696D01*
X68580Y30596D01*
X68580Y30496D01*
X68580Y30396D01*
X68580Y30296D01*
X68580Y30196D01*
X68580Y30096D01*
X68580Y29996D01*
X68580Y29896D01*
X68580Y29796D01*
X68580Y29696D01*
X68580Y29596D01*
X68580Y29496D01*
X68580Y29396D01*
X68580Y29296D01*
X68580Y29196D01*
X68580Y29097D01*
X68580Y28997D01*
X68580Y28897D01*
X68580Y28797D01*
X68580Y28697D01*
X68580Y28597D01*
X68580Y28497D01*
X68580Y28397D01*
X68580Y28297D01*
X68580Y28197D01*
X68580Y28097D01*
X68580Y27997D01*
X68580Y27897D01*
X68580Y27797D01*
X68580Y27697D01*
X68580Y27597D01*
X68580Y27497D01*
X68580Y27397D01*
X68580Y27297D01*
X68580Y27197D01*
X68580Y27097D01*
X68580Y26997D01*
X68580Y26897D01*
X68580Y26797D01*
X68580Y26697D01*
X68580Y26597D01*
X68580Y26497D01*
X68580Y26397D01*
X68580Y26297D01*
X68580Y26197D01*
X68580Y26097D01*
X68580Y25997D01*
X68580Y25897D01*
X68580Y25797D01*
X68580Y25697D01*
X68580Y25597D01*
X68580Y25497D01*
X68580Y25397D01*
X68580Y25297D01*
X68580Y25197D01*
X68580Y25097D01*
X68580Y24997D01*
X68580Y24897D01*
X68580Y24797D01*
X68580Y24697D01*
X68580Y24597D01*
X68580Y24497D01*
X68580Y24397D01*
X68580Y24297D01*
X68580Y24197D01*
X68580Y24097D01*
X68580Y23997D01*
X68580Y23897D01*
X68580Y23797D01*
X68580Y23697D01*
X68580Y23597D01*
X68580Y23497D01*
X68580Y23397D01*
X68580Y23297D01*
X68580Y23197D01*
X68580Y23097D01*
X68580Y22997D01*
X68580Y22897D01*
X68580Y22797D01*
X68580Y22697D01*
X68580Y22597D01*
X68580Y22497D01*
X68580Y22397D01*
X68580Y22297D01*
X68580Y22197D01*
X68580Y22097D01*
X68580Y21997D01*
X68580Y21897D01*
X68580Y21797D01*
X68580Y21697D01*
X68580Y21597D01*
X68580Y21497D01*
X68580Y21397D01*
X68580Y21297D01*
X68580Y21197D01*
X68580Y21097D01*
X68580Y20997D01*
X68580Y20898D01*
X68580Y20798D01*
X68580Y20698D01*
X68580Y20598D01*
X68580Y20498D01*
X68580Y20398D01*
X68580Y20298D01*
X68580Y20198D01*
X68580Y20098D01*
X68580Y19998D01*
X68580Y19898D01*
X68580Y19798D01*
X68580Y19698D01*
X68580Y19598D01*
X68580Y19498D01*
X68580Y19398D01*
X68580Y19298D01*
X68580Y19198D01*
X68580Y19098D01*
X68580Y18998D01*
X68580Y18898D01*
X68580Y18798D01*
X68580Y18698D01*
X68580Y18598D01*
X68580Y18498D01*
X68580Y18398D01*
X68580Y18298D01*
X68580Y18198D01*
X68580Y18098D01*
X68580Y17998D01*
X68580Y17898D01*
X68580Y17798D01*
X68580Y17698D01*
X68580Y17598D01*
X68580Y17498D01*
X68580Y17398D01*
X68580Y17298D01*
X68580Y17198D01*
X68580Y17098D01*
X68580Y16998D01*
X68580Y16898D01*
X68580Y16798D01*
X68580Y16698D01*
X68580Y16598D01*
X68580Y16498D01*
X68580Y16398D01*
X68580Y16298D01*
X68580Y16198D01*
X68580Y16098D01*
X68580Y15998D01*
X68580Y15898D01*
X68580Y15798D01*
X68580Y15698D01*
X68580Y15598D01*
X68580Y15498D01*
X68580Y15398D01*
X68580Y15298D01*
X68580Y15198D01*
X68580Y15098D01*
X68580Y14998D01*
X68580Y14898D01*
X68580Y14798D01*
X68580Y14698D01*
X68580Y14598D01*
X68580Y14498D01*
X68580Y14398D01*
X68580Y14298D01*
X68580Y14198D01*
X68580Y14098D01*
X68580Y13998D01*
X68580Y13898D01*
X68580Y13798D01*
X68580Y13698D01*
X68580Y13598D01*
X68580Y13498D01*
X68580Y13398D01*
X68580Y13298D01*
X68580Y13198D01*
X68580Y13098D01*
X68580Y12998D01*
X68580Y12898D01*
X68580Y12798D01*
X68580Y12698D01*
X68580Y12599D01*
X68580Y12499D01*
X68580Y12399D01*
X68580Y12299D01*
X68580Y12199D01*
X68580Y12099D01*
X68580Y11999D01*
X68580Y11899D01*
X68580Y11799D01*
X68580Y11699D01*
X68580Y11599D01*
X68580Y11499D01*
X68580Y11399D01*
X68580Y11299D01*
X68580Y11199D01*
X68580Y11099D01*
X68580Y10999D01*
X68580Y10899D01*
X68580Y10799D01*
X68580Y10699D01*
X68580Y10599D01*
X68580Y10499D01*
X68580Y10399D01*
X68580Y10299D01*
X68580Y10199D01*
X68580Y10099D01*
X68580Y9999D01*
X68580Y9899D01*
X68580Y9799D01*
X68580Y9699D01*
X68580Y9599D01*
X68580Y9499D01*
X68580Y9399D01*
X68580Y9299D01*
X68580Y9199D01*
X68580Y9099D01*
X68580Y8999D01*
X68580Y8899D01*
X68580Y8799D01*
X68580Y8699D01*
X68580Y8599D01*
X68580Y8499D01*
X68580Y8399D01*
X68580Y8299D01*
X68580Y8199D01*
X68580Y8099D01*
X68580Y7999D01*
X68580Y7899D01*
X68580Y7799D01*
X68580Y7699D01*
X68580Y7599D01*
X68580Y7499D01*
X68580Y7399D01*
X68580Y7299D01*
X68580Y7199D01*
X68580Y7099D01*
X68580Y6999D01*
X68580Y6899D01*
X68580Y6799D01*
X68580Y6699D01*
X68580Y6599D01*
X68580Y6499D01*
X68580Y6399D01*
X68580Y6299D01*
X68580Y6199D01*
X68580Y6099D01*
X68580Y5999D01*
X68580Y5899D01*
X68580Y5799D01*
X68580Y5699D01*
X68580Y5599D01*
X68580Y5499D01*
X68580Y5399D01*
X68580Y5299D01*
X68580Y5199D01*
X68580Y5099D01*
X68523Y5023D01*
X68452Y4952D01*
X68382Y4882D01*
X68311Y4811D01*
X68240Y4740D01*
X68169Y4669D01*
X68099Y4599D01*
X68028Y4528D01*
X67957Y4457D01*
X67887Y4387D01*
X67816Y4316D01*
X67745Y4245D01*
X67675Y4175D01*
X67604Y4104D01*
X67533Y4033D01*
X67462Y3962D01*
X67392Y3892D01*
X67321Y3821D01*
X67250Y3750D01*
X67180Y3680D01*
X67109Y3609D01*
X67038Y3538D01*
X66968Y3468D01*
X66897Y3397D01*
X66826Y3326D01*
X66755Y3255D01*
X66685Y3185D01*
X66614Y3114D01*
X66543Y3043D01*
X66473Y2973D01*
X66402Y2902D01*
X66331Y2831D01*
X66260Y2760D01*
X66190Y2690D01*
X66119Y2619D01*
X66048Y2548D01*
X66040Y2452D01*
X66040Y2352D01*
X66040Y2252D01*
X66040Y2152D01*
X66040Y2052D01*
X66040Y1952D01*
X66040Y1852D01*
X66040Y1752D01*
X66040Y1652D01*
X66040Y1552D01*
X66040Y1452D01*
X66040Y1352D01*
X66040Y1252D01*
X66040Y1152D01*
X66040Y1052D01*
X66040Y952D01*
X66040Y852D01*
X66040Y752D01*
X66040Y652D01*
X66040Y552D01*
X66040Y452D01*
X66040Y352D01*
X66040Y252D01*
X66040Y152D01*
X66040Y52D01*
X65992Y0D01*
X65892Y0D01*
X65792Y0D01*
X65692Y0D01*
X65592Y0D01*
X65492Y0D01*
X65392Y0D01*
X65292Y0D01*
X65192Y0D01*
X65092Y0D01*
X64992Y0D01*
X64892Y0D01*
X64792Y0D01*
X64692Y0D01*
X64592Y0D01*
X64492Y0D01*
X64392Y0D01*
X64292Y0D01*
X64192Y0D01*
X64092Y0D01*
X63992Y0D01*
X63892Y0D01*
X63792Y0D01*
X63692Y0D01*
X63592Y0D01*
X63492Y0D01*
X63392Y0D01*
X63292Y0D01*
X63192Y0D01*
X63093Y0D01*
X62993Y0D01*
X62893Y0D01*
X62793Y0D01*
X62693Y0D01*
X62593Y0D01*
X62493Y0D01*
X62393Y0D01*
X62293Y0D01*
X62193Y0D01*
X62093Y0D01*
X61993Y0D01*
X61893Y0D01*
X61793Y0D01*
X61693Y0D01*
X61593Y0D01*
X61493Y0D01*
X61393Y0D01*
X61293Y0D01*
X61193Y0D01*
X61093Y0D01*
X60993Y0D01*
X60893Y0D01*
X60793Y0D01*
X60693Y0D01*
X60593Y0D01*
X60493Y0D01*
X60393Y0D01*
X60293Y0D01*
X60193Y0D01*
X60093Y0D01*
X59993Y0D01*
X59893Y0D01*
X59793Y0D01*
X59693Y0D01*
X59593Y0D01*
X59493Y0D01*
X59393Y0D01*
X59293Y0D01*
X59193Y0D01*
X59093Y0D01*
X58993Y0D01*
X58893Y0D01*
X58793Y0D01*
X58693Y0D01*
X58593Y0D01*
X58493Y0D01*
X58393Y0D01*
X58293Y0D01*
X58193Y0D01*
X58093Y0D01*
X57993Y0D01*
X57893Y0D01*
X57793Y0D01*
X57693Y0D01*
X57593Y0D01*
X57493Y0D01*
X57393Y0D01*
X57293Y0D01*
X57193Y0D01*
X57093Y0D01*
X56993Y0D01*
X56893Y0D01*
X56793Y0D01*
X56693Y0D01*
X56593Y0D01*
X56493Y0D01*
X56393Y0D01*
X56293Y0D01*
X56193Y0D01*
X56093Y0D01*
X55993Y0D01*
X55893Y0D01*
X55793Y0D01*
X55693Y0D01*
X55593Y0D01*
X55493Y0D01*
X55393Y0D01*
X55293Y0D01*
X55193Y0D01*
X55094Y0D01*
X54994Y0D01*
X54894Y0D01*
X54794Y0D01*
X54694Y0D01*
X54594Y0D01*
X54494Y0D01*
X54394Y0D01*
X54294Y0D01*
X54194Y0D01*
X54094Y0D01*
X53994Y0D01*
X53894Y0D01*
X53794Y0D01*
X53694Y0D01*
X53594Y0D01*
X53494Y0D01*
X53394Y0D01*
X53294Y0D01*
X53194Y0D01*
X53094Y0D01*
X52994Y0D01*
X52894Y0D01*
X52794Y0D01*
X52694Y0D01*
X52594Y0D01*
X52494Y0D01*
X52394Y0D01*
X52294Y0D01*
X52194Y0D01*
X52094Y0D01*
X51994Y0D01*
X51894Y0D01*
X51794Y0D01*
X51694Y0D01*
X51594Y0D01*
X51494Y0D01*
X51394Y0D01*
X51294Y0D01*
X51194Y0D01*
X51094Y0D01*
X50994Y0D01*
X50894Y0D01*
X50794Y0D01*
X50694Y0D01*
X50594Y0D01*
X50494Y0D01*
X50394Y0D01*
X50294Y0D01*
X50194Y0D01*
X50094Y0D01*
X49994Y0D01*
X49894Y0D01*
X49794Y0D01*
X49694Y0D01*
X49594Y0D01*
X49494Y0D01*
X49394Y0D01*
X49294Y0D01*
X49194Y0D01*
X49094Y0D01*
X48994Y0D01*
X48894Y0D01*
X48794Y0D01*
X48694Y0D01*
X48594Y0D01*
X48494Y0D01*
X48394Y0D01*
X48294Y0D01*
X48194Y0D01*
X48094Y0D01*
X47994Y0D01*
X47894Y0D01*
X47794Y0D01*
X47694Y0D01*
X47594Y0D01*
X47494Y0D01*
X47394Y0D01*
X47294Y0D01*
X47194Y0D01*
X47094Y0D01*
X46995Y0D01*
X46895Y0D01*
X46795Y0D01*
X46695Y0D01*
X46595Y0D01*
X46495Y0D01*
X46395Y0D01*
X46295Y0D01*
X46195Y0D01*
X46095Y0D01*
X45995Y0D01*
X45895Y0D01*
X45795Y0D01*
X45695Y0D01*
X45595Y0D01*
X45495Y0D01*
X45395Y0D01*
X45295Y0D01*
X45195Y0D01*
X45095Y0D01*
X44995Y0D01*
X44895Y0D01*
X44795Y0D01*
X44695Y0D01*
X44595Y0D01*
X44495Y0D01*
X44395Y0D01*
X44295Y0D01*
X44195Y0D01*
X44095Y0D01*
X43995Y0D01*
X43895Y0D01*
X43795Y0D01*
X43695Y0D01*
X43595Y0D01*
X43495Y0D01*
X43395Y0D01*
X43295Y0D01*
X43195Y0D01*
X43095Y0D01*
X42995Y0D01*
X42895Y0D01*
X42795Y0D01*
X42695Y0D01*
X42595Y0D01*
X42495Y0D01*
X42395Y0D01*
X42295Y0D01*
X42195Y0D01*
X42095Y0D01*
X41995Y0D01*
X41895Y0D01*
X41795Y0D01*
X41695Y0D01*
X41595Y0D01*
X41495Y0D01*
X41395Y0D01*
X41295Y0D01*
X41195Y0D01*
X41095Y0D01*
X40995Y0D01*
X40895Y0D01*
X40795Y0D01*
X40695Y0D01*
X40595Y0D01*
X40495Y0D01*
X40395Y0D01*
X40295Y0D01*
X40195Y0D01*
X40095Y0D01*
X39995Y0D01*
X39895Y0D01*
X39795Y0D01*
X39695Y0D01*
X39595Y0D01*
X39495Y0D01*
X39395Y0D01*
X39295Y0D01*
X39195Y0D01*
X39095Y0D01*
X38995Y0D01*
X38895Y0D01*
X38796Y0D01*
X38696Y0D01*
X38596Y0D01*
X38496Y0D01*
X38396Y0D01*
X38296Y0D01*
X38196Y0D01*
X38096Y0D01*
X37996Y0D01*
X37896Y0D01*
X37796Y0D01*
X37696Y0D01*
X37596Y0D01*
X37496Y0D01*
X37396Y0D01*
X37296Y0D01*
X37196Y0D01*
X37096Y0D01*
X36996Y0D01*
X36896Y0D01*
X36796Y0D01*
X36696Y0D01*
X36596Y0D01*
X36496Y0D01*
X36396Y0D01*
X36296Y0D01*
X36196Y0D01*
X36096Y0D01*
X35996Y0D01*
X35896Y0D01*
X35796Y0D01*
X35696Y0D01*
X35596Y0D01*
X35496Y0D01*
X35396Y0D01*
X35296Y0D01*
X35196Y0D01*
X35096Y0D01*
X34996Y0D01*
X34896Y0D01*
X34796Y0D01*
X34696Y0D01*
X34596Y0D01*
X34496Y0D01*
X34396Y0D01*
X34296Y0D01*
X34196Y0D01*
X34096Y0D01*
X33996Y0D01*
X33896Y0D01*
X33796Y0D01*
X33696Y0D01*
X33596Y0D01*
X33496Y0D01*
X33396Y0D01*
X33296Y0D01*
X33196Y0D01*
X33096Y0D01*
X32996Y0D01*
X32896Y0D01*
X32796Y0D01*
X32696Y0D01*
X32596Y0D01*
X32496Y0D01*
X32396Y0D01*
X32296Y0D01*
X32196Y0D01*
X32096Y0D01*
X31996Y0D01*
X31896Y0D01*
X31796Y0D01*
X31696Y0D01*
X31596Y0D01*
X31496Y0D01*
X31396Y0D01*
X31296Y0D01*
X31196Y0D01*
X31096Y0D01*
X30996Y0D01*
X30896Y0D01*
X30796Y0D01*
X30696Y0D01*
X30597Y0D01*
X30497Y0D01*
X30397Y0D01*
X30297Y0D01*
X30197Y0D01*
X30097Y0D01*
X29997Y0D01*
X29897Y0D01*
X29797Y0D01*
X29697Y0D01*
X29597Y0D01*
X29497Y0D01*
X29397Y0D01*
X29297Y0D01*
X29197Y0D01*
X29097Y0D01*
X28997Y0D01*
X28897Y0D01*
X28797Y0D01*
X28697Y0D01*
X28597Y0D01*
X28497Y0D01*
X28397Y0D01*
X28297Y0D01*
X28197Y0D01*
X28097Y0D01*
X27997Y0D01*
X27897Y0D01*
X27797Y0D01*
X27697Y0D01*
X27597Y0D01*
X27497Y0D01*
X27397Y0D01*
X27297Y0D01*
X27197Y0D01*
X27097Y0D01*
X26997Y0D01*
X26897Y0D01*
X26797Y0D01*
X26697Y0D01*
X26597Y0D01*
X26497Y0D01*
X26397Y0D01*
X26297Y0D01*
X26197Y0D01*
X26097Y0D01*
X25997Y0D01*
X25897Y0D01*
X25797Y0D01*
X25697Y0D01*
X25597Y0D01*
X25497Y0D01*
X25397Y0D01*
X25297Y0D01*
X25197Y0D01*
X25097Y0D01*
X24997Y0D01*
X24897Y0D01*
X24797Y0D01*
X24697Y0D01*
X24597Y0D01*
X24497Y0D01*
X24397Y0D01*
X24297Y0D01*
X24197Y0D01*
X24097Y0D01*
X23997Y0D01*
X23897Y0D01*
X23797Y0D01*
X23697Y0D01*
X23597Y0D01*
X23497Y0D01*
X23397Y0D01*
X23297Y0D01*
X23197Y0D01*
X23097Y0D01*
X22997Y0D01*
X22897Y0D01*
X22797Y0D01*
X22697Y0D01*
X22597Y0D01*
X22497Y0D01*
X22398Y0D01*
X22298Y0D01*
X22198Y0D01*
X22098Y0D01*
X21998Y0D01*
X21898Y0D01*
X21798Y0D01*
X21698Y0D01*
X21598Y0D01*
X21498Y0D01*
X21398Y0D01*
X21298Y0D01*
X21198Y0D01*
X21098Y0D01*
X20998Y0D01*
X20898Y0D01*
X20798Y0D01*
X20698Y0D01*
X20598Y0D01*
X20498Y0D01*
X20398Y0D01*
X20298Y0D01*
X20198Y0D01*
X20098Y0D01*
X19998Y0D01*
X19898Y0D01*
X19798Y0D01*
X19698Y0D01*
X19598Y0D01*
X19498Y0D01*
X19398Y0D01*
X19298Y0D01*
X19198Y0D01*
X19098Y0D01*
X18998Y0D01*
X18898Y0D01*
X18798Y0D01*
X18698Y0D01*
X18598Y0D01*
X18498Y0D01*
X18398Y0D01*
X18298Y0D01*
X18198Y0D01*
X18098Y0D01*
X17998Y0D01*
X17898Y0D01*
X17798Y0D01*
X17698Y0D01*
X17598Y0D01*
X17498Y0D01*
X17398Y0D01*
X17298Y0D01*
X17198Y0D01*
X17098Y0D01*
X16998Y0D01*
X16898Y0D01*
X16798Y0D01*
X16698Y0D01*
X16598Y0D01*
X16498Y0D01*
X16398Y0D01*
X16298Y0D01*
X16198Y0D01*
X16098Y0D01*
X15998Y0D01*
X15898Y0D01*
X15798Y0D01*
X15698Y0D01*
X15598Y0D01*
X15498Y0D01*
X15398Y0D01*
X15298Y0D01*
X15198Y0D01*
X15098Y0D01*
X14998Y0D01*
X14898Y0D01*
X14798Y0D01*
X14698Y0D01*
X14598Y0D01*
X14498Y0D01*
X14398Y0D01*
X14298Y0D01*
X14198Y0D01*
X14098Y0D01*
X13999Y0D01*
X13899Y0D01*
X13799Y0D01*
X13699Y0D01*
X13599Y0D01*
X13499Y0D01*
X13399Y0D01*
X13299Y0D01*
X13199Y0D01*
X13099Y0D01*
X12999Y0D01*
X12899Y0D01*
X12799Y0D01*
X12699Y0D01*
X12599Y0D01*
X12499Y0D01*
X12399Y0D01*
X12299Y0D01*
X12199Y0D01*
X12099Y0D01*
X11999Y0D01*
X11899Y0D01*
X11799Y0D01*
X11699Y0D01*
X11599Y0D01*
X11499Y0D01*
X11399Y0D01*
X11299Y0D01*
X11199Y0D01*
X11099Y0D01*
X10999Y0D01*
X10899Y0D01*
X10799Y0D01*
X10699Y0D01*
X10599Y0D01*
X10499Y0D01*
X10399Y0D01*
X10299Y0D01*
X10199Y0D01*
X10099Y0D01*
X9999Y0D01*
X9899Y0D01*
X9799Y0D01*
X9699Y0D01*
X9599Y0D01*
X9499Y0D01*
X9399Y0D01*
X9299Y0D01*
X9199Y0D01*
X9099Y0D01*
X8999Y0D01*
X8899Y0D01*
X8799Y0D01*
X8699Y0D01*
X8599Y0D01*
X8499Y0D01*
X8399Y0D01*
X8299Y0D01*
X8199Y0D01*
X8099Y0D01*
X7999Y0D01*
X7899Y0D01*
X7799Y0D01*
X7699Y0D01*
X7599Y0D01*
X7499Y0D01*
X7399Y0D01*
X7299Y0D01*
X7199Y0D01*
X7099Y0D01*
X6999Y0D01*
X6899Y0D01*
X6799Y0D01*
X6699Y0D01*
X6599Y0D01*
X6499Y0D01*
X6399Y0D01*
X6299Y0D01*
X6199Y0D01*
X6099Y0D01*
X5999Y0D01*
X5899Y0D01*
X5799Y0D01*
X5699Y0D01*
X5599Y0D01*
X5499Y0D01*
X5399Y0D01*
X5300Y0D01*
X5200Y0D01*
X5100Y0D01*
X5000Y0D01*
X4900Y0D01*
X4800Y0D01*
X4700Y0D01*
X4600Y0D01*
X4500Y0D01*
X4400Y0D01*
X4300Y0D01*
X4200Y0D01*
X4100Y0D01*
X4000Y0D01*
X3900Y0D01*
X3800Y0D01*
X3700Y0D01*
X3600Y0D01*
X3500Y0D01*
X3400Y0D01*
X3300Y0D01*
X3200Y0D01*
X3100Y0D01*
X3000Y0D01*
X2900Y0D01*
X2800Y0D01*
X2700Y0D01*
X2600Y0D01*
X2500Y0D01*
X2400Y0D01*
X2300Y0D01*
X2200Y0D01*
X2100Y0D01*
X2000Y0D01*
X1900Y0D01*
X1800Y0D01*
X1700Y0D01*
X1600Y0D01*
X1500Y0D01*
X1400Y0D01*
X1300Y0D01*
X1200Y0D01*
X1100Y0D01*
X1000Y0D01*
X900Y0D01*
X800Y0D01*
X700Y0D01*
X600Y0D01*
X500Y0D01*
X400Y0D01*
X300Y0D01*
X200Y0D01*
X100Y0D01*
X0Y0D01*
D10*
X18026Y47318D02*
X18126Y47218D01*
X18376Y47218D01*
X18476Y47318D01*
X18476Y47418D01*
X18376Y47518D01*
X18126Y47518D01*
X18026Y47618D01*
X18026Y47718D01*
X18126Y47818D01*
X18376Y47818D01*
X18476Y47718D01*
D10*
X19126Y47368D02*
X19126Y47318D01*
X19026Y47218D01*
X18776Y47218D01*
X18676Y47318D01*
X18676Y47718D01*
X18776Y47818D01*
X19026Y47818D01*
X19126Y47718D01*
X19126Y47668D01*
D10*
X19676Y47218D02*
X19326Y47218D01*
X19326Y47818D01*
D10*
X22926Y47218D02*
X22926Y47518D01*
X23126Y47818D01*
X23176Y47818D01*
X23376Y47518D01*
X23376Y47218D01*
D10*
X22926Y47368D02*
X23376Y47368D01*
D10*
X23576Y47218D02*
X23576Y47818D01*
X23876Y47818D01*
X23976Y47718D01*
X23976Y47618D01*
X23876Y47518D01*
X23576Y47518D01*
D10*
X23876Y47518D02*
X23976Y47418D01*
X23976Y47218D01*
D10*
X24526Y47218D02*
X24176Y47218D01*
X24176Y47818D01*
X24526Y47818D01*
D10*
X24476Y47518D02*
X24176Y47518D01*
D10*
X24726Y47218D02*
X24726Y47818D01*
X25076Y47818D01*
D10*
X25026Y47518D02*
X24726Y47518D01*
D10*
X20399Y47318D02*
X20499Y47218D01*
X20749Y47218D01*
X20849Y47318D01*
X20849Y47418D01*
X20749Y47518D01*
X20499Y47518D01*
X20399Y47618D01*
X20399Y47718D01*
X20499Y47818D01*
X20749Y47818D01*
X20849Y47718D01*
D10*
X21049Y47218D02*
X21049Y47818D01*
X21399Y47818D01*
X21499Y47718D01*
X21499Y47318D01*
X21399Y47218D01*
X21049Y47218D01*
D10*
X21699Y47218D02*
X21699Y47518D01*
X21899Y47818D01*
X21949Y47818D01*
X22149Y47518D01*
X22149Y47218D01*
D10*
X21699Y47368D02*
X22149Y47368D01*
D10*
X25979Y47468D02*
X26154Y47468D01*
X26154Y47318D01*
X26054Y47218D01*
X25804Y47218D01*
X25704Y47318D01*
X25704Y47718D01*
X25804Y47818D01*
X26054Y47818D01*
X26154Y47718D01*
X26154Y47668D01*
D10*
X26354Y47218D02*
X26354Y47818D01*
D10*
X26354Y47768D02*
X26754Y47393D01*
D10*
X26754Y47218D02*
X26754Y47818D01*
D10*
X26954Y47218D02*
X26954Y47818D01*
X27304Y47818D01*
X27404Y47718D01*
X27404Y47318D01*
X27304Y47218D01*
X26954Y47218D01*
D10*
X28220Y47218D02*
X28220Y47818D01*
X28570Y47818D01*
X28670Y47718D01*
X28670Y47318D01*
X28570Y47218D01*
X28220Y47218D01*
D10*
X28995Y47218D02*
X28995Y47818D01*
X28945Y47818D01*
X28870Y47718D01*
D10*
X28870Y47218D02*
X29095Y47218D01*
D10*
X29295Y47718D02*
X29295Y47743D01*
X29370Y47818D01*
X29570Y47818D01*
X29645Y47743D01*
X29645Y47643D01*
X29520Y47518D01*
X29645Y47393D01*
X29645Y47293D01*
X29570Y47218D01*
X29370Y47218D01*
X29295Y47293D01*
X29295Y47318D01*
D10*
X29445Y47518D02*
X29520Y47518D01*
D10*
X30769Y47218D02*
X30769Y47818D01*
X31119Y47818D01*
X31219Y47718D01*
X31219Y47318D01*
X31119Y47218D01*
X30769Y47218D01*
D10*
X31544Y47218D02*
X31544Y47818D01*
X31494Y47818D01*
X31419Y47718D01*
D10*
X31419Y47218D02*
X31644Y47218D01*
D10*
X31844Y47718D02*
X31844Y47743D01*
X31919Y47818D01*
X32119Y47818D01*
X32194Y47743D01*
X32194Y47568D01*
X31844Y47218D01*
X32194Y47218D01*
D10*
X33279Y47218D02*
X33279Y47818D01*
X33629Y47818D01*
X33729Y47718D01*
X33729Y47318D01*
X33629Y47218D01*
X33279Y47218D01*
D10*
X34054Y47218D02*
X34054Y47818D01*
X34004Y47818D01*
X33929Y47718D01*
D10*
X33929Y47218D02*
X34154Y47218D01*
D10*
X34479Y47218D02*
X34479Y47818D01*
X34429Y47818D01*
X34354Y47718D01*
D10*
X34354Y47218D02*
X34579Y47218D01*
D10*
X35875Y47218D02*
X35875Y47818D01*
X36225Y47818D01*
X36325Y47718D01*
X36325Y47318D01*
X36225Y47218D01*
X35875Y47218D01*
D10*
X36650Y47218D02*
X36650Y47818D01*
X36600Y47818D01*
X36525Y47718D01*
D10*
X36525Y47218D02*
X36750Y47218D01*
D10*
X37025Y47218D02*
X36950Y47293D01*
X36950Y47743D01*
X37025Y47818D01*
X37225Y47818D01*
X37300Y47743D01*
X37300Y47293D01*
X37225Y47218D01*
X37025Y47218D01*
D10*
X36950Y47368D02*
X37300Y47668D01*
D10*
X38605Y47218D02*
X38605Y47818D01*
X38955Y47818D01*
X39055Y47718D01*
X39055Y47318D01*
X38955Y47218D01*
X38605Y47218D01*
D10*
X39605Y47518D02*
X39330Y47518D01*
X39255Y47593D01*
X39255Y47743D01*
X39330Y47818D01*
X39530Y47818D01*
X39605Y47743D01*
X39605Y47293D01*
X39530Y47218D01*
X39330Y47218D01*
D10*
X41088Y47218D02*
X41088Y47818D01*
X41438Y47818D01*
X41538Y47718D01*
X41538Y47318D01*
X41438Y47218D01*
X41088Y47218D01*
D10*
X42013Y47518D02*
X42088Y47443D01*
X42088Y47293D01*
X42013Y47218D01*
X41813Y47218D01*
X41738Y47293D01*
X41738Y47443D01*
X41813Y47518D01*
X42013Y47518D01*
X42088Y47593D01*
X42088Y47743D01*
X42013Y47818D01*
X41813Y47818D01*
X41738Y47743D01*
X41738Y47593D01*
X41813Y47518D01*
D10*
X45180Y47218D02*
X45180Y47818D01*
X45530Y47818D01*
X45630Y47718D01*
X45630Y47318D01*
X45530Y47218D01*
X45180Y47218D01*
D10*
X45980Y47218D02*
X45980Y47418D01*
X46180Y47718D01*
X46180Y47818D01*
X45830Y47818D01*
D10*
X47733Y47218D02*
X47733Y47818D01*
X48083Y47818D01*
X48183Y47718D01*
X48183Y47318D01*
X48083Y47218D01*
X47733Y47218D01*
D10*
X48733Y47718D02*
X48733Y47743D01*
X48658Y47818D01*
X48458Y47818D01*
X48383Y47743D01*
X48383Y47293D01*
X48458Y47218D01*
X48658Y47218D01*
X48733Y47293D01*
X48733Y47443D01*
X48658Y47518D01*
X48383Y47518D01*
D10*
X50251Y47218D02*
X50251Y47818D01*
X50601Y47818D01*
X50701Y47718D01*
X50701Y47318D01*
X50601Y47218D01*
X50251Y47218D01*
D10*
X50901Y47318D02*
X50901Y47293D01*
X50976Y47218D01*
X51176Y47218D01*
X51251Y47293D01*
X51251Y47468D01*
X51176Y47543D01*
X50901Y47543D01*
X50901Y47818D01*
X51201Y47818D01*
D10*
X52839Y47218D02*
X52839Y47818D01*
X53189Y47818D01*
X53289Y47718D01*
X53289Y47318D01*
X53189Y47218D01*
X52839Y47218D01*
D10*
X53789Y47218D02*
X53789Y47818D01*
X53739Y47818D01*
X53489Y47443D01*
X53489Y47343D01*
X53839Y47343D01*
D10*
X55357Y47218D02*
X55357Y47818D01*
X55707Y47818D01*
X55807Y47718D01*
X55807Y47318D01*
X55707Y47218D01*
X55357Y47218D01*
D10*
X56007Y47718D02*
X56007Y47743D01*
X56082Y47818D01*
X56282Y47818D01*
X56357Y47743D01*
X56357Y47643D01*
X56232Y47518D01*
X56357Y47393D01*
X56357Y47293D01*
X56282Y47218D01*
X56082Y47218D01*
X56007Y47293D01*
X56007Y47318D01*
D10*
X56157Y47518D02*
X56232Y47518D01*
D10*
X57910Y47218D02*
X57910Y47818D01*
X58260Y47818D01*
X58360Y47718D01*
X58360Y47318D01*
X58260Y47218D01*
X57910Y47218D01*
D10*
X58560Y47718D02*
X58560Y47743D01*
X58635Y47818D01*
X58835Y47818D01*
X58910Y47743D01*
X58910Y47568D01*
X58560Y47218D01*
X58910Y47218D01*
D10*
X60526Y47218D02*
X60526Y47818D01*
X60876Y47818D01*
X60976Y47718D01*
X60976Y47318D01*
X60876Y47218D01*
X60526Y47218D01*
D10*
X61301Y47218D02*
X61301Y47818D01*
X61251Y47818D01*
X61176Y47718D01*
D10*
X61176Y47218D02*
X61401Y47218D01*
D10*
X62981Y47218D02*
X62981Y47818D01*
X63331Y47818D01*
X63431Y47718D01*
X63431Y47318D01*
X63331Y47218D01*
X62981Y47218D01*
D10*
X63706Y47218D02*
X63631Y47293D01*
X63631Y47743D01*
X63706Y47818D01*
X63906Y47818D01*
X63981Y47743D01*
X63981Y47293D01*
X63906Y47218D01*
X63706Y47218D01*
D10*
X63631Y47368D02*
X63981Y47668D01*
D10*
X62981Y5214D02*
X62981Y5514D01*
X63181Y5814D01*
X63231Y5814D01*
X63431Y5514D01*
X63431Y5214D01*
D10*
X62981Y5364D02*
X63431Y5364D01*
D10*
X63631Y5314D02*
X63631Y5289D01*
X63706Y5214D01*
X63906Y5214D01*
X63981Y5289D01*
X63981Y5464D01*
X63906Y5539D01*
X63631Y5539D01*
X63631Y5814D01*
X63931Y5814D01*
D10*
X60463Y5214D02*
X60463Y5514D01*
X60663Y5814D01*
X60713Y5814D01*
X60913Y5514D01*
X60913Y5214D01*
D10*
X60463Y5364D02*
X60913Y5364D01*
D10*
X61413Y5214D02*
X61413Y5814D01*
X61363Y5814D01*
X61113Y5439D01*
X61113Y5339D01*
X61463Y5339D01*
D10*
X57910Y5214D02*
X57910Y5514D01*
X58110Y5814D01*
X58160Y5814D01*
X58360Y5514D01*
X58360Y5214D01*
D10*
X57910Y5364D02*
X58360Y5364D01*
D10*
X58560Y5714D02*
X58560Y5739D01*
X58635Y5814D01*
X58835Y5814D01*
X58910Y5739D01*
X58910Y5639D01*
X58785Y5514D01*
X58910Y5389D01*
X58910Y5289D01*
X58835Y5214D01*
X58635Y5214D01*
X58560Y5289D01*
X58560Y5314D01*
D10*
X58710Y5514D02*
X58785Y5514D01*
D10*
X55357Y5214D02*
X55357Y5514D01*
X55557Y5814D01*
X55607Y5814D01*
X55807Y5514D01*
X55807Y5214D01*
D10*
X55357Y5364D02*
X55807Y5364D01*
D10*
X56007Y5714D02*
X56007Y5739D01*
X56082Y5814D01*
X56282Y5814D01*
X56357Y5739D01*
X56357Y5564D01*
X56007Y5214D01*
X56357Y5214D01*
D10*
X52902Y5214D02*
X52902Y5514D01*
X53102Y5814D01*
X53152Y5814D01*
X53352Y5514D01*
X53352Y5214D01*
D10*
X52902Y5364D02*
X53352Y5364D01*
D10*
X53677Y5214D02*
X53677Y5814D01*
X53627Y5814D01*
X53552Y5714D01*
D10*
X53552Y5214D02*
X53777Y5214D01*
D10*
X50251Y5214D02*
X50251Y5514D01*
X50451Y5814D01*
X50501Y5814D01*
X50701Y5514D01*
X50701Y5214D01*
D10*
X50251Y5364D02*
X50701Y5364D01*
D10*
X50976Y5214D02*
X50901Y5289D01*
X50901Y5739D01*
X50976Y5814D01*
X51176Y5814D01*
X51251Y5739D01*
X51251Y5289D01*
X51176Y5214D01*
X50976Y5214D01*
D10*
X50901Y5364D02*
X51251Y5664D01*
D10*
X45005Y5814D02*
X45005Y5464D01*
X45205Y5214D01*
X45405Y5464D01*
X45405Y5814D01*
D10*
X45680Y5214D02*
X45680Y5814D01*
D10*
X45605Y5214D02*
X45755Y5214D01*
D10*
X45605Y5814D02*
X45755Y5814D01*
D10*
X45955Y5214D02*
X45955Y5814D01*
D10*
X45955Y5764D02*
X46355Y5389D01*
D10*
X46355Y5214D02*
X46355Y5814D01*
D10*
X42583Y5464D02*
X42758Y5464D01*
X42758Y5314D01*
X42658Y5214D01*
X42408Y5214D01*
X42308Y5314D01*
X42308Y5714D01*
X42408Y5814D01*
X42658Y5814D01*
X42758Y5714D01*
X42758Y5664D01*
D10*
X42958Y5214D02*
X42958Y5814D01*
D10*
X42958Y5764D02*
X43358Y5389D01*
D10*
X43358Y5214D02*
X43358Y5814D01*
D10*
X43558Y5214D02*
X43558Y5814D01*
X43908Y5814D01*
X44008Y5714D01*
X44008Y5314D01*
X43908Y5214D01*
X43558Y5214D01*
D10*
X40036Y5464D02*
X40211Y5464D01*
X40211Y5314D01*
X40111Y5214D01*
X39861Y5214D01*
X39761Y5314D01*
X39761Y5714D01*
X39861Y5814D01*
X40111Y5814D01*
X40211Y5714D01*
X40211Y5664D01*
D10*
X40411Y5214D02*
X40411Y5814D01*
D10*
X40411Y5764D02*
X40811Y5389D01*
D10*
X40811Y5214D02*
X40811Y5814D01*
D10*
X41011Y5214D02*
X41011Y5814D01*
X41361Y5814D01*
X41461Y5714D01*
X41461Y5314D01*
X41361Y5214D01*
X41011Y5214D01*
D10*
X37632Y5314D02*
X37632Y5289D01*
X37707Y5214D01*
X37907Y5214D01*
X37982Y5289D01*
X37982Y5464D01*
X37907Y5539D01*
X37632Y5539D01*
X37632Y5814D01*
X37932Y5814D01*
D10*
X38182Y5814D02*
X38182Y5464D01*
X38382Y5214D01*
X38582Y5464D01*
X38582Y5814D01*
D10*
X34809Y5714D02*
X34809Y5739D01*
X34884Y5814D01*
X35084Y5814D01*
X35159Y5739D01*
X35159Y5639D01*
X35034Y5514D01*
X35159Y5389D01*
X35159Y5289D01*
X35084Y5214D01*
X34884Y5214D01*
X34809Y5289D01*
X34809Y5314D01*
D10*
X34959Y5514D02*
X35034Y5514D01*
D10*
X35359Y5814D02*
X35359Y5464D01*
X35559Y5214D01*
X35759Y5464D01*
X35759Y5814D01*
D10*
X35959Y5714D02*
X35959Y5739D01*
X36034Y5814D01*
X36234Y5814D01*
X36309Y5739D01*
X36309Y5639D01*
X36184Y5514D01*
X36309Y5389D01*
X36309Y5289D01*
X36234Y5214D01*
X36034Y5214D01*
X35959Y5289D01*
X35959Y5314D01*
D10*
X36109Y5514D02*
X36184Y5514D01*
D10*
X32230Y5214D02*
X32230Y5814D01*
X32530Y5814D01*
X32630Y5714D01*
X32630Y5614D01*
X32530Y5514D01*
X32230Y5514D01*
D10*
X32530Y5514D02*
X32630Y5414D01*
X32630Y5214D01*
D10*
X32830Y5314D02*
X32930Y5214D01*
X33180Y5214D01*
X33280Y5314D01*
X33280Y5414D01*
X33180Y5514D01*
X32930Y5514D01*
X32830Y5614D01*
X32830Y5714D01*
X32930Y5814D01*
X33180Y5814D01*
X33280Y5714D01*
D10*
X33680Y5214D02*
X33680Y5814D01*
D10*
X33480Y5814D02*
X33880Y5814D01*
D10*
X29333Y5214D02*
X29333Y5814D01*
D10*
X29258Y5214D02*
X29408Y5214D01*
D10*
X29258Y5814D02*
X29408Y5814D01*
D10*
X29708Y5214D02*
X29608Y5314D01*
X29608Y5714D01*
X29708Y5814D01*
X29958Y5814D01*
X30058Y5714D01*
X30058Y5314D01*
X29958Y5214D01*
X29708Y5214D01*
D10*
X30258Y5214D02*
X30258Y5814D01*
X30558Y5814D01*
X30658Y5714D01*
X30658Y5614D01*
X30558Y5514D01*
X30258Y5514D01*
D10*
X30558Y5514D02*
X30658Y5414D01*
X30658Y5214D01*
D10*
X31208Y5214D02*
X30858Y5214D01*
X30858Y5814D01*
X31208Y5814D01*
D10*
X31158Y5514D02*
X30858Y5514D01*
D10*
X31408Y5214D02*
X31408Y5814D01*
X31758Y5814D01*
D10*
X31708Y5514D02*
X31408Y5514D01*
D11*
X40029Y27607D02*
X40029Y28273D01*
D11*
X40029Y28246D02*
X40334Y28023D01*
X40640Y28246D01*
D11*
X40640Y28273D02*
X40640Y27607D01*
D11*
X41196Y27607D02*
X41196Y28273D01*
X41140Y28273D01*
X40862Y27857D01*
X40862Y27746D01*
X41251Y27746D01*
D10*
X39370Y31750D02*
X41910Y31750D01*
X41910Y24130D01*
X39370Y24130D01*
X39370Y31750D01*
D12*
X38100Y27464D02*
X38100Y27559D01*
X38100Y27654D01*
X38100Y27749D01*
X38100Y27845D01*
X38100Y27940D01*
X38100Y28035D01*
X38100Y28130D01*
X38100Y28226D01*
X38100Y28321D01*
X38100Y28416D01*
D12*
X37624Y27940D02*
X37719Y27940D01*
X37814Y27940D01*
X37909Y27940D01*
X38005Y27940D01*
X38100Y27940D01*
X38195Y27940D01*
X38290Y27940D01*
X38386Y27940D01*
X38481Y27940D01*
X38576Y27940D01*
D12*
X37624Y25393D02*
X37719Y25393D01*
X37814Y25393D01*
X37909Y25393D01*
X38005Y25393D01*
X38100Y25393D01*
X38195Y25393D01*
X38290Y25393D01*
X38386Y25393D01*
X38481Y25393D01*
X38576Y25393D01*
D10*
X37400Y30280D02*
X37400Y30255D01*
X37475Y30180D01*
X37775Y30180D01*
X37850Y30255D01*
X37850Y30330D01*
X37775Y30405D01*
X37475Y30405D01*
X37400Y30480D01*
X37400Y30555D01*
X37475Y30630D01*
X37775Y30630D01*
X37850Y30555D01*
X37850Y30530D01*
D10*
X38100Y30780D02*
X38100Y30780D01*
D10*
X38050Y30630D02*
X38100Y30630D01*
X38100Y30180D01*
D10*
X38050Y30180D02*
X38150Y30180D01*
D10*
X38800Y30630D02*
X38800Y30105D01*
X38725Y30030D01*
X38475Y30030D01*
D10*
X38800Y30230D02*
X38450Y30230D01*
X38350Y30330D01*
X38350Y30505D01*
X38475Y30630D01*
X38650Y30630D01*
X38800Y30480D01*
D11*
X50189Y27607D02*
X50189Y28273D01*
D11*
X50189Y28246D02*
X50494Y28023D01*
X50800Y28246D01*
D11*
X50800Y28273D02*
X50800Y27607D01*
D11*
X51022Y27718D02*
X51022Y27690D01*
X51106Y27607D01*
X51328Y27607D01*
X51411Y27690D01*
X51411Y27884D01*
X51328Y27968D01*
X51022Y27968D01*
X51022Y28273D01*
X51356Y28273D01*
D10*
X49530Y31750D02*
X52070Y31750D01*
X52070Y24130D01*
X49530Y24130D01*
X49530Y31750D01*
D12*
X48260Y27464D02*
X48260Y27559D01*
X48260Y27654D01*
X48260Y27749D01*
X48260Y27845D01*
X48260Y27940D01*
X48260Y28035D01*
X48260Y28130D01*
X48260Y28226D01*
X48260Y28321D01*
X48260Y28416D01*
D12*
X47784Y27940D02*
X47879Y27940D01*
X47974Y27940D01*
X48069Y27940D01*
X48165Y27940D01*
X48260Y27940D01*
X48355Y27940D01*
X48450Y27940D01*
X48546Y27940D01*
X48641Y27940D01*
X48736Y27940D01*
D12*
X47784Y25393D02*
X47879Y25393D01*
X47974Y25393D01*
X48069Y25393D01*
X48165Y25393D01*
X48260Y25393D01*
X48355Y25393D01*
X48450Y25393D01*
X48546Y25393D01*
X48641Y25393D01*
X48736Y25393D01*
D10*
X47560Y30280D02*
X47560Y30255D01*
X47635Y30180D01*
X47935Y30180D01*
X48010Y30255D01*
X48010Y30330D01*
X47935Y30405D01*
X47635Y30405D01*
X47560Y30480D01*
X47560Y30555D01*
X47635Y30630D01*
X47935Y30630D01*
X48010Y30555D01*
X48010Y30530D01*
D10*
X48260Y30780D02*
X48260Y30780D01*
D10*
X48210Y30630D02*
X48260Y30630D01*
X48260Y30180D01*
D10*
X48210Y30180D02*
X48310Y30180D01*
D10*
X48960Y30630D02*
X48960Y30105D01*
X48885Y30030D01*
X48635Y30030D01*
D10*
X48960Y30230D02*
X48610Y30230D01*
X48510Y30330D01*
X48510Y30505D01*
X48635Y30630D01*
X48810Y30630D01*
X48960Y30480D01*
D11*
X60379Y27607D02*
X60379Y28273D01*
D11*
X60379Y28246D02*
X60685Y28023D01*
X60990Y28246D01*
D11*
X60990Y28273D02*
X60990Y27607D01*
D11*
X61602Y28162D02*
X61602Y28190D01*
X61518Y28273D01*
X61296Y28273D01*
X61213Y28190D01*
X61213Y27690D01*
X61296Y27607D01*
X61518Y27607D01*
X61602Y27690D01*
X61602Y27857D01*
X61518Y27940D01*
X61213Y27940D01*
D10*
X59720Y31750D02*
X62260Y31750D01*
X62260Y24130D01*
X59720Y24130D01*
X59720Y31750D01*
D12*
X58450Y27464D02*
X58450Y27559D01*
X58450Y27654D01*
X58450Y27749D01*
X58450Y27845D01*
X58450Y27940D01*
X58450Y28035D01*
X58450Y28130D01*
X58450Y28226D01*
X58450Y28321D01*
X58450Y28416D01*
D12*
X57974Y27940D02*
X58069Y27940D01*
X58165Y27940D01*
X58260Y27940D01*
X58355Y27940D01*
X58450Y27940D01*
X58546Y27940D01*
X58641Y27940D01*
X58736Y27940D01*
X58831Y27940D01*
X58927Y27940D01*
D12*
X57974Y25393D02*
X58069Y25393D01*
X58165Y25393D01*
X58260Y25393D01*
X58355Y25393D01*
X58450Y25393D01*
X58546Y25393D01*
X58641Y25393D01*
X58736Y25393D01*
X58831Y25393D01*
X58927Y25393D01*
D10*
X57750Y30280D02*
X57750Y30255D01*
X57825Y30180D01*
X58125Y30180D01*
X58200Y30255D01*
X58200Y30330D01*
X58125Y30405D01*
X57825Y30405D01*
X57750Y30480D01*
X57750Y30555D01*
X57825Y30630D01*
X58125Y30630D01*
X58200Y30555D01*
X58200Y30530D01*
D10*
X58450Y30780D02*
X58450Y30780D01*
D10*
X58400Y30630D02*
X58450Y30630D01*
X58450Y30180D01*
D10*
X58400Y30180D02*
X58500Y30180D01*
D10*
X59150Y30630D02*
X59150Y30105D01*
X59075Y30030D01*
X58825Y30030D01*
D10*
X59150Y30230D02*
X58800Y30230D01*
X58700Y30330D01*
X58700Y30505D01*
X58825Y30630D01*
X59000Y30630D01*
X59150Y30480D01*
D16*
X12048Y35007D02*
X10402Y35007D01*
X10402Y37829D01*
D16*
X13341Y37124D02*
X14400Y37124D01*
X14988Y36654D01*
X14988Y35007D01*
X13459Y35007D01*
X12989Y35595D01*
X13459Y36183D01*
X14988Y36183D01*
D16*
X16399Y35007D02*
X16399Y37359D01*
X16869Y37829D01*
X17339Y37829D01*
X17810Y37359D01*
X17810Y37242D01*
D16*
X15928Y36183D02*
X16869Y36183D01*
D16*
X19103Y37124D02*
X20161Y37124D01*
X20749Y36654D01*
X20749Y35007D01*
X19221Y35007D01*
X18750Y35595D01*
X19221Y36183D01*
X20749Y36183D01*
D16*
X23806Y37124D02*
X23806Y34655D01*
X23454Y34302D01*
X22160Y34302D01*
D16*
X21690Y37124D02*
X21690Y35831D01*
X22160Y35360D01*
X23806Y35360D01*
D16*
X26628Y35007D02*
X25335Y35007D01*
X24747Y35595D01*
X24747Y36536D01*
X25335Y37124D01*
X26276Y37124D01*
X26863Y36536D01*
X26863Y36066D01*
X24747Y36066D01*
D16*
X28157Y37829D02*
X28157Y35478D01*
X28627Y35007D01*
X29333Y35007D01*
X29685Y35360D01*
X29685Y35478D01*
D16*
X27804Y37124D02*
X28745Y37124D01*
D16*
X30979Y37829D02*
X30979Y35478D01*
X31449Y35007D01*
X32155Y35007D01*
X32507Y35360D01*
X32507Y35478D01*
D16*
X30626Y37124D02*
X31567Y37124D01*
D16*
X35329Y35007D02*
X34036Y35007D01*
X33448Y35595D01*
X33448Y36536D01*
X34036Y37124D01*
X34977Y37124D01*
X35565Y36536D01*
X35565Y36066D01*
X33448Y36066D01*
D16*
X41679Y35713D02*
X41679Y35478D01*
X41209Y35007D01*
X40033Y35007D01*
X39562Y35478D01*
X39562Y37359D01*
X40033Y37829D01*
X41209Y37829D01*
X41679Y37359D01*
X41679Y37124D01*
D16*
X42620Y35595D02*
X42620Y36536D01*
X43208Y37124D01*
X44148Y37124D01*
X44736Y36536D01*
X44736Y35595D01*
X44148Y35007D01*
X43208Y35007D01*
X42620Y35595D01*
D16*
X45677Y37829D02*
X46147Y37829D01*
X46147Y35007D01*
D16*
X45677Y35007D02*
X46617Y35007D01*
D16*
X47558Y37829D02*
X48028Y37829D01*
X48028Y35007D01*
D16*
X47558Y35007D02*
X48499Y35007D01*
D16*
X51321Y35007D02*
X50027Y35007D01*
X49439Y35595D01*
X49439Y36536D01*
X50027Y37124D01*
X50968Y37124D01*
X51556Y36536D01*
X51556Y36066D01*
X49439Y36066D01*
D16*
X54613Y37124D02*
X54613Y34655D01*
X54260Y34302D01*
X53085Y34302D01*
D16*
X54613Y35243D02*
X52967Y35243D01*
X52497Y35713D01*
X52497Y36536D01*
X53085Y37124D01*
X53908Y37124D01*
X54613Y36418D01*
D16*
X57435Y35007D02*
X56142Y35007D01*
X55554Y35595D01*
X55554Y36536D01*
X56142Y37124D01*
X57082Y37124D01*
X57670Y36536D01*
X57670Y36066D01*
X55554Y36066D01*
D17*
X7511Y17479D02*
X7511Y19595D01*
D17*
X7511Y19507D02*
X8481Y18802D01*
X9451Y19507D01*
D17*
X9451Y19595D02*
X9451Y17479D01*
D17*
X10332Y19595D02*
X10332Y19595D01*
D17*
X10156Y19066D02*
X10332Y19066D01*
X10332Y17479D01*
D17*
X10156Y17479D02*
X10509Y17479D01*
D17*
X11214Y17479D02*
X11214Y19066D01*
D17*
X11214Y18537D02*
X11743Y19066D01*
X12360Y19066D01*
X12801Y18626D01*
X12801Y17479D01*
D17*
X13683Y19595D02*
X13683Y19595D01*
D17*
X13506Y19066D02*
X13683Y19066D01*
X13683Y17479D01*
D17*
X13506Y17479D02*
X13859Y17479D01*
D17*
X16857Y17832D02*
X17209Y17479D01*
X18091Y17479D01*
X18444Y17832D01*
X18444Y18185D01*
X18091Y18537D01*
X17209Y18537D01*
X16857Y18890D01*
X16857Y19243D01*
X17209Y19595D01*
X18091Y19595D01*
X18444Y19243D01*
D17*
X19414Y19595D02*
X19414Y17832D01*
X19766Y17479D01*
X20295Y17479D01*
X20560Y17744D01*
X20560Y17832D01*
D17*
X19149Y19066D02*
X19854Y19066D01*
D17*
X22676Y17479D02*
X21706Y17479D01*
X21265Y17920D01*
X21265Y18626D01*
X21706Y19066D01*
X22411Y19066D01*
X22852Y18626D01*
X22852Y18273D01*
X21265Y18273D01*
D17*
X23557Y19066D02*
X23557Y18185D01*
X23998Y17479D01*
X24175Y17479D01*
X24615Y18008D01*
X25056Y17479D01*
X25233Y17479D01*
X25673Y18185D01*
X25673Y19066D01*
D17*
X24615Y18185D02*
X24615Y18008D01*
D17*
X26643Y19066D02*
X27437Y19066D01*
X27878Y18714D01*
X27878Y17479D01*
X26731Y17479D01*
X26379Y17920D01*
X26731Y18361D01*
X27878Y18361D01*
D17*
X28583Y17479D02*
X28583Y19066D01*
D17*
X28583Y18361D02*
X29200Y19066D01*
X29905Y19066D01*
X30170Y18802D01*
X30170Y18714D01*
D17*
X31140Y19595D02*
X31140Y17832D01*
X31492Y17479D01*
X32021Y17479D01*
X32286Y17744D01*
X32286Y17832D01*
D17*
X30875Y19066D02*
X31581Y19066D01*
D17*
X35284Y17479D02*
X35284Y19595D01*
X36342Y19595D01*
X36694Y19243D01*
X36694Y18890D01*
X36342Y18537D01*
X35284Y18537D01*
D17*
X37400Y19595D02*
X37752Y19595D01*
X37752Y17479D01*
D17*
X37400Y17479D02*
X38105Y17479D01*
D17*
X39075Y19066D02*
X39868Y19066D01*
X40309Y18714D01*
X40309Y17479D01*
X39163Y17479D01*
X38810Y17920D01*
X39163Y18361D01*
X40309Y18361D01*
D17*
X41279Y19595D02*
X41279Y17832D01*
X41632Y17479D01*
X42161Y17479D01*
X42425Y17744D01*
X42425Y17832D01*
D17*
X41014Y19066D02*
X41720Y19066D01*
D17*
X43483Y17479D02*
X43483Y19243D01*
X43836Y19595D01*
X44188Y19595D01*
X44541Y19243D01*
X44541Y19155D01*
D17*
X43130Y18361D02*
X43836Y18361D01*
D17*
X45246Y17920D02*
X45246Y18626D01*
X45687Y19066D01*
X46393Y19066D01*
X46833Y18626D01*
X46833Y17920D01*
X46393Y17479D01*
X45687Y17479D01*
X45246Y17920D01*
D17*
X47539Y17479D02*
X47539Y19066D01*
D17*
X47539Y18361D02*
X48156Y19066D01*
X48861Y19066D01*
X49126Y18802D01*
X49126Y18714D01*
D17*
X49831Y19066D02*
X49831Y17479D01*
D17*
X49831Y18626D02*
X50272Y19066D01*
X50625Y19066D01*
X50889Y18802D01*
X50889Y17479D01*
D17*
X50889Y18802D02*
X51065Y19066D01*
X51506Y19066D01*
X51947Y18626D01*
X51947Y17479D01*
D17*
X54945Y19595D02*
X54945Y18361D01*
X55650Y17479D01*
X56355Y18361D01*
X56355Y19595D01*
D17*
X57325Y17479D02*
X57061Y17744D01*
X57061Y19331D01*
X57325Y19595D01*
X58031Y19595D01*
X58295Y19331D01*
X58295Y17744D01*
X58031Y17479D01*
X57325Y17479D01*
D17*
X57061Y18008D02*
X58295Y19066D01*
D17*
X59000Y17479D02*
X59062Y17479D01*
X59062Y17541D01*
X59000Y17479D01*
D17*
X60208Y17479D02*
X60208Y19595D01*
X60032Y19595D01*
X59767Y19243D01*
D17*
X59767Y17479D02*
X60561Y17479D01*
D18*
X24877Y10743D02*
X24877Y12154D01*
D18*
X24877Y12096D02*
X25524Y11625D01*
X26171Y12096D01*
D18*
X26171Y12154D02*
X26171Y10743D01*
D18*
X27464Y10743D02*
X26641Y10743D01*
X26641Y12154D01*
X27464Y12154D01*
D18*
X27347Y11449D02*
X26641Y11449D01*
D18*
X29463Y11919D02*
X29463Y11978D01*
X29639Y12154D01*
X30110Y12154D01*
X30286Y11978D01*
X30286Y11743D01*
X29992Y11449D01*
X30286Y11155D01*
X30286Y10920D01*
X30110Y10743D01*
X29639Y10743D01*
X29463Y10920D01*
X29463Y10979D01*
D18*
X29816Y11449D02*
X29992Y11449D01*
D18*
X31580Y11449D02*
X30933Y11449D01*
X30757Y11625D01*
X30757Y11978D01*
X30933Y12154D01*
X31403Y12154D01*
X31580Y11978D01*
X31580Y10920D01*
X31403Y10743D01*
X30933Y10743D01*
D18*
X32050Y10979D02*
X32050Y10920D01*
X32226Y10743D01*
X32697Y10743D01*
X32873Y10920D01*
X32873Y11331D01*
X32697Y11508D01*
X32050Y11508D01*
X32050Y12154D01*
X32755Y12154D01*
D18*
X34872Y10979D02*
X35107Y10743D01*
X35695Y10743D01*
X35930Y10979D01*
X35930Y11214D01*
X35695Y11449D01*
X35107Y11449D01*
X34872Y11684D01*
X34872Y11919D01*
X35107Y12154D01*
X35695Y12154D01*
X35930Y11919D01*
D18*
X36401Y10743D02*
X36401Y12154D01*
X37106Y12154D01*
X37341Y11919D01*
X37341Y11684D01*
X37106Y11449D01*
X36401Y11449D01*
D18*
X39634Y10743D02*
X39634Y12154D01*
X39516Y12154D01*
X39340Y11919D01*
D18*
X39340Y10743D02*
X39869Y10743D01*
D18*
X41163Y11919D02*
X41163Y11978D01*
X40986Y12154D01*
X40516Y12154D01*
X40340Y11978D01*
X40340Y10920D01*
X40516Y10743D01*
X40986Y10743D01*
X41163Y10920D01*
X41163Y11273D01*
X40986Y11449D01*
X40340Y11449D01*
M02*
