%
M48
METRIC,TZ,000.000
ICI,OFF
T1C0.9
T2C1
T3C3.175
%
T1
X10160Y30480
T1
X10160Y27940
T1
X10160Y25400
T1
X20320Y30480
T1
X20320Y27940
T1
X20320Y25400
T1
X30480Y30480
T1
X30480Y27940
T1
X30480Y25400
T1
X10160Y13989
T1
X10160Y8909
T2
X26416Y50800
T2
X45720Y50800
T2
X55880Y50800
T2
X58420Y50800
T2
X50800Y50800
T2
X31496Y50800
T2
X36576Y50800
T2
X39116Y50800
T2
X53340Y50800
T2
X60960Y50800
T2
X60990Y2540
T2
X45720Y2540
T2
X18796Y50800
T2
X23876Y50800
T2
X33020Y2540
T2
X21336Y50800
T2
X55880Y2540
T2
X35560Y2540
T2
X27940Y2540
T2
X63500Y50800
T2
X41656Y50800
T2
X28956Y50800
T2
X58420Y2540
T2
X43180Y2540
T2
X34036Y50800
T2
X48260Y50800
T2
X63500Y2540
T2
X53340Y2540
T2
X40640Y2540
T2
X30480Y2540
T2
X50800Y2540
T2
X38100Y2540
T3
X13970Y2540
T3
X66040Y7620
T3
X15240Y50800
T3
X66040Y35560
T1
X40640Y30480
T1
X40640Y27940
T1
X40640Y25400
T1
X50800Y30480
T1
X50800Y27940
T1
X50800Y25400
T1
X60990Y30480
T1
X60990Y27940
T1
X60990Y25400
M30
